<svg width="45" height="48" viewBox="0 0 45 48" fill="none" xmlns="http://www.w3.org/2000/svg">
<path d="M36.784 7.44728L38.3055 6.95197L39.868 11.7524L38.3465 12.2473L36.784 7.44728Z" fill="#C4C4C4"/>
<path d="M34.439 13.0481L35.9605 12.5527L37.5234 17.3523L36.0019 17.8481L34.439 13.0481Z" fill="#C4C4C4"/>
<path d="M7.4625 15.3817C7.29375 16.6039 7.65039 17.8406 8.44492 18.7848L9.6 20.2336V33.6H11.2V21.4953L12.3559 22.2656C12.625 22.4449 12.975 22.4449 13.2441 22.2656L15.2 20.9602L17.1559 22.2641C17.425 22.4434 17.775 22.4434 18.0441 22.2641L20 20.9602L21.9559 22.2641C22.225 22.4434 22.575 22.4434 22.8441 22.2641L24.8 20.9602L26.7558 22.2641C27.025 22.4434 27.375 22.4434 27.6441 22.2641L29.6 20.9602L31.2 22.0266V46.4H13.6V48H36C38.2082 47.9973 39.9972 46.2082 40 44V20C39.998 19.8242 39.9375 19.6539 39.8281 19.516L44.4512 7.20822C45.0734 5.55471 44.8457 3.70158 43.8418 2.24807C42.8879 0.837913 41.2949 -0.0050553 39.593 2.28134e-05C37.4234 0.0203353 35.491 1.3758 34.7336 3.40901L33.4793 6.74807L32 5.26877V2.40002C32 1.95823 31.6418 1.60002 31.2 1.60002H22.4C21.9582 1.60002 21.6 1.95823 21.6 2.40002V3.77268C20.6957 2.95315 19.3316 2.90666 18.3734 3.6633V2.40002C18.3734 1.09065 17.3121 0.028929 16.0023 0.028929C14.693 0.028929 13.6312 1.09065 13.6312 2.40002V3.66408C13.1934 3.30119 12.6422 3.10276 12.0734 3.10393C11.4133 3.10237 10.7805 3.36877 10.3199 3.8426C9.37109 4.82033 9.36523 6.37346 10.3062 7.35861L11.0512 8.12736C10.7801 8.25158 10.534 8.42424 10.325 8.63674L10.3199 8.63986L10.3121 8.64807C10.1258 8.83947 9.97148 9.05978 9.85585 9.3008L8.94414 7.61682L7.53672 8.37854L9.60546 12.1969C9.51289 12.2496 9.41992 12.3008 9.33203 12.361C9.29921 12.3832 9.27031 12.409 9.23828 12.4313L6.14258 9.57853L5.05781 10.7551L8.13281 13.5903C7.77968 14.1305 7.55078 14.7422 7.4625 15.3817ZM24.3558 19.3344L22.4 20.6399L20.4441 19.336C20.175 19.1567 19.825 19.1567 19.5559 19.336L17.6184 20.6281C17.6137 20.5481 17.6 20.4785 17.6 20.4016C17.5949 18.6434 18.8641 17.1399 20.598 16.85C22.3324 16.5598 24.0215 17.5684 24.5887 19.2328C24.5062 19.2543 24.4277 19.2883 24.3558 19.3344ZM26.4 20.1055L26.3848 20.0953C26.2887 18.4137 25.3828 16.8832 23.9547 15.9899C22.5269 15.0965 20.7543 14.9512 19.2 15.6V10.4H26.4V20.1055ZM38.4 44C38.4 45.3254 37.3254 46.4 36 46.4H32.8V22.0281L34.4 20.9602L36.3558 22.2641C36.625 22.4434 36.975 22.4434 37.2441 22.2641L38.4 21.4953V44ZM36.2312 3.97111C36.7527 2.56096 38.0894 1.61838 39.593 1.60002C40.7687 1.59768 41.8683 2.18088 42.5265 3.1551C43.2328 4.17815 43.3922 5.48244 42.9535 6.64572L38 19.8399L36.8 20.6399L34.8441 19.336C34.575 19.1567 34.225 19.1567 33.9558 19.336L32 20.6399L30.3769 19.5578L36.2312 3.97111ZM32.8617 8.39299L28.616 19.6945L28 20.1055V9.93127L31.2 6.73127L32.8617 8.39299ZM23.2 3.20002H30.4V4.80002H23.2V3.20002ZM22.7312 6.40002H29.2687L26.8687 8.80002H20.3312L22.7312 6.40002ZM11.4617 4.96486C11.6223 4.79924 11.843 4.70549 12.0734 4.70549C12.3043 4.70588 12.525 4.79924 12.6855 4.96486L13.8602 6.16486C14.0883 6.39768 14.4348 6.46838 14.7359 6.34455C15.0371 6.22033 15.2332 5.9258 15.2312 5.60002V2.40002C15.2184 2.11604 15.3625 1.84807 15.6062 1.70237C15.8504 1.55627 16.1547 1.55627 16.3984 1.70237C16.6426 1.84807 16.7867 2.11604 16.7734 2.40002V5.60002C16.7738 5.92463 16.9703 6.21682 17.2711 6.33947C17.5715 6.46252 17.9164 6.39143 18.1441 6.16018L19.3223 4.96018C19.6598 4.62776 20.2012 4.62776 20.5383 4.96018C20.8859 5.31604 20.8859 5.884 20.5383 6.23986L18.1816 8.63986L18.2055 8.66408L17.8344 9.03518C17.7699 9.10158 17.718 9.17893 17.6801 9.2633C17.6687 9.28791 17.6625 9.31291 17.6535 9.3383C17.6297 9.40666 17.6152 9.47775 17.6105 9.54963C17.6105 9.56721 17.6008 9.58166 17.6008 9.59924V16.6559C17.4187 16.8301 17.2496 17.0172 17.0953 17.216L15.584 14C15.0262 12.8903 14.018 12.0738 12.816 11.7602C12.5363 11.6879 12.2496 11.6442 11.9609 11.6305L11.7559 11.3903C11.5961 11.207 11.4754 11.0641 11.4559 11.0442C11.2492 10.8278 11.1598 10.5246 11.216 10.2305C11.2457 10.0633 11.3227 9.90861 11.4375 9.784L11.4519 9.77033L11.4719 9.74885C11.7617 9.46486 12.2105 9.42307 12.548 9.64807C12.8875 9.87502 13.343 9.80978 13.6055 9.49728C13.868 9.18439 13.8527 8.72463 13.5703 8.42971L11.4559 6.24729C11.1125 5.88791 11.1152 5.32111 11.4617 4.96486ZM9.04804 15.6C9.15234 14.8246 9.58164 14.1301 10.2289 13.6903C10.8707 13.2563 11.668 13.1188 12.4184 13.3129C13.1684 13.5074 13.7988 14.0149 14.1488 14.7063L16.1879 19.0496C16.1375 19.2367 16.0976 19.4266 16.0687 19.6184L15.6473 19.3367C15.3785 19.1574 15.0281 19.1574 14.7594 19.3367L12.8 20.6399L11.0258 19.4559L10.8543 19.241L12.9168 17.6465L11.9375 16.3809L9.85781 17.9895L9.68007 17.768C9.17109 17.168 8.9414 16.3797 9.04804 15.6Z" fill="#C4C4C4"/>
<path d="M1.7082 46.0047C2.31601 47.2308 3.56836 48.0047 4.93672 48C5.49726 47.9992 6.04961 47.8687 6.55117 47.6191L7.2 47.2945L7.84961 47.6191C8.35078 47.8687 8.90312 47.9992 9.46328 48C10.832 48.0047 12.084 47.2308 12.6922 46.0047L12.9711 45.4449C13.9078 43.5652 14.3969 41.4945 14.4 39.3945C14.3973 37.0789 12.5211 35.2027 10.2055 35.2C9.425 35.2023 8.66054 35.4238 8 35.8398V35.2C8 33.4328 6.56718 32 4.8 32V33.6C5.68359 33.6 6.4 34.3164 6.4 35.2V35.8398C5.73945 35.4238 4.975 35.2023 4.19453 35.2C1.87891 35.2027 0.00273438 37.0789 0 39.3945C0.00273438 41.4949 0.491797 43.5664 1.42891 45.4465L1.7082 46.0047ZM4.19453 36.8C4.88281 36.798 5.54336 37.0719 6.0289 37.5601L6.63437 38.1656C6.94687 38.4777 7.45312 38.4777 7.76562 38.1656L8.37109 37.5601C9.11328 36.818 10.2289 36.5961 11.1984 36.9976C12.168 37.3992 12.8 38.3453 12.8 39.3945C12.798 41.2469 12.3668 43.0734 11.5398 44.7312L11.2609 45.2914C10.9215 45.973 10.2246 46.4027 9.46328 46.4C9.15156 46.3996 8.84414 46.3269 8.56484 46.1879L7.55781 45.684C7.33242 45.5715 7.06757 45.5715 6.84258 45.684L5.83594 46.1879C5.55664 46.3269 5.24883 46.3996 4.93672 46.4C4.175 46.4023 3.47773 45.9715 3.13906 45.2887L2.86016 44.7289C2.03359 43.0719 1.60234 41.2461 1.6 39.3945C1.60195 37.9625 2.7625 36.8019 4.19453 36.8Z" fill="#C4C4C4"/>
</svg>
