<svg width="48" height="48" viewBox="0 0 48 48" fill="none" xmlns="http://www.w3.org/2000/svg">
<path d="M24 0C10.7851 0 0 10.7859 0 24C0 37.2149 10.7859 48 24 48C37.2149 48 48 37.2141 48 24C48 10.7851 37.2141 0 24 0ZM24 45.1875C12.3172 45.1875 2.8125 35.6828 2.8125 24C2.8125 12.3172 12.3172 2.8125 24 2.8125C35.6828 2.8125 45.1875 12.3172 45.1875 24C45.1875 35.6828 35.6828 45.1875 24 45.1875Z" fill="#C4C4C4"/>
<path d="M34.7455 9.21009C33.1332 8.03869 31.1224 7.61653 29.2006 8.0115C27.853 6.50175 25.9718 5.625 24 5.625C22.0283 5.625 20.1471 6.50175 18.7994 8.0115C16.8779 7.61653 14.8669 8.03869 13.2545 9.21009C11.6406 10.3826 10.6173 12.1672 10.4005 14.1194C8.61113 14.9288 7.2301 16.4534 6.61342 18.3507C5.99701 20.2481 6.21807 22.2933 7.19017 24C6.21807 25.7067 5.99701 27.7519 6.61351 29.6491C7.22992 31.5464 8.61104 33.0711 10.4006 33.8806C10.6175 35.8327 11.6407 37.6172 13.2546 38.7897C14.8687 39.9624 16.882 40.3843 18.8055 39.9871C20.1282 41.439 22.005 42.2812 24 42.2812C25.9951 42.2812 27.8719 41.4391 29.1946 39.9871C31.1179 40.3842 33.1315 39.9622 34.7455 38.7897C36.3594 37.6172 37.3826 35.8327 37.5995 33.8806C39.3891 33.0712 40.7702 31.5464 41.3866 29.6491C42.0031 27.7518 41.782 25.7066 40.8099 24C41.782 22.2933 42.0031 20.2481 41.3867 18.3507C40.77 16.4536 39.389 14.9288 37.5996 14.1194C37.3826 12.1672 36.3594 10.3826 34.7455 9.21009ZM38.7117 19.2198C39.1467 20.5586 38.8858 22.021 38.0139 23.1318L37.3324 24.0001L38.0139 24.8684C38.8858 25.9792 39.1467 27.4415 38.7117 28.7801C38.2767 30.1189 37.2061 31.1487 35.8478 31.5349L34.786 31.8368L34.8271 32.9397C34.8796 34.3507 34.231 35.6872 33.0924 36.5144C31.9536 37.3418 30.4822 37.5457 29.1565 37.0597L28.12 36.6798L27.5049 37.5964C26.7179 38.7688 25.4078 39.4688 24 39.4688C22.5924 39.4688 21.2821 38.7688 20.4952 37.5964L19.88 36.6798L18.8436 37.0597C17.5178 37.5457 16.0464 37.3418 14.9077 36.5144C13.769 35.6871 13.1204 34.3507 13.1729 32.9397L13.214 31.8368L12.1523 31.5349C10.7939 31.1486 9.72329 30.1189 9.28829 28.7801C8.85338 27.4415 9.1142 25.9792 9.98607 24.8684L10.6676 24.0001L9.98607 23.1318C9.1142 22.021 8.85329 20.5586 9.2882 19.22C9.72338 17.8812 10.794 16.8514 12.1522 16.4652L13.2139 16.1633L13.1728 15.0604C13.1203 13.6493 13.7689 12.3127 14.9076 11.4855C16.0464 10.6581 17.5178 10.4542 18.8435 10.9402L19.8799 11.3201L20.4951 10.4035C21.3215 9.17241 22.6316 8.4375 24 8.4375C25.3684 8.4375 26.6786 9.17241 27.5048 10.4034L28.1199 11.32L29.1565 10.9401C30.4821 10.4542 31.9535 10.658 33.0924 11.4854C34.231 12.3127 34.8796 13.6492 34.8271 15.0603L34.786 16.1632L35.8478 16.4651C37.2059 16.8514 38.2765 17.8811 38.7117 19.2198Z" fill="#C4C4C4"/>
<path d="M28.2188 22.5938C25.1171 22.5938 22.5938 25.1171 22.5938 28.2188C22.5938 31.3204 25.1171 33.8438 28.2188 33.8438C31.3204 33.8438 33.8438 31.3204 33.8438 28.2188C33.8438 25.1171 31.3204 22.5938 28.2188 22.5938ZM28.2188 31.0312C26.6679 31.0312 25.4062 29.7696 25.4062 28.2188C25.4062 26.6679 26.6679 25.4062 28.2188 25.4062C29.7696 25.4062 31.0312 26.6679 31.0312 28.2188C31.0312 29.7696 29.7696 31.0312 28.2188 31.0312Z" fill="#C4C4C4"/>
<path d="M22.5938 11.3438H25.4062V14.1562H22.5938V11.3438Z" fill="#C4C4C4"/>
<path d="M16.9688 16.9688H19.7812V19.7812H16.9688V16.9688Z" fill="#C4C4C4"/>
<path d="M14.1562 25.4062H16.9688V28.2188H14.1562V25.4062Z" fill="#C4C4C4"/>
<path d="M16.9688 31.0312H19.7812V33.8438H16.9688V31.0312Z" fill="#C4C4C4"/>
<path d="M28.2188 19.7812C28.2188 18.2304 29.4804 16.9688 31.0312 16.9688V14.1562C27.9296 14.1562 25.4062 16.6796 25.4062 19.7812H28.2188Z" fill="#C4C4C4"/>
</svg>
