<svg width="48" height="48" viewBox="0 0 48 48" fill="none" xmlns="http://www.w3.org/2000/svg">
<path d="M23.2852 4.32328C23.1323 4.17507 22.9221 4.09587 22.7112 4.10528C21.3349 4.15939 19.9626 4.3523 18.6333 4.68009L19.009 6.20301C19.9727 5.9654 20.9608 5.80464 21.9576 5.72229V20.5531H5.11768C5.32392 19.5806 5.6078 18.6239 5.96461 17.6978L4.50208 17.1332C3.9947 18.4475 3.62378 19.8198 3.3995 21.2118C3.36264 21.4392 3.42773 21.6698 3.57673 21.8454C3.72572 22.0211 3.94373 22.1215 4.1735 22.1215H22.7418C23.1754 22.1215 23.526 21.7701 23.526 21.3373V4.88869C23.526 4.67539 23.4397 4.4715 23.2852 4.32328Z" fill="white"/>
<path d="M39.8365 12.2398L38.5818 13.1816C41.0449 16.4588 42.3467 20.3633 42.3467 24.474C42.3467 24.7242 42.3404 24.9838 42.3279 25.2582H26.6627V5.91913C27.9088 6.12851 29.1306 6.46258 30.3061 6.91663L30.8715 5.4541C29.3008 4.84713 27.6524 4.437 25.9727 4.23624C25.746 4.20958 25.5264 4.28016 25.3586 4.42837C25.19 4.57658 25.0944 4.78988 25.0944 5.01495V26.0424C25.0944 26.4753 25.4449 26.8266 25.8785 26.8266H43.0627C43.4713 26.8266 43.8116 26.5122 43.8445 26.1052C43.8924 25.5092 43.9151 24.9759 43.9151 24.474C43.9151 20.0206 42.5043 15.7906 39.8365 12.2398Z" fill="white"/>
<path d="M22.7418 23.6898H3.92099C3.48733 23.6898 3.13679 24.0412 3.13679 24.474C3.13679 25.5696 3.22384 26.6667 3.39636 27.7363L4.94516 27.4869C4.82674 26.7545 4.75224 26.0079 4.72166 25.2582H21.9576V43.2258C20.4386 43.1003 18.9462 42.7929 17.5088 42.3083L17.0077 43.7951C18.8435 44.4139 20.7617 44.7668 22.7104 44.8428C22.7206 44.8428 22.7308 44.8436 22.741 44.8436C22.9433 44.8436 23.1386 44.7652 23.2844 44.6248C23.4397 44.4766 23.526 44.2727 23.526 44.0594V24.474C23.526 24.0412 23.1754 23.6898 22.7418 23.6898Z" fill="white"/>
<path d="M43.1748 28.6962C43.0274 28.5056 42.8 28.395 42.5592 28.395H25.8785C25.4449 28.395 25.0944 28.7464 25.0944 29.1792V43.9331C25.0944 44.1574 25.19 44.3707 25.3578 44.5197C25.5029 44.6483 25.688 44.7173 25.8785 44.7173C25.9091 44.7173 25.9405 44.7158 25.9719 44.7119C26.7921 44.6138 27.6155 44.4641 28.4186 44.2664L28.0429 42.7435C27.5881 42.8557 27.1262 42.9513 26.662 43.029V29.9634H41.5288C41.4747 30.1422 41.4174 30.3202 41.3578 30.4975L42.8439 30.9986C43.0258 30.459 43.1866 29.9101 43.3191 29.3674C43.3772 29.1338 43.3238 28.8859 43.1748 28.6962Z" fill="white"/>
<path d="M17.8766 7.69691C17.8758 7.69612 17.875 7.69612 17.8742 7.69612C16.7771 6.87271 15.4777 6.43748 14.1156 6.43748C13.8795 6.43748 13.6396 6.45552 13.3941 6.4861C12.6295 4.92398 11.3089 3.68416 9.6872 3.02936C10.3334 2.34397 11.145 1.80366 12.0382 1.46802L11.4869 0C10.36 0.422683 9.33588 1.1065 8.52345 1.97618C8.33525 2.17772 8.16821 2.38239 8.01294 2.58864C7.69926 2.54629 7.38244 2.51649 7.05779 2.51649C3.16581 2.51649 0 5.68309 0 9.57428C0 13.4655 3.16581 16.6321 7.05779 16.6321C7.73455 16.6321 8.38779 16.5309 9.00809 16.3521C9.90443 17.6068 11.2391 18.4969 12.7542 18.8325C12.755 18.8325 12.755 18.8333 12.7558 18.8333C13.2106 18.9337 13.6686 18.9847 14.1156 18.9847C15.6087 18.9847 17.0587 18.4467 18.1965 17.4712C18.1973 17.4704 18.1973 17.4704 18.1981 17.4696C19.5901 16.2745 20.3892 14.5398 20.3892 12.7111C20.3892 10.7239 19.4732 8.89673 17.8766 7.69691ZM7.05779 15.0637C4.03156 15.0637 1.5684 12.6013 1.5684 9.57428C1.5684 6.54727 4.03156 4.08489 7.05779 4.08489C7.07896 4.08489 7.09856 4.08803 7.11974 4.08803C6.81312 4.76949 6.64216 5.40862 6.54806 5.92619L8.09058 6.20771C8.1839 5.69642 8.37132 5.03769 8.73911 4.35073C10.3334 4.86517 11.6061 6.09008 12.1927 7.65064C12.2484 7.79964 12.2978 7.94942 12.3401 8.09999C12.3456 8.11959 12.3503 8.1392 12.355 8.1588C12.3919 8.29525 12.4241 8.4317 12.4507 8.56972C12.4617 8.6301 12.4695 8.69127 12.479 8.75165C12.4946 8.8536 12.5111 8.95555 12.5213 9.05828C12.537 9.22766 12.5472 9.40019 12.5472 9.57428C12.5472 9.97814 12.4978 10.3969 12.3997 10.8188C11.8328 13.2475 9.65584 15.0637 7.05779 15.0637ZM12.3441 17.0681C11.632 16.7779 11.0039 16.3137 10.509 15.724C11.6673 15.0715 12.6256 14.1054 13.2616 12.9369L12.3441 17.0681ZM18.7557 11.9269H15.684L17.5245 9.4739C18.1754 10.1538 18.602 11.0023 18.7557 11.9269ZM16.2698 8.53129L14.2136 11.2721L13.9909 10.8706V10.8698C14.0301 10.6596 14.0622 10.4471 14.0819 10.2307C14.1038 10.0111 14.1156 9.7915 14.1156 9.57428C14.1156 9.31471 14.0991 9.05906 14.0717 8.80655C14.0677 8.76969 14.0599 8.73362 14.0552 8.69676C14.027 8.47013 13.9885 8.24663 13.9391 8.02705C13.9383 8.02157 13.9376 8.01608 13.936 8.0098C14.7767 7.97294 15.5538 8.15958 16.2698 8.53129ZM13.8748 17.41L14.5406 14.4128L16.5372 16.7419C15.7404 17.221 14.819 17.4586 13.8748 17.41ZM17.7276 15.72L15.8212 13.4953H18.7549C18.6161 14.3132 18.2616 15.0809 17.7276 15.72Z" fill="white"/>
<path d="M30.5837 15.0637H29.0153V16.6321H30.5837V15.0637Z" fill="white"/>
<path d="M33.7205 16.6321H32.1521V18.2005H33.7205V16.6321Z" fill="white"/>
<path d="M36.8573 22.1215H35.2889V23.6898H36.8573V22.1215Z" fill="white"/>
<path d="M30.5837 21.3373H29.0153V22.9057H30.5837V21.3373Z" fill="white"/>
<path d="M29.7995 18.2005H28.2311V19.7689H29.7995V18.2005Z" fill="white"/>
<path d="M40.7783 18.9847H39.2099V20.5531H40.7783V18.9847Z" fill="white"/>
<path d="M36.8573 15.8479H35.2889V17.4163H36.8573V15.8479Z" fill="white"/>
<path d="M33.7205 19.7689H32.1521V21.3373H33.7205V19.7689Z" fill="white"/>
<path d="M36.8573 18.9847H35.2889V20.5531H36.8573V18.9847Z" fill="white"/>
<path d="M47.0519 0.948094C45.0083 0.948094 43.0619 1.47978 41.31 2.39416C41.1571 2.04597 40.9493 1.71269 40.6662 1.42959C39.6005 0.364651 37.636 0.915158 37.4149 0.981031C37.1632 1.0571 36.9656 1.25393 36.8895 1.50566C36.8236 1.72602 36.2723 3.69044 37.3388 4.75695C37.462 4.87928 37.5953 4.98436 37.7309 5.08239C37.2173 5.62192 36.7515 6.21085 36.3217 6.82958C36.2135 6.67274 36.099 6.51904 35.961 6.38102C34.9274 5.34823 32.9975 5.70191 32.7803 5.7466C32.4901 5.80542 32.258 6.02264 32.1788 6.30809C32.0729 6.6947 31.5985 8.67323 32.6336 9.70837C33.1536 10.2267 33.8068 10.5177 34.4538 10.5749C33.9864 11.9935 33.7205 13.5015 33.7205 15.0637H35.2889C35.2889 13.9368 35.4568 12.8373 35.7469 11.781C36.1798 12.0257 36.6934 12.1723 37.2494 12.1723C38.7488 12.1723 39.7816 10.4047 39.8945 10.2024C40.0271 9.96481 40.0271 9.67465 39.8945 9.43626C39.7957 9.25981 38.9943 7.88747 37.7929 7.54477C38.2744 6.88369 38.8123 6.27202 39.4005 5.71759C39.8004 6.59589 40.7917 7.22168 41.9546 7.22168C43.454 7.22168 44.4868 5.4541 44.5997 5.25178C44.7323 5.01416 44.7323 4.72401 44.5997 4.48561C44.5323 4.36485 44.13 3.68573 43.5003 3.15797C44.6319 2.74705 45.8262 2.51649 47.0519 2.51649V0.948094ZM35.2874 8.54933C35.2246 8.67245 35.1721 8.80106 35.1125 8.92653C35.0678 8.93829 35.0223 8.94849 34.98 8.96809C34.6835 9.10219 34.1644 9.01985 33.7433 8.59873C33.5323 8.38778 33.5198 7.76905 33.5943 7.2256C34.0766 7.20364 34.6239 7.26168 34.8521 7.48988C35.1478 7.78552 35.314 8.17605 35.2858 8.50934C35.285 8.52267 35.2882 8.536 35.2874 8.54933ZM38.2705 9.81973C37.9654 10.2189 37.5514 10.6039 37.2494 10.6039C36.8464 10.6039 36.4778 10.4518 36.2637 10.2448C36.426 9.85502 36.608 9.47547 36.8056 9.10454C36.9467 9.06219 37.095 9.03553 37.2494 9.03553C37.5521 9.03553 37.9654 9.42057 38.2705 9.81973ZM38.9402 3.96961C38.7731 3.9006 38.6045 3.80493 38.4485 3.64809C38.2367 3.43636 38.2242 2.87801 38.2987 2.39024C38.759 2.32201 39.3354 2.31652 39.5573 2.53845C39.7534 2.7345 39.8851 2.97211 39.9487 3.20737C39.6012 3.44498 39.2656 3.69985 38.9402 3.96961ZM41.9546 5.65329C41.3281 5.65329 40.7783 5.28706 40.7768 4.91379C40.7791 4.89967 40.7893 4.83537 40.7909 4.82125C40.8003 4.74283 40.7948 4.66519 40.7807 4.58913C40.9516 4.46915 41.1257 4.35465 41.3014 4.2433C41.5006 4.14684 41.7202 4.08489 41.9546 4.08489C42.2573 4.08489 42.6706 4.46993 42.9757 4.86909C42.6706 5.26824 42.2565 5.65329 41.9546 5.65329Z" fill="white"/>
<path d="M17.8703 31.7459C17.9801 31.4268 18.0366 31.0903 18.0366 30.7476C18.0366 29.0177 16.6297 27.6108 14.8998 27.6108C13.9438 27.6108 13.0538 28.0555 12.4688 28.7777C11.8116 28.4193 11.0258 28.3049 10.2895 28.4727C9.59624 27.9135 8.74303 27.6108 7.84198 27.6108C5.67995 27.6108 3.92099 29.3698 3.92099 31.5318C2.19105 31.5318 0.784198 32.9387 0.784198 34.6686C0.784198 35.1995 0.915944 35.7085 1.16375 36.161C0.443072 36.746 0 37.6345 0 38.5896C0 40.3196 1.40685 41.7264 3.13679 41.7264C4.27074 41.7264 5.26746 41.121 5.81797 40.216L7.08759 42.7553L7.85296 47.3444C7.9157 47.7224 8.24271 48 8.62618 48H14.8998C15.3334 48 15.684 47.6487 15.684 47.2158V42.5757L16.4572 37.9348C16.4642 37.8917 16.4682 37.8486 16.4682 37.8054C18.6302 37.8054 20.3892 36.3986 20.3892 34.6686C20.3892 33.3386 19.3501 32.1968 17.8703 31.7459ZM16.4682 36.237C16.2831 36.237 16.0902 36.2143 15.8432 36.1633C15.6126 36.1155 15.3719 36.1743 15.1891 36.3233C15.0064 36.4723 14.8998 36.695 14.8998 36.931V37.7411L14.1266 42.382C14.1195 42.4243 14.1156 42.4675 14.1156 42.5106V46.4316H9.2904L8.61599 42.3812C8.60266 42.3044 8.57913 42.2299 8.54384 42.1593L6.19125 37.4541C6.05793 37.189 5.7866 37.0212 5.48939 37.0212H5.33255C5.07612 37.0212 4.83537 37.1467 4.68951 37.3569C4.54208 37.5678 4.50836 37.8368 4.59697 38.0768C4.67069 38.2775 4.70519 38.4406 4.70519 38.5896C4.70519 39.4546 4.00176 40.158 3.13679 40.158C2.27182 40.158 1.5684 39.4546 1.5684 38.5896C1.5684 37.9403 1.98167 37.3514 2.59727 37.1247C2.85291 37.0299 3.04112 36.8103 3.09523 36.5421C3.14856 36.2747 3.05916 35.9986 2.85919 35.8136C2.53218 35.5109 2.3526 35.1039 2.3526 34.6686C2.3526 33.8037 3.05602 33.1002 3.92099 33.1002C4.07783 33.1002 4.2433 33.1332 4.43935 33.2037C4.67931 33.29 4.94594 33.2539 5.15611 33.1073C5.36549 32.9606 5.48939 32.7215 5.48939 32.4658V31.5318C5.48939 30.2348 6.54492 29.1792 7.84198 29.1792C8.48111 29.1792 9.08102 29.4349 9.52958 29.8991C9.75151 30.1297 10.0926 30.2018 10.3891 30.0803C10.9984 29.8309 11.6822 29.9932 12.1245 30.47C12.3103 30.67 12.5872 30.7594 12.8538 30.7053C13.1212 30.652 13.3416 30.463 13.4357 30.2073C13.6623 29.5925 14.2505 29.1792 14.8998 29.1792C15.7647 29.1792 16.4682 29.8827 16.4682 30.7476C16.4682 31.1327 16.3207 31.506 16.0525 31.7992C15.8463 32.0251 15.7906 32.349 15.9075 32.6305C16.0251 32.912 16.2956 33.1002 16.6007 33.112C17.824 33.1598 18.8208 33.8586 18.8208 34.6686C18.8208 35.5187 17.7433 36.237 16.4682 36.237Z" fill="white"/>
<path d="M41.7594 31.5318H40.9375C38.2069 31.5318 35.943 33.5809 35.6708 36.2982L35.3321 39.6883L33.7441 40.6411L33.4908 40.3878C33.3441 40.2404 33.1449 40.158 32.9363 40.158H32.5442C31.0307 40.158 29.7995 41.3892 29.7995 42.9027C29.7995 44.2915 30.8363 45.4427 32.1764 45.6231C32.3568 46.9633 33.508 48 34.8968 48C36.4103 48 37.6415 46.7688 37.6415 45.2553V44.8632C37.6415 44.6554 37.5592 44.4554 37.4118 44.3088L37.1585 44.0555L38.1089 42.4714L42.2385 42.0958C44.9824 41.8464 47.0519 39.5801 47.0519 36.8252C47.0519 33.9064 44.6781 31.5318 41.7594 31.5318ZM35.6167 44.7315L36.0731 45.1879V45.2553C36.0731 45.9038 35.5454 46.4316 34.8968 46.4316C34.2483 46.4316 33.7205 45.9038 33.7205 45.2553V44.8632C33.7205 44.4303 33.37 44.079 32.9363 44.079H32.5442C31.8957 44.079 31.3679 43.5512 31.3679 42.9027C31.3679 42.2542 31.8957 41.7264 32.5442 41.7264H32.6117L33.0681 42.1828C33.3222 42.4377 33.7166 42.4855 34.0264 42.3004L35.9516 41.1453L36.6542 41.848L35.4991 43.7732C35.314 44.0821 35.3626 44.4766 35.6167 44.7315ZM42.0966 40.5336L37.9364 40.9116L36.8903 39.8655L37.2322 36.4535C37.4235 34.5416 39.0162 33.1002 40.9375 33.1002H41.7594C43.8124 33.1002 45.4835 34.7714 45.4835 36.8252C45.4835 38.7637 44.028 40.358 42.0966 40.5336Z" fill="white"/>
<path d="M9.07005 7.28912C8.51562 7.95334 7.60282 8.18781 6.85077 7.85845C6.21478 7.57928 5.78269 6.92369 5.74975 6.18889L4.18293 6.25869C4.24174 7.58555 5.04162 8.77675 6.22027 9.29432C6.64923 9.48253 7.10485 9.57271 7.5589 9.57271C8.57365 9.57271 9.58292 9.12101 10.2738 8.29447L9.07005 7.28912Z" fill="white"/>
<path d="M39.5283 35.1893C38.7418 35.7696 38.443 36.695 38.4257 37.3686L39.9941 37.4094C39.9957 37.3451 40.0224 36.7742 40.4599 36.4519C40.8622 36.1555 41.4457 36.1664 41.9146 36.4754L42.7788 35.1666C41.7633 34.4953 40.456 34.5047 39.5283 35.1893Z" fill="white"/>
<path d="M10.6518 36.1798C9.71465 35.2544 8.3274 34.6686 7.05779 34.6686V36.237C8.427 36.237 10.1946 37.378 10.1946 38.5896V41.7264H11.763V38.5896C11.763 37.6462 11.992 35.4528 14.1156 35.4528V33.8844C12.4711 33.8844 11.265 34.7329 10.6518 36.1798Z" fill="white"/>
</svg>
