<svg width="54" height="48" viewBox="0 0 54 48" fill="none" xmlns="http://www.w3.org/2000/svg">
<path d="M20.7145 18.0217C20.2632 17.5277 19.6206 17.2383 18.9517 17.228C17.6061 17.2107 16.493 18.2835 16.4702 19.6279C16.4629 20.0613 16.8083 20.4186 17.2416 20.4259C17.2462 20.426 17.2506 20.426 17.2552 20.426C17.6824 20.426 18.0323 20.0833 18.0395 19.6544C18.0476 19.1742 18.4423 18.789 18.9271 18.7973C19.1691 18.8011 19.3923 18.9016 19.5556 19.0803C19.848 19.4004 20.3445 19.4227 20.6644 19.1304C20.9844 18.8381 21.0068 18.3416 20.7145 18.0217Z" fill="#C4C4C4"/>
<path d="M24.8897 20.5793C24.6492 20.0138 24.1809 19.5676 23.6047 19.3548C22.4459 18.9274 21.1542 19.5214 20.7248 20.6788C20.5741 21.0852 20.7814 21.5368 21.1877 21.6876C21.2776 21.721 21.3698 21.7368 21.4604 21.7368C21.7793 21.7368 22.079 21.5411 22.1964 21.2247C22.3253 20.8771 22.7138 20.6992 23.0612 20.8274C23.2358 20.8919 23.3723 21.0219 23.4452 21.1935C23.6148 21.5923 24.0759 21.7783 24.4745 21.6086C24.8735 21.439 25.0592 20.9782 24.8897 20.5793Z" fill="#C4C4C4"/>
<path d="M29.9478 13.6288C29.641 13.3225 29.1441 13.3231 28.838 13.6299L28.0982 14.3712C27.7921 14.678 27.7926 15.1749 28.0994 15.481C28.2525 15.6338 28.4531 15.7102 28.6536 15.7102C28.8548 15.7102 29.0559 15.6334 29.2092 15.4798L29.949 14.7386C30.2551 14.4318 30.2546 13.9348 29.9478 13.6288Z" fill="#C4C4C4"/>
<path d="M25.0653 23.7602H24.0194C23.5859 23.7602 23.2346 24.1115 23.2346 24.5449C23.2346 24.9784 23.5859 25.3297 24.0194 25.3297H25.0653C25.4988 25.3297 25.8501 24.9784 25.8501 24.5449C25.8501 24.1115 25.4988 23.7602 25.0653 23.7602Z" fill="#C4C4C4"/>
<path d="M33.0851 23.7602H32.0391C31.6055 23.7602 31.2543 24.1115 31.2543 24.5449C31.2543 24.9784 31.6056 25.3297 32.0391 25.3297H33.0851C33.5185 25.3297 33.8699 24.9784 33.8699 24.5449C33.8699 24.1115 33.5185 23.7602 33.0851 23.7602Z" fill="#C4C4C4"/>
<path d="M53.5492 37.9106L53.3449 36.8075C53.2146 36.1026 52.5991 35.5911 51.8814 35.5911C51.7913 35.5911 51.7005 35.5993 51.6111 35.6158L47.4508 36.38L49.3349 35.1205C49.8286 34.7905 50.0782 34.2001 49.9705 33.6145C49.9406 33.4541 49.8845 33.3002 49.8033 33.1561L49.2332 32.1464C49.0378 31.7996 48.7046 31.5418 48.3201 31.4397C48.1317 31.3895 47.9348 31.3783 47.7427 31.4033C47.9525 30.2454 48.0607 29.0628 48.0607 27.8589C48.0607 27.3247 47.7395 26.8651 47.2806 26.6609C47.8802 25.2349 47.9211 23.6024 47.3284 22.1073C47.2804 21.9857 47.209 21.8772 47.1167 21.7847C47.025 21.6931 46.9177 21.6222 46.796 21.5734C46.0859 21.2905 45.3395 21.1472 44.5776 21.1472C44.4802 21.1472 44.3832 21.1497 44.2865 21.1543C44.1778 18.9639 42.365 17.2153 40.1519 17.2153C39.8605 17.2153 39.5763 17.2463 39.3018 17.3041C39.4925 16.1635 39.3802 14.9703 38.936 13.8501C38.8883 13.7269 38.8166 13.6164 38.7192 13.5174C38.6255 13.4237 38.5155 13.3514 38.3935 13.3029C37.6285 12.9982 36.8244 12.8438 36.0037 12.8438C34.7673 12.8438 33.5846 13.1914 32.5635 13.8376C32.1905 12.757 31.5753 11.7426 30.7158 10.8811C30.4641 10.6289 30.1292 10.49 29.7729 10.49C29.4166 10.49 29.0818 10.6289 28.8297 10.8813L25.03 14.6897C24.3269 14.0625 23.4016 13.6876 22.3973 13.6876C22.1694 13.6876 21.9393 13.7076 21.7134 13.7469C20.8948 13.8894 20.1415 14.2901 19.564 14.8769C18.8235 14.5196 17.9752 14.3977 17.16 14.5395C16.9806 14.5707 16.8066 14.6147 16.6377 14.6682V11.7336C16.6377 9.71263 15.0134 8.06554 13.0042 8.0308V6.36644C13.6193 6.26002 14.0889 5.72397 14.0889 5.07898V1.30796C14.0889 0.586805 13.5022 0 12.7809 0H6.39898C5.67772 0 5.09102 0.586805 5.09102 1.30796V5.07898C5.09102 5.72397 5.56063 6.26002 6.17569 6.36644V8.03059C4.16644 8.06522 2.54226 9.71232 2.54226 11.7334V34.638C0.975428 36.0531 0 38.0274 0 40.2108C0 44.5057 3.76955 48 8.4031 48L39.8138 47.9908C40.8859 47.9904 41.8942 47.5192 42.58 46.6982C43.248 45.899 43.5319 44.8609 43.3683 43.8371L49.6421 44.9646C49.7289 44.9802 49.8179 44.9881 49.9061 44.9881C50.2189 44.9881 50.5187 44.8921 50.7726 44.7106C51.0989 44.4775 51.3198 44.1166 51.3787 43.7208L51.5487 42.5805C51.5732 42.4172 51.5704 42.2527 51.5406 42.0915C51.4326 41.5084 50.9887 41.0458 50.4095 40.9131L48.1982 40.4059L52.3545 39.6423C52.7464 39.5703 53.0865 39.3503 53.3121 39.0227C53.5373 38.6959 53.6214 38.301 53.5492 37.9106ZM44.5776 22.7165C45.0501 22.7165 45.5146 22.7913 45.9611 22.9388C46.3602 24.154 46.2108 25.4648 45.5859 26.5476H43.4718L44.1464 25.8714C44.4526 25.5646 44.452 25.0677 44.1451 24.7615C43.8382 24.4554 43.3412 24.4559 43.0353 24.7628L42.6784 25.1206C42.5111 24.5696 42.2189 24.0764 41.8349 23.6718C42.6138 23.0532 43.57 22.7165 44.5776 22.7165ZM40.1519 18.7847C41.5692 18.7847 42.7222 19.9411 42.7222 21.3626C42.7222 21.389 42.721 21.415 42.7202 21.4412C41.893 21.7102 41.1305 22.1596 40.4801 22.77C40.3767 22.7308 40.2717 22.6943 40.1639 22.6645C39.9344 21.4244 39.0986 20.4303 37.9946 19.966C38.4528 19.2562 39.2478 18.7847 40.1519 18.7847ZM36.0036 14.4131C36.5366 14.4131 37.0604 14.4994 37.5652 14.6699C37.9708 15.8762 37.888 17.1719 37.3711 18.2942C36.9461 18.6813 36.6013 19.1553 36.3657 19.6881C36.2256 19.6963 36.0855 19.7118 35.9471 19.7358C35.3321 19.8429 34.7587 20.1097 34.2788 20.4966C34.1152 20.1974 33.9148 19.9212 33.6852 19.6726L35.4849 17.8689C35.791 17.5621 35.7904 17.0652 35.4835 16.7591C35.1767 16.4529 34.6798 16.4535 34.3736 16.7604L32.4067 18.7318C32.0324 18.5549 31.6278 18.4318 31.2027 18.3743C31.3863 17.4378 31.8408 16.5554 32.5437 15.8508C33.4686 14.9237 34.6974 14.4131 36.0036 14.4131ZM29.9901 26.5476H29.3098C29.1952 26.2561 28.912 26.0494 28.5798 26.0494C28.2475 26.0494 27.9643 26.2562 27.8497 26.5476H27.0494C27.2353 26.245 27.1977 25.844 26.9354 25.5822C26.6286 25.2761 26.1317 25.2766 25.8255 25.5834L25.0858 26.3246C25.0194 26.3912 24.9683 26.467 24.9307 26.5476H23.3335C22.7353 25.6296 22.3702 24.5461 22.327 23.3804H34.7773C34.7341 24.5461 34.369 25.6296 33.7708 26.5476H32.1087C32.0712 26.467 32.0199 26.3911 31.9536 26.3245L31.214 25.5833C30.9077 25.2766 30.411 25.2757 30.1042 25.582C29.8417 25.8438 29.8041 26.2449 29.9901 26.5476ZM28.1649 21.8109C28.4607 20.7146 29.4607 19.9057 30.6458 19.9057C31.831 19.9057 32.8311 20.7147 33.1269 21.8109H28.1649ZM29.7697 12.1611C30.5162 12.9679 31.0098 13.9257 31.2518 14.9326C30.8511 15.368 30.5183 15.8491 30.2557 16.3611C30.1366 16.288 29.9969 16.2452 29.8469 16.2452H28.8012C28.3678 16.2452 28.0164 16.5966 28.0164 17.03C28.0164 17.4634 28.3678 17.8148 28.8012 17.8148H29.7185C29.6669 18.0315 29.6269 18.2508 29.5978 18.4718C29.2862 18.5536 28.9886 18.6702 28.71 18.8186C28.187 17.9159 27.3208 17.2432 26.2945 16.9733C26.2942 16.9711 26.2938 16.9689 26.2933 16.9667C26.2318 16.6116 26.1245 16.2746 25.9781 15.9615L29.7697 12.1611ZM15.5832 19.2426C15.5372 19.1139 15.5023 18.9818 15.4794 18.8493C15.2543 17.5517 16.1291 16.312 17.429 16.0857C17.5661 16.0618 17.7053 16.0497 17.8428 16.0497C18.3598 16.0497 18.8539 16.2146 19.2716 16.5265C19.4443 16.6556 19.6628 16.7078 19.8754 16.671C20.088 16.6341 20.2761 16.5113 20.3954 16.3315C20.7638 15.7757 21.3275 15.407 21.9825 15.2929C22.1199 15.269 22.2595 15.2569 22.3973 15.2569C23.56 15.2569 24.5482 16.0888 24.7468 17.2351C24.7696 17.3664 24.7813 17.5033 24.7815 17.6419C24.7823 18.0481 25.0929 18.3867 25.4977 18.4223C26.3751 18.4994 27.122 19.0516 27.4682 19.8295C27.0047 20.3858 26.6833 21.0651 26.5613 21.8109H22.0858C21.5293 21.8109 21.0518 22.1544 20.8527 22.6406C19.8681 21.9699 18.7077 21.6086 17.4916 21.6086C16.7297 21.6086 15.9833 21.7521 15.2726 22.035C15.1521 22.0832 15.0443 22.1542 14.9524 22.2461C14.8593 22.3392 14.7878 22.4483 14.741 22.568C14.5604 23.0235 14.4399 23.4918 14.3748 23.963C14.0936 23.6428 13.8954 23.2446 13.818 22.7978C13.6334 21.733 14.1908 20.6729 15.173 20.2196C15.5422 20.0492 15.7202 19.6252 15.5832 19.2426ZM17.9227 26.333L18.1368 26.5476H16.2519C15.8288 25.5659 15.7645 24.4485 16.1081 23.4004C16.5553 23.2528 17.0196 23.1781 17.4916 23.1781C18.6741 23.1781 19.7865 23.6403 20.6237 24.4793C20.735 24.591 20.8387 24.708 20.9361 24.8288C21.0691 25.4309 21.2735 26.0061 21.5367 26.5475H20.354L19.0338 25.2243C18.7275 24.9176 18.2306 24.9167 17.924 25.223C17.6171 25.5293 17.6165 26.0262 17.9227 26.333ZM14.5806 26.5476H11.7829C11.9076 25.7874 12.3649 25.1394 12.9996 24.7573C13.3754 25.2607 13.8658 25.6677 14.4308 25.9434C14.4708 26.1471 14.5199 26.3489 14.5806 26.5476ZM6.66057 1.56956H12.5193V4.81739H6.66057V1.56956ZM11.4346 6.38695V8.02902H7.74535V6.38695H11.4346ZM4.11193 14.916H9.20807C9.64158 14.916 9.99285 14.5647 9.99285 14.1313C9.99285 13.6978 9.64158 13.3465 9.20807 13.3465H4.11193V11.7334C4.11193 10.5562 5.06664 9.59858 6.24014 9.59858H12.9399C14.1135 9.59858 15.0682 10.5562 15.0682 11.7334V13.3465H13.6028C13.1693 13.3465 12.8181 13.6978 12.8181 14.1313C12.8181 14.5647 13.1693 14.916 13.6028 14.916H15.0682V15.6126C14.169 16.4942 13.702 17.787 13.9326 19.1168C13.9331 19.1194 13.9336 19.1221 13.934 19.1248C12.675 19.9886 12.0042 21.5243 12.2713 23.0659C12.2869 23.1559 12.3065 23.2444 12.3278 23.332C11.9358 23.5482 11.5836 23.8273 11.2819 24.154H4.11193V14.916ZM4.11182 25.7235H10.3706C10.2873 25.988 10.2285 26.2633 10.1998 26.5476H10.0676C9.34525 26.5476 8.7575 27.1358 8.7575 27.8587C8.7575 29.1048 8.87334 30.3281 9.09778 31.525C8.87229 31.5069 8.64104 31.4971 8.40582 31.4971C7.45676 31.4971 6.55248 31.6477 5.85989 31.9212C4.80044 32.3396 4.50756 32.9336 4.44363 33.3446C4.33135 33.4005 4.22106 33.4595 4.11182 33.5199V25.7235ZM14.0493 35.3642C14.3319 35.5903 14.5047 35.7826 14.6048 35.9212C14.5954 35.9213 14.5856 35.9214 14.5756 35.9214C14.1315 35.9214 13.3334 35.7424 12.4259 35.24C12.088 35.0528 11.7767 34.8414 11.5256 34.6286C11.2328 34.3805 10.8035 34.3807 10.5109 34.6287C10.2598 34.8417 9.94859 35.053 9.61103 35.2398C8.7033 35.7424 7.90523 35.9214 7.46115 35.9214C7.451 35.9214 7.44127 35.9213 7.43175 35.9212C7.53178 35.7826 7.70454 35.5902 7.98727 35.364C8.23432 35.1663 8.33843 34.8394 8.25127 34.5352C8.164 34.2309 7.90262 34.0088 7.58818 33.9719C6.82234 33.8821 6.33808 33.6872 6.11133 33.5453C6.39542 33.3684 7.11365 33.0667 8.40613 33.0667C9.47657 33.0667 10.2589 33.2918 10.6342 33.5025C10.8728 33.6365 11.1638 33.6365 11.4025 33.5026C11.778 33.2919 12.5604 33.0668 13.6309 33.0668C14.9235 33.0668 15.6416 33.3686 15.9256 33.5454C15.6989 33.6874 15.2146 33.8822 14.4485 33.972C14.1341 34.009 13.8726 34.231 13.7854 34.5354C13.6979 34.8397 13.8021 35.1666 14.0493 35.3642ZM12.4794 44.9161L12.5064 45.0616C12.5998 45.5656 12.7966 46.0282 13.0716 46.4304H8.4031C4.63511 46.4304 1.56956 43.6404 1.56956 40.2108C1.56956 37.867 3.00183 35.8228 5.1109 34.7629C5.35313 34.9437 5.65512 35.0996 6.01339 35.2254C5.8713 35.468 5.77231 35.729 5.74898 36.0012C5.718 36.363 5.82871 36.7066 6.061 36.9688C6.3679 37.3154 6.83898 37.4911 7.46115 37.4911C8.2903 37.4911 9.37821 37.1628 10.3712 36.6131C10.5999 36.4866 10.816 36.3529 11.0184 36.2134C11.2207 36.3528 11.4368 36.4865 11.6656 36.6132C12.6586 37.1628 13.7465 37.491 14.5756 37.4911H14.5757C15.1977 37.4911 15.6688 37.3154 15.9756 36.9689C16.208 36.7067 16.3188 36.3631 16.2877 36.0012C16.2644 35.729 16.1654 35.468 16.0233 35.2254C16.3816 35.0995 16.6837 34.9436 16.9259 34.7629C18.5985 35.6035 19.8449 37.0633 20.2893 38.8006L14.7388 40.9092C13.1141 41.5265 12.1639 43.2116 12.4794 44.9161ZM41.3754 45.6919C40.9885 46.1552 40.4189 46.421 39.8131 46.4212L38.9894 46.4215L38.4748 43.6429C38.3958 43.2167 37.9865 42.9349 37.5601 43.0141C37.1341 43.093 36.8525 43.5025 36.9314 43.9287L37.3932 46.4221L34.693 46.4231L34.3451 44.5441C34.2661 44.118 33.8567 43.8365 33.4304 43.9154C33.0043 43.9943 32.7228 44.4037 32.8017 44.8299L33.0967 46.4237L26.8159 46.4262L26.3431 43.8743C26.264 43.4481 25.8549 43.1666 25.4285 43.2456C25.0023 43.3245 24.7208 43.734 24.7997 44.1602L25.2197 46.4268L16.0488 46.4303C16.0486 46.4303 16.0484 46.4303 16.0482 46.4303C15.0675 46.4303 14.2271 45.7345 14.0494 44.7754L14.0224 44.6299C13.8451 43.6719 14.3806 42.7242 15.2959 42.3764L18.3803 41.2047L18.61 42.4448C18.68 42.8227 19.0099 43.0868 19.3807 43.0868C19.4282 43.0868 19.4763 43.0824 19.5247 43.0735C19.9508 42.9945 20.2322 42.585 20.1532 42.1588L19.8714 40.6381L24.4498 38.8989C24.855 38.7449 25.0587 38.2917 24.9048 37.8865C24.7509 37.4812 24.2971 37.2776 23.8925 37.4315L21.762 38.2409C21.1643 36.1248 19.6289 34.3572 17.5928 33.3445C17.5288 32.9335 17.2359 32.3395 16.1766 31.9211C15.484 31.6476 14.5797 31.497 13.6307 31.497C12.9775 31.497 12.3538 31.5691 11.8032 31.7005V31.2265C11.8032 30.793 11.4519 30.4417 11.0184 30.4417C10.8352 30.4417 10.6671 30.5049 10.5335 30.6101C10.4097 29.7916 10.3405 28.9601 10.3289 28.117H35.8906C36.3241 28.117 36.6753 27.7656 36.6753 27.3322C36.6753 26.8988 36.3241 26.5474 35.8906 26.5474H35.5694C36.0692 25.5182 36.3515 24.3642 36.3515 23.1447C36.3515 22.4523 35.8217 21.8819 35.1466 21.8172C35.4405 21.54 35.8074 21.3531 36.2163 21.2818C36.3361 21.261 36.4577 21.2505 36.5778 21.2505C37.591 21.2505 38.452 21.9753 38.6249 22.9737C38.6449 23.0893 38.6552 23.2086 38.6553 23.3284C38.6558 23.7348 38.9666 24.0737 39.3714 24.1092C40.3093 24.1916 41.0766 24.897 41.2374 25.8245C41.2801 26.0711 41.2748 26.3145 41.232 26.5474H40.3899C39.9564 26.5474 39.6052 26.8988 39.6052 27.3322C39.6052 27.7656 39.9564 28.117 40.3899 28.117H46.4895C46.47 29.5565 46.2846 30.9628 45.9388 32.3271L41.6857 34.8378C41.4255 33.9325 40.8209 33.1645 39.9879 32.6983C39.0536 32.1754 37.9433 32.0937 36.9419 32.474L28.1827 35.8017C27.7774 35.9556 27.5738 36.4089 27.7277 36.8141C27.8816 37.2193 28.3353 37.4228 28.74 37.269L29.8939 36.8307L30.2522 38.7651C30.3222 39.143 30.652 39.4072 31.0229 39.4072C31.0703 39.4072 31.1185 39.4028 31.1668 39.3939C31.5929 39.315 31.8745 38.9056 31.7956 38.4794L31.3853 36.2642L37.4991 33.9416C38.0656 33.7264 38.6933 33.7726 39.2214 34.0682C39.7485 34.3632 40.1137 34.8717 40.2234 35.4631L41.811 44.0345C41.9205 44.6256 41.7617 45.2296 41.3754 45.6919ZM44.1755 39.5491C43.8094 39.6164 43.541 39.9315 43.5327 40.3037C43.5246 40.6759 43.779 41.0026 44.1418 41.0858L49.9848 42.426L49.8388 43.4053L43.0652 42.188L42.0064 36.4713L47.9062 32.9885L48.3977 33.8588L43.4214 37.1853C43.112 37.3922 42.9904 37.7879 43.1304 38.1328C43.2703 38.4777 43.6334 38.6769 43.9994 38.6096L51.8164 37.1737L51.9906 38.1134L44.1755 39.5491Z" fill="#C4C4C4"/>
</svg>
