<svg width="18" height="13" viewBox="0 0 18 13" fill="none" xmlns="http://www.w3.org/2000/svg">
<path d="M5 0H2C1.46957 0 0.960859 0.210714 0.585786 0.585786C0.210714 0.960859 0 1.46957 0 2L0 5H5V0ZM16 0H8V5H18V2C18 1.46957 17.7893 0.960859 17.4142 0.585786C17.0391 0.210714 16.5304 0 16 0ZM5 13H2C1.46957 13 0.960859 12.7893 0.585786 12.4142C0.210714 12.0391 0 11.5304 0 11V8H5V13ZM16 13H8V8H18V11C18 11.5304 17.7893 12.0391 17.4142 12.4142C17.0391 12.7893 16.5304 13 16 13Z" fill="#EF2B2D"/>
<path d="M7.25 0H5.778L5.7655 5.75H0V7.25H5.7625L5.75 13H7.25V7.25H18V5.75H7.25V0Z" fill="#002868"/>
<path d="M7.25 13H8V8H18V7.25H7.25V13ZM8 0H7.25V5.75H18V5H8V0ZM5.75 0H5V5H0V5.75H5.75V0ZM0 7.25V8H5V13H5.75V7.25H0Z" fill="#EEEEEE"/>
</svg>
