<svg width="17" height="18" viewBox="0 0 17 18" fill="none" xmlns="http://www.w3.org/2000/svg">
<path d="M8.18182 14.7273C8.34364 14.7273 8.50183 14.6793 8.63638 14.5894C8.77093 14.4995 8.87579 14.3717 8.93772 14.2222C8.99965 14.0727 9.01585 13.9082 8.98428 13.7495C8.95271 13.5908 8.87478 13.445 8.76036 13.3305C8.64594 13.2161 8.50015 13.1382 8.34144 13.1066C8.18273 13.0751 8.01822 13.0913 7.86871 13.1532C7.71921 13.2151 7.59143 13.32 7.50152 13.4545C7.41162 13.5891 7.36364 13.7473 7.36364 13.9091C7.36364 14.1261 7.44984 14.3342 7.60328 14.4876C7.75672 14.6411 7.96482 14.7273 8.18182 14.7273ZM12.2727 14.7273C12.4345 14.7273 12.5927 14.6793 12.7273 14.5894C12.8618 14.4995 12.9667 14.3717 13.0286 14.2222C13.0906 14.0727 13.1068 13.9082 13.0752 13.7495C13.0436 13.5908 12.9657 13.445 12.8513 13.3305C12.7368 13.2161 12.5911 13.1382 12.4323 13.1066C12.2736 13.0751 12.1091 13.0913 11.9596 13.1532C11.8101 13.2151 11.6823 13.32 11.5924 13.4545C11.5025 13.5891 11.4545 13.7473 11.4545 13.9091C11.4545 14.1261 11.5407 14.3342 11.6942 14.4876C11.8476 14.6411 12.0557 14.7273 12.2727 14.7273ZM12.2727 11.4545C12.4345 11.4545 12.5927 11.4066 12.7273 11.3167C12.8618 11.2268 12.9667 11.099 13.0286 10.9495C13.0906 10.8 13.1068 10.6355 13.0752 10.4767C13.0436 10.318 12.9657 10.1722 12.8513 10.0578C12.7368 9.9434 12.5911 9.86547 12.4323 9.8339C12.2736 9.80233 12.1091 9.81854 11.9596 9.88046C11.8101 9.94239 11.6823 10.0473 11.5924 10.1818C11.5025 10.3164 11.4545 10.4745 11.4545 10.6364C11.4545 10.8534 11.5407 11.0615 11.6942 11.2149C11.8476 11.3683 12.0557 11.4545 12.2727 11.4545ZM8.18182 11.4545C8.34364 11.4545 8.50183 11.4066 8.63638 11.3167C8.77093 11.2268 8.87579 11.099 8.93772 10.9495C8.99965 10.8 9.01585 10.6355 8.98428 10.4767C8.95271 10.318 8.87478 10.1722 8.76036 10.0578C8.64594 9.9434 8.50015 9.86547 8.34144 9.8339C8.18273 9.80233 8.01822 9.81854 7.86871 9.88046C7.71921 9.94239 7.59143 10.0473 7.50152 10.1818C7.41162 10.3164 7.36364 10.4745 7.36364 10.6364C7.36364 10.8534 7.44984 11.0615 7.60328 11.2149C7.75672 11.3683 7.96482 11.4545 8.18182 11.4545ZM13.9091 1.63636H13.0909V0.818182C13.0909 0.601187 13.0047 0.393079 12.8513 0.23964C12.6978 0.086201 12.4897 0 12.2727 0C12.0557 0 11.8476 0.086201 11.6942 0.23964C11.5407 0.393079 11.4545 0.601187 11.4545 0.818182V1.63636H4.90909V0.818182C4.90909 0.601187 4.82289 0.393079 4.66945 0.23964C4.51601 0.086201 4.3079 0 4.09091 0C3.87391 0 3.66581 0.086201 3.51237 0.23964C3.35893 0.393079 3.27273 0.601187 3.27273 0.818182V1.63636H2.45455C1.80356 1.63636 1.17924 1.89497 0.71892 2.35528C0.258603 2.8156 0 3.43992 0 4.09091V15.5455C0 16.1964 0.258603 16.8208 0.71892 17.2811C1.17924 17.7414 1.80356 18 2.45455 18H13.9091C14.5601 18 15.1844 17.7414 15.6447 17.2811C16.105 16.8208 16.3636 16.1964 16.3636 15.5455V4.09091C16.3636 3.43992 16.105 2.8156 15.6447 2.35528C15.1844 1.89497 14.5601 1.63636 13.9091 1.63636ZM14.7273 15.5455C14.7273 15.7625 14.6411 15.9706 14.4876 16.124C14.3342 16.2774 14.1261 16.3636 13.9091 16.3636H2.45455C2.23755 16.3636 2.02944 16.2774 1.876 16.124C1.72256 15.9706 1.63636 15.7625 1.63636 15.5455V8.18182H14.7273V15.5455ZM14.7273 6.54545H1.63636V4.09091C1.63636 3.87391 1.72256 3.66581 1.876 3.51237C2.02944 3.35893 2.23755 3.27273 2.45455 3.27273H3.27273V4.09091C3.27273 4.3079 3.35893 4.51601 3.51237 4.66945C3.66581 4.82289 3.87391 4.90909 4.09091 4.90909C4.3079 4.90909 4.51601 4.82289 4.66945 4.66945C4.82289 4.51601 4.90909 4.3079 4.90909 4.09091V3.27273H11.4545V4.09091C11.4545 4.3079 11.5407 4.51601 11.6942 4.66945C11.8476 4.82289 12.0557 4.90909 12.2727 4.90909C12.4897 4.90909 12.6978 4.82289 12.8513 4.66945C13.0047 4.51601 13.0909 4.3079 13.0909 4.09091V3.27273H13.9091C14.1261 3.27273 14.3342 3.35893 14.4876 3.51237C14.6411 3.66581 14.7273 3.87391 14.7273 4.09091V6.54545ZM4.09091 11.4545C4.25273 11.4545 4.41092 11.4066 4.54547 11.3167C4.68002 11.2268 4.78488 11.099 4.84681 10.9495C4.90874 10.8 4.92494 10.6355 4.89337 10.4767C4.8618 10.318 4.78388 10.1722 4.66945 10.0578C4.55503 9.9434 4.40924 9.86547 4.25053 9.8339C4.09182 9.80233 3.92731 9.81854 3.7778 9.88046C3.6283 9.94239 3.50052 10.0473 3.41062 10.1818C3.32071 10.3164 3.27273 10.4745 3.27273 10.6364C3.27273 10.8534 3.35893 11.0615 3.51237 11.2149C3.66581 11.3683 3.87391 11.4545 4.09091 11.4545ZM4.09091 14.7273C4.25273 14.7273 4.41092 14.6793 4.54547 14.5894C4.68002 14.4995 4.78488 14.3717 4.84681 14.2222C4.90874 14.0727 4.92494 13.9082 4.89337 13.7495C4.8618 13.5908 4.78388 13.445 4.66945 13.3305C4.55503 13.2161 4.40924 13.1382 4.25053 13.1066C4.09182 13.0751 3.92731 13.0913 3.7778 13.1532C3.6283 13.2151 3.50052 13.32 3.41062 13.4545C3.32071 13.5891 3.27273 13.7473 3.27273 13.9091C3.27273 14.1261 3.35893 14.3342 3.51237 14.4876C3.66581 14.6411 3.87391 14.7273 4.09091 14.7273Z" fill="#C4C4C4"/>
</svg>
