<svg width="16" height="20" viewBox="0 0 16 20" fill="none" xmlns="http://www.w3.org/2000/svg">
<path d="M8.2063 8.91118C8.56262 8.91118 8.91094 8.80552 9.2072 8.60756C9.50347 8.4096 9.73438 8.12823 9.87074 7.79903C10.0071 7.46984 10.0428 7.1076 9.97326 6.75813C9.90375 6.40866 9.73216 6.08765 9.48021 5.8357C9.22825 5.58374 8.90724 5.41216 8.55777 5.34264C8.2083 5.27313 7.84606 5.30881 7.51687 5.44516C7.18767 5.58152 6.90631 5.81243 6.70835 6.1087C6.51039 6.40497 6.40473 6.75328 6.40473 7.1096C6.40473 7.58741 6.59454 8.04565 6.9324 8.38351C7.27026 8.72137 7.7285 8.91118 8.2063 8.91118ZM7.56674 15.1356C7.65048 15.22 7.75011 15.2871 7.85988 15.3328C7.96965 15.3785 8.08739 15.4021 8.2063 15.4021C8.32522 15.4021 8.44296 15.3785 8.55272 15.3328C8.66249 15.2871 8.76212 15.22 8.84586 15.1356L12.5301 11.4424C13.3858 10.5871 13.9686 9.49731 14.2049 8.31077C14.4412 7.12422 14.3202 5.89426 13.8574 4.77646C13.3945 3.65866 12.6106 2.70323 11.6047 2.03101C10.5988 1.3588 9.41614 1 8.2063 1C6.99647 1 5.81381 1.3588 4.80791 2.03101C3.80201 2.70323 3.01806 3.65866 2.55523 4.77646C2.09239 5.89426 1.97145 7.12422 2.20771 8.31077C2.44397 9.49731 3.02681 10.5871 3.88252 11.4424L7.56674 15.1356ZM3.90954 6.69524C3.97109 6.05299 4.17529 5.4326 4.50724 4.87935C4.83919 4.32611 5.2905 3.85398 5.82822 3.49744C6.53462 3.03363 7.36124 2.7865 8.2063 2.7865C9.05136 2.7865 9.87798 3.03363 10.5844 3.49744C11.1185 3.85276 11.5673 4.32202 11.8984 4.87149C12.2295 5.42096 12.4347 6.03697 12.4993 6.67523C12.5639 7.31349 12.4863 7.95813 12.272 8.5628C12.0577 9.16747 11.7121 9.71714 11.26 10.1723L8.2063 13.226L5.15263 10.1723C4.70001 9.72156 4.35357 9.17559 4.13853 8.5741C3.92349 7.97262 3.84527 7.33076 3.90954 6.69524ZM14.5118 17.1984H1.90079C1.66188 17.1984 1.43277 17.2933 1.26383 17.4623C1.0949 17.6312 1 17.8603 1 18.0992C1 18.3381 1.0949 18.5672 1.26383 18.7362C1.43277 18.9051 1.66188 19 1.90079 19H14.5118C14.7507 19 14.9798 18.9051 15.1488 18.7362C15.3177 18.5672 15.4126 18.3381 15.4126 18.0992C15.4126 17.8603 15.3177 17.6312 15.1488 17.4623C14.9798 17.2933 14.7507 17.1984 14.5118 17.1984Z" fill="black" stroke="white" stroke-width="0.5"/>
</svg>
