<svg width="24" height="16" viewBox="0 0 24 16" fill="none" xmlns="http://www.w3.org/2000/svg">
<path d="M22.4995 6.00801H5.10911L8.56019 2.57194C8.70009 2.43204 8.81107 2.26595 8.88678 2.08316C8.96249 1.90037 9.00146 1.70446 9.00146 1.50661C9.00146 1.30876 8.96249 1.11284 8.88678 0.930054C8.81107 0.747264 8.70009 0.581176 8.56019 0.441275C8.42029 0.301374 8.2542 0.190398 8.07141 0.114684C7.88862 0.03897 7.69271 -2.9482e-09 7.49486 0C7.29701 2.9482e-09 7.10109 0.03897 6.9183 0.114684C6.73551 0.190398 6.56943 0.301374 6.42952 0.441275L0.427654 6.44315C0.29105 6.58585 0.183969 6.75412 0.112555 6.9383C-0.0375185 7.30361 -0.0375185 7.71335 0.112555 8.07866C0.183969 8.26284 0.29105 8.43111 0.427654 8.57381L6.42952 14.5757C6.56901 14.7163 6.73497 14.8279 6.91781 14.9041C7.10066 14.9803 7.29678 15.0195 7.49486 15.0195C7.69294 15.0195 7.88906 14.9803 8.0719 14.9041C8.25475 14.8279 8.4207 14.7163 8.56019 14.5757C8.70083 14.4362 8.81245 14.2702 8.88863 14.0874C8.9648 13.9045 9.00403 13.7084 9.00403 13.5103C9.00403 13.3123 8.9648 13.1161 8.88863 12.9333C8.81245 12.7505 8.70083 12.5845 8.56019 12.445L5.10911 9.00894H22.4995C22.8975 9.00894 23.2791 8.85086 23.5605 8.56947C23.8419 8.28808 24 7.90643 24 7.50848C24 7.11053 23.8419 6.72888 23.5605 6.44749C23.2791 6.16609 22.8975 6.00801 22.4995 6.00801Z" fill="black"/>
</svg>
