<svg width="25" height="24" viewBox="0 0 25 24" fill="none" xmlns="http://www.w3.org/2000/svg">
<path d="M21.0284 13.2333C20.7628 13.2333 20.4851 13.1488 20.2195 13.0884C19.6815 12.9698 19.1529 12.8125 18.6378 12.6175C18.0777 12.4137 17.462 12.4243 16.9092 12.6472C16.3564 12.8701 15.9056 13.2896 15.6435 13.8249L15.3779 14.3682C14.2001 13.7112 13.1158 12.899 12.1542 11.9534C11.2132 10.9923 10.4015 9.91265 9.7394 8.74181L10.2706 8.40375C10.806 8.14164 11.2254 7.69082 11.4483 7.13804C11.6712 6.58525 11.6818 5.96956 11.478 5.40944C11.2863 4.8932 11.129 4.36482 11.0071 3.82778C10.9468 3.55008 10.8985 3.28446 10.8623 3.00676C10.7156 2.1563 10.2702 1.38614 9.60613 0.834972C8.94206 0.283799 8.10303 -0.0121629 7.24012 0.000383105H3.61798C3.10756 -0.000285503 2.60276 0.106932 2.13667 0.315007C1.67058 0.523082 1.25373 0.827315 0.91345 1.20776C0.567764 1.59714 0.310089 2.05647 0.157989 2.55444C0.00588789 3.05241 -0.0370633 3.57733 0.0320624 4.0934C0.668004 9.14875 2.96887 13.8485 6.57171 17.4514C10.1746 21.0542 14.8743 23.3551 19.9297 23.991C20.0864 24.003 20.2438 24.003 20.4006 23.991C21.3612 23.991 22.2825 23.6094 22.9618 22.9301C23.6411 22.2508 24.0227 21.3295 24.0227 20.3689V16.7467C24.0102 15.9043 23.7043 15.0925 23.1578 14.4512C22.6112 13.8099 21.8582 13.3792 21.0284 13.2333ZM21.62 20.4775C21.622 20.6526 21.5859 20.8259 21.5142 20.9856C21.4426 21.1453 21.337 21.2875 21.205 21.4023C21.0729 21.5172 20.9174 21.6019 20.7493 21.6507C20.5813 21.6995 20.4046 21.7112 20.2315 21.6849C15.7234 21.0966 11.5349 19.0385 8.31469 15.8291C5.09702 12.5871 3.04235 8.37168 2.47097 3.83985C2.44474 3.66277 2.45822 3.48207 2.51042 3.31084C2.56263 3.13961 2.65225 2.98213 2.77281 2.8498C2.88461 2.72253 3.02193 2.6202 3.17586 2.54947C3.32979 2.47875 3.49689 2.44121 3.66628 2.43929H7.28842C7.56919 2.43304 7.84336 2.52487 8.06373 2.69896C8.2841 2.87306 8.43689 3.11853 8.4958 3.39312C8.54409 3.72314 8.60446 4.04913 8.6769 4.3711C8.81638 5.00756 9.002 5.63303 9.2323 6.24254L7.54197 7.02733C7.39744 7.09364 7.26743 7.18785 7.15942 7.30454C7.0514 7.42124 6.96749 7.55812 6.91252 7.70732C6.85755 7.85653 6.8326 8.01513 6.83909 8.17401C6.84558 8.33289 6.88339 8.48892 6.95035 8.63315C8.68801 12.3552 11.68 15.3471 15.402 17.0848C15.696 17.2056 16.0257 17.2056 16.3196 17.0848C16.6192 16.9733 16.8624 16.7475 16.9957 16.457L17.7564 14.7666C18.3806 14.9899 19.0176 15.1753 19.6641 15.322C19.978 15.3945 20.316 15.4548 20.642 15.5031C20.9144 15.5645 21.1571 15.7183 21.3288 15.9384C21.5005 16.1586 21.5906 16.4314 21.5838 16.7105L21.62 20.4775Z" fill="#50E669"/>
</svg>
