<svg width="32" height="24" viewBox="0 0 32 24" fill="none" xmlns="http://www.w3.org/2000/svg">
<path d="M15.7893 12.1216L15.494 12.3772L15.8498 12.5383C17.7823 13.4134 19.4219 14.8266 20.5726 16.6088C21.7232 18.3911 22.3362 20.4671 22.3382 22.5885C22.3382 22.8965 22.2158 23.1919 21.998 23.4097C21.7801 23.6276 21.4846 23.75 21.1765 23.75C20.8684 23.75 20.5729 23.6276 20.355 23.4097C20.1371 23.1919 20.0147 22.8964 20.0147 22.5882C20.0147 20.2754 19.0959 18.0573 17.4605 16.4218C15.8251 14.7864 13.607 13.8676 11.2941 13.8676C8.98127 13.8676 6.76316 14.7864 5.12773 16.4218C3.4923 18.0573 2.57353 20.2754 2.57353 22.5882C2.57353 22.8964 2.45113 23.1919 2.23326 23.4097C2.01538 23.6276 1.71988 23.75 1.41176 23.75C1.10364 23.75 0.808145 23.6276 0.590273 23.4097C0.372426 23.1919 0.250029 22.8964 0.25 22.5884C0.252056 20.467 0.865035 18.3911 2.01565 16.6088C3.16629 14.8266 4.80589 13.4134 6.73842 12.5383L7.09424 12.3772L6.79891 12.1216C6.07274 11.493 5.49029 10.7155 5.09109 9.842C4.69189 8.96846 4.48528 8.01926 4.48529 7.05883C4.48529 5.25301 5.20265 3.52116 6.47955 2.24426C7.75645 0.967356 9.48831 0.25 11.2941 0.25C13.0999 0.25 14.8318 0.967356 16.1087 2.24426C17.3856 3.52116 18.1029 5.25301 18.1029 7.05882C18.103 8.01926 17.8963 8.96846 17.4971 9.842C17.0979 10.7155 16.5155 11.493 15.7893 12.1216ZM24.8578 11.5799L24.6613 11.8011L24.9122 11.9579C26.7133 13.0835 28.1966 14.6509 29.2212 16.5113C30.2459 18.3716 30.7778 20.4631 30.7665 22.5869V22.5882C30.7665 22.8964 30.6441 23.1919 30.4262 23.4097C30.2083 23.6276 29.9128 23.75 29.6047 23.75C29.2966 23.75 29.0011 23.6276 28.7832 23.4097C28.5656 23.1921 28.4432 22.897 28.4429 22.5892C28.458 20.6585 27.9211 18.7637 26.8955 17.1279C25.8709 15.4936 24.4011 14.1858 22.6588 13.3581L22.4912 13.2678L21.9504 12.9073L21.9492 12.9065C21.7844 12.798 21.6499 12.6494 21.5584 12.4746C21.467 12.2999 21.4216 12.1048 21.4264 11.9077C21.4316 11.709 21.4877 11.5148 21.5895 11.344C21.6912 11.1731 21.835 11.0312 22.0073 10.9319L22.0074 10.9318C22.6874 10.5392 23.2525 9.97485 23.6461 9.2953C24.0396 8.61575 24.2479 7.84478 24.25 7.0595V7.05882C24.25 5.86925 23.7774 4.7284 22.9363 3.88724C22.0951 3.04609 20.9543 2.57353 19.7647 2.57353C19.4566 2.57353 19.1611 2.45113 18.9432 2.23326C18.7253 2.01538 18.6029 1.71988 18.6029 1.41177C18.6029 1.10365 18.7253 0.808146 18.9432 0.590273C19.1611 0.3724 19.4566 0.25 19.7647 0.25L19.7648 0.25C21.0772 0.249649 22.3619 0.628639 23.464 1.34135C24.5661 2.05406 25.4387 3.07011 25.9768 4.26721C26.5149 5.4643 26.6956 6.7914 26.4971 8.08878C26.2985 9.38615 25.7293 10.5985 24.8578 11.5799ZM8.80222 10.7882C9.53982 11.2811 10.407 11.5441 11.2941 11.5441C12.4837 11.5441 13.6245 11.0716 14.4657 10.2304C15.3069 9.38925 15.7794 8.2484 15.7794 7.05882C15.7794 6.17172 15.5164 5.30453 15.0235 4.56693C14.5307 3.82932 13.8301 3.25443 13.0106 2.91495C12.191 2.57547 11.2891 2.48665 10.4191 2.65971C9.54902 2.83278 8.74982 3.25996 8.12254 3.88724C7.49526 4.51452 7.06807 5.31372 6.89501 6.18379C6.72194 7.05385 6.81077 7.95569 7.15025 8.77527C7.48973 9.59485 8.06462 10.2954 8.80222 10.7882Z" fill="white" stroke="#3A3768" stroke-width="0.5"/>
</svg>
