<svg width="20" height="20" viewBox="0 0 20 20" fill="none" xmlns="http://www.w3.org/2000/svg">
<path d="M16.2998 6.39992H15.3998V3.69996C15.3998 2.98389 15.1153 2.29714 14.609 1.7908C14.1027 1.28446 13.4159 1 12.6998 1H3.69996C2.98389 1 2.29714 1.28446 1.7908 1.7908C1.28446 2.29714 1 2.98389 1 3.69996V14.4998C1.00089 14.6775 1.05435 14.8509 1.15365 14.9983C1.25295 15.1456 1.39364 15.2603 1.55799 15.3278C1.6648 15.3782 1.78193 15.4028 1.89999 15.3998C2.01843 15.4005 2.13585 15.3778 2.2455 15.333C2.35515 15.2882 2.45488 15.2222 2.53898 15.1388L5.06794 12.6008H6.39993V13.8968C6.39993 14.6129 6.68438 15.2996 7.19073 15.806C7.69707 16.3123 8.38381 16.5968 9.09989 16.5968H15.3278L17.4608 18.7388C17.5449 18.8222 17.6446 18.8882 17.7543 18.9329C17.8639 18.9777 17.9813 19.0004 18.0998 18.9997C18.2178 19.0028 18.3349 18.9781 18.4418 18.9277C18.6061 18.8602 18.7468 18.7456 18.8461 18.5982C18.9454 18.4509 18.9989 18.2774 18.9998 18.0998V9.09989C18.9998 8.38381 18.7153 7.69707 18.209 7.19072C17.7026 6.68438 17.0159 6.39992 16.2998 6.39992ZM6.39993 9.09989V10.8009H4.69895C4.5805 10.8002 4.46309 10.8229 4.35344 10.8677C4.24379 10.9125 4.14405 10.9784 4.05996 11.0619L2.79998 12.3308V3.69996C2.79998 3.46127 2.8948 3.23236 3.06358 3.06358C3.23236 2.89479 3.46127 2.79997 3.69996 2.79997H12.6998C12.9385 2.79997 13.1674 2.89479 13.3362 3.06358C13.505 3.23236 13.5998 3.46127 13.5998 3.69996V6.39992H9.09989C8.38381 6.39992 7.69707 6.68438 7.19073 7.19072C6.68438 7.69707 6.39993 8.38381 6.39993 9.09989ZM17.1998 15.9308L16.2998 15.0308C16.2164 14.9458 16.117 14.8781 16.0074 14.8318C15.8977 14.7854 15.7799 14.7613 15.6608 14.7608H9.09989C8.8612 14.7608 8.63228 14.666 8.4635 14.4972C8.29472 14.3284 8.1999 14.0995 8.1999 13.8608V9.09989C8.1999 8.8612 8.29472 8.63228 8.4635 8.4635C8.63228 8.29472 8.8612 8.1999 9.09989 8.1999H16.2998C16.5385 8.1999 16.7674 8.29472 16.9362 8.4635C17.105 8.63228 17.1998 8.8612 17.1998 9.09989V15.9308Z" fill="black" stroke="white" stroke-width="0.5"/>
</svg>
