<svg width="24" height="18" viewBox="0 0 24 18" fill="none" xmlns="http://www.w3.org/2000/svg">
<path d="M1.44 2.88H12.96C13.3419 2.88 13.7082 2.72829 13.9782 2.45823C14.2483 2.18818 14.4 1.82191 14.4 1.44C14.4 1.05809 14.2483 0.691819 13.9782 0.421766C13.7082 0.151714 13.3419 0 12.96 0H1.44C1.05809 0 0.691819 0.151714 0.421766 0.421766C0.151714 0.691819 0 1.05809 0 1.44C0 1.82191 0.151714 2.18818 0.421766 2.45823C0.691819 2.72829 1.05809 2.88 1.44 2.88ZM12.96 14.4H1.44C1.05809 14.4 0.691819 14.5517 0.421766 14.8218C0.151714 15.0918 0 15.4581 0 15.84C0 16.2219 0.151714 16.5882 0.421766 16.8582C0.691819 17.1283 1.05809 17.28 1.44 17.28H12.96C13.3419 17.28 13.7082 17.1283 13.9782 16.8582C14.2483 16.5882 14.4 16.2219 14.4 15.84C14.4 15.4581 14.2483 15.0918 13.9782 14.8218C13.7082 14.5517 13.3419 14.4 12.96 14.4ZM22.56 7.2H1.44C1.05809 7.2 0.691819 7.35171 0.421766 7.62177C0.151714 7.89182 0 8.25809 0 8.64C0 9.02191 0.151714 9.38818 0.421766 9.65823C0.691819 9.92829 1.05809 10.08 1.44 10.08H22.56C22.9419 10.08 23.3082 9.92829 23.5782 9.65823C23.8483 9.38818 24 9.02191 24 8.64C24 8.25809 23.8483 7.89182 23.5782 7.62177C23.3082 7.35171 22.9419 7.2 22.56 7.2Z" fill="black"/>
</svg>
