<svg width="23" height="24" viewBox="0 0 23 24" fill="none" xmlns="http://www.w3.org/2000/svg">
<path d="M20.9494 20.3655H17.4135L15.6147 23.3963C15.5588 23.4929 15.4882 23.5802 15.4053 23.655C15.1738 23.8781 14.8644 24.0019 14.5429 24L20.9494 20.3655ZM20.9494 20.3655C21.1665 20.3663 21.38 20.3098 21.5682 20.2017M20.9494 20.3655L21.5682 20.2017M21.5682 20.2017C21.7565 20.0935 21.9128 19.9375 22.0213 19.7495L21.5682 20.2017ZM21.805 18.6058L21.8049 18.6058L21.807 18.6092C21.8988 18.762 21.9473 18.9368 21.9473 19.115C21.9473 19.2932 21.8988 19.468 21.807 19.6207L21.807 19.6207L21.8048 19.6245C21.7183 19.7743 21.5937 19.8987 21.4437 19.9849C21.2936 20.0711 21.1235 20.1162 20.9504 20.1155H20.9494H17.4135H17.2712L17.1985 20.2379L15.3998 23.2687L15.3997 23.2687L15.3984 23.2711C15.3555 23.3452 15.3013 23.4121 15.2378 23.4694L15.2377 23.4694L15.2318 23.475C15.0473 23.6528 14.8006 23.7515 14.5444 23.75H14.5429H14.3875C14.2457 23.7292 14.11 23.6777 13.9901 23.5988C13.8663 23.5175 13.7626 23.4092 13.6867 23.2822C13.6864 23.2817 13.6861 23.2812 13.6858 23.2807L11.3098 19.1565L11.0942 18.7822L10.8771 19.1557L8.49923 23.246L8.49897 23.2465C8.42404 23.376 8.32049 23.4867 8.19625 23.5701C8.07645 23.6505 7.94047 23.7035 7.79798 23.7253L7.64449 23.7253C7.64434 23.7253 7.64419 23.7253 7.64404 23.7253C7.39136 23.7242 7.14883 23.6257 6.96689 23.4504L6.96695 23.4503L6.96242 23.4462C6.89373 23.3831 6.83436 23.3106 6.7861 23.2309C6.78596 23.2306 6.78581 23.2304 6.78566 23.2301L4.98785 20.2009L4.91521 20.0785H4.77287L1.23693 20.0785L1.23594 20.0785C1.06323 20.0792 0.893386 20.0343 0.743555 19.9484C0.593723 19.8625 0.469198 19.7386 0.382543 19.5892C0.29589 19.4398 0.250171 19.2702 0.25 19.0975C0.24983 18.9248 0.295213 18.7551 0.381572 18.6055L3.72022 12.8398L3.79058 12.7183L3.72344 12.595C3.06031 11.3771 2.71485 10.0117 2.71897 8.62496V8.62422C2.71897 6.40324 3.60125 4.27322 5.17172 2.70275C6.74219 1.13228 8.87221 0.25 11.0932 0.25C13.3142 0.25 15.4442 1.13228 17.0147 2.70275C18.5851 4.27322 19.4674 6.40324 19.4674 8.62422L19.4674 8.62496C19.4715 10.0117 19.1261 11.3771 18.4629 12.595L18.3958 12.7183L18.4662 12.8398L21.805 18.6058ZM7.41655 20.4937L7.63361 20.8571L7.84706 20.4916L9.73207 17.2636L9.91108 16.9571L9.56216 16.8918C7.95409 16.591 6.46935 15.8258 5.2913 14.6906L5.06101 14.4687L4.90126 14.7457L3.13945 17.8012L2.92329 18.1761H3.35603H5.48612C5.65445 18.178 5.81947 18.2232 5.96532 18.3072C6.11154 18.3915 6.23356 18.5121 6.31962 18.6572L6.32004 18.658L7.41655 20.4937ZM16.7015 18.1761L16.7033 18.176L18.8347 18.1391L19.2588 18.1317L19.0469 17.7642L17.2851 14.7088L17.1257 14.4323L16.8954 14.6533C15.7179 15.7833 14.2383 16.548 12.6355 16.8551L12.2913 16.921L12.4657 17.225L14.3383 20.4899L14.5508 20.8603L14.7698 20.4937L15.8663 18.658L15.8668 18.6572C15.9528 18.5121 16.0748 18.3915 16.2211 18.3072C16.3673 18.223 16.5327 18.1778 16.7015 18.1761ZM7.5319 13.9541C8.58604 14.6584 9.82538 15.0344 11.0932 15.0344C12.7933 15.0344 14.4237 14.359 15.6259 13.1569C16.828 11.9548 17.5033 10.3243 17.5033 8.62422C17.5033 7.35641 17.1274 6.11707 16.423 5.06293C15.7187 4.00878 14.7176 3.18718 13.5463 2.70201C12.3749 2.21684 11.0861 2.0899 9.84263 2.33723C8.59918 2.58457 7.457 3.19508 6.56052 4.09156C5.66404 4.98803 5.05354 6.13021 4.8062 7.37366C4.55886 8.61711 4.6858 9.90598 5.17097 11.0773C5.65614 12.2486 6.47775 13.2497 7.5319 13.9541Z" fill="white" stroke="#3A3768" stroke-width="0.5"/>
</svg>
