<svg width="21" height="24" viewBox="0 0 21 24" fill="none" xmlns="http://www.w3.org/2000/svg">
<path d="M10.1925 13.1834C10.7862 13.1834 11.3667 13.0073 11.8604 12.6774C12.3541 12.3476 12.7389 11.8787 12.9661 11.3301C13.1933 10.7815 13.2528 10.1779 13.137 9.59551C13.0211 9.01314 12.7352 8.4782 12.3153 8.05833C11.8955 7.63847 11.3605 7.35254 10.7782 7.2367C10.1958 7.12086 9.59214 7.18031 9.04356 7.40754C8.49498 7.63477 8.0261 8.01957 7.69622 8.51328C7.36633 9.00698 7.19026 9.58743 7.19026 10.1812C7.19026 10.9774 7.50656 11.7411 8.06958 12.3041C8.6326 12.8671 9.39622 13.1834 10.1925 13.1834ZM9.12667 23.556C9.26622 23.6967 9.43224 23.8083 9.61517 23.8846C9.79809 23.9608 9.99429 24 10.1925 24C10.3906 24 10.5868 23.9608 10.7697 23.8846C10.9527 23.8083 11.1187 23.6967 11.2582 23.556L17.3977 17.4015C18.8237 15.9763 19.795 14.1601 20.1887 12.1829C20.5824 10.2056 20.3808 8.15593 19.6096 6.2932C18.8383 4.43046 17.5319 2.8383 15.8556 1.71811C14.1794 0.597911 12.2086 0 10.1925 0C8.17635 0 6.20553 0.597911 4.52928 1.71811C2.85302 2.8383 1.54663 4.43046 0.775349 6.2932C0.0040633 8.15593 -0.19747 10.2056 0.19624 12.1829C0.589949 14.1601 1.56121 15.9763 2.98719 17.4015L9.12667 23.556ZM3.03222 9.4907C3.13478 8.42044 3.47507 7.3866 4.02823 6.46466C4.5814 5.54272 5.33348 4.75595 6.22956 4.16181C7.40672 3.38889 8.78422 2.97708 10.1925 2.97708C11.6007 2.97708 12.9782 3.38889 14.1553 4.16181C15.0454 4.75391 15.7933 5.53591 16.345 6.45156C16.8968 7.3672 17.2388 8.39374 17.3465 9.45736C17.4541 10.521 17.3248 11.5952 16.9676 12.6029C16.6105 13.6105 16.0346 14.5265 15.2812 15.2849L10.1925 20.3737L5.10373 15.2849C4.34947 14.5338 3.77215 13.624 3.41381 12.6217C3.05546 11.6194 2.9251 10.5498 3.03222 9.4907Z" fill="#50E669"/>
</svg>
