<svg width="20" height="24" viewBox="0 0 20 24" fill="none" xmlns="http://www.w3.org/2000/svg">
<path fill-rule="evenodd" clip-rule="evenodd" d="M13.2729 3.76706C14.1913 2.76872 14.6972 1.39768 14.6173 0C13.366 0 11.9151 0.732121 10.9967 1.81033C10.2778 2.70216 9.50581 4.09984 9.78533 5.49752C11.0765 5.65723 12.4742 4.84527 13.2729 3.76706ZM14.4975 5.80366C12.5541 5.80366 10.8369 6.88186 9.91846 6.88186C8.96004 6.88186 7.56239 5.75043 5.99166 5.80366C3.94173 5.8436 2.06487 7.05491 1.0133 8.83859C0.267874 10.1165 -0.0249863 11.6206 0.00165678 13.1514C0.0415758 16.0399 1.17301 19.0483 2.50413 20.9651C3.52911 22.4293 4.68716 24 6.32444 24C7.80196 24 8.34773 23.015 10.2778 23.015C12.0748 23.015 12.6339 24 14.1913 24C15.8286 24 16.9068 22.5091 17.8785 21.0316C19.1031 19.3145 19.5158 17.6772 19.569 17.6107C19.5158 17.6107 16.4276 16.3594 16.3078 12.792C16.3078 9.66389 18.8502 8.2529 18.9567 8.18637C17.5724 6.05657 15.3361 5.80366 14.4975 5.80366Z" fill="black"/>
</svg>
