<svg width="25" height="25" viewBox="0 0 25 25" fill="none" xmlns="http://www.w3.org/2000/svg">
<path fill-rule="evenodd" clip-rule="evenodd" d="M8.39883 0.684503C11.0965 -0.250009 14.1231 -0.229823 16.8074 0.758448C18.2972 1.30973 19.6595 2.17026 20.8271 3.25266C20.4379 3.67621 20.0151 4.07286 19.6125 4.48295C18.8474 5.24939 18.0824 6.0158 17.3174 6.7822C16.5591 6.05614 15.633 5.50486 14.6264 5.1956C13.4453 4.83929 12.1703 4.7855 10.9623 5.04768C9.55308 5.35023 8.24448 6.08974 7.23114 7.12509C6.41245 7.95203 5.79503 8.9739 5.41926 10.0765C4.05697 9.01424 2.69468 7.95873 1.32568 6.89652C2.7685 4.00562 5.35885 1.72656 8.39883 0.684503Z" fill="#EA4335"/>
<path fill-rule="evenodd" clip-rule="evenodd" d="M0.244861 10.0294C0.466319 8.94028 0.828708 7.87803 1.33203 6.88306C2.69428 7.94527 4.05657 9.00078 5.42557 10.063C4.88871 11.6295 4.88871 13.3707 5.42557 14.9304C4.06328 15.9926 2.70102 17.0549 1.33874 18.1104C0.0770985 15.643 -0.305414 12.7455 0.244861 10.0294Z" fill="#FBBC05"/>
<path fill-rule="evenodd" clip-rule="evenodd" d="M12.4789 10.1572C16.3912 10.1572 20.3103 10.1572 24.2228 10.1572C24.6118 12.3556 24.5247 14.6481 23.9073 16.7994C23.3369 18.7693 22.2564 20.5979 20.7465 21.9896C19.4245 20.961 18.1025 19.9324 16.7805 18.9037C18.0891 18.023 19.0151 16.5978 19.2769 15.038C17.0086 15.038 14.7404 15.038 12.4722 15.038C12.4789 13.4111 12.4789 11.7841 12.4789 10.1572Z" fill="#4285F4"/>
<path fill-rule="evenodd" clip-rule="evenodd" d="M1.32568 18.1171C2.68797 17.0616 4.05026 15.9994 5.41252 14.9372C5.93596 16.4767 6.94257 17.8415 8.27132 18.776C9.10345 19.3609 10.0564 19.7777 11.0496 19.9794C12.0293 20.1811 13.0426 20.1542 14.0291 19.9861C15.0089 19.8113 15.9551 19.455 16.7805 18.897C18.1026 19.9256 19.4246 20.9542 20.7466 21.9828C19.3172 23.3072 17.5254 24.2081 15.633 24.6451C13.5393 25.1224 11.3247 25.1359 9.24438 24.5779C7.59353 24.1409 6.04335 23.3543 4.7079 22.2854C3.30536 21.1694 2.1377 19.7307 1.32568 18.1171Z" fill="#34A853"/>
</svg>
