<svg width="20" height="20" viewBox="0 0 20 20" fill="none" xmlns="http://www.w3.org/2000/svg">
<path d="M13.5158 10.8158L13.5158 10.8158L13.5196 10.8119C13.623 10.7039 13.7043 10.5768 13.759 10.4377C13.8191 10.2997 13.8502 10.1507 13.8502 10C13.8502 9.84934 13.8191 9.70032 13.759 9.56224C13.7043 9.42318 13.623 9.2961 13.5196 9.18812L13.5196 9.18808L13.5158 9.18422L9.91578 5.58422C9.69942 5.36787 9.40597 5.24632 9.1 5.24632C8.79402 5.24632 8.50058 5.36787 8.28422 5.58422C8.06786 5.80058 7.94632 6.09402 7.94632 6.4C7.94632 6.70598 8.06786 6.99942 8.28422 7.21578L8.28461 7.21616L9.92558 8.85L1.9 8.85C1.595 8.85 1.30249 8.97116 1.08683 9.18683C0.87116 9.40249 0.75 9.695 0.75 10C0.75 10.305 0.87116 10.5975 1.08683 10.8132C1.30249 11.0288 1.595 11.15 1.9 11.15L9.92558 11.15L8.28461 12.7838L8.28422 12.7842C8.17709 12.8914 8.09211 13.0185 8.03414 13.1585C7.97616 13.2985 7.94632 13.4485 7.94632 13.6C7.94632 13.7515 7.97616 13.9015 8.03414 14.0415L8.26511 13.9458L8.03414 14.0415C8.09211 14.1815 8.17709 14.3086 8.28422 14.4158C8.39135 14.5229 8.51853 14.6079 8.6585 14.6659C8.79848 14.7238 8.9485 14.7537 9.1 14.7537C9.2515 14.7537 9.40152 14.7238 9.5415 14.6659C9.68147 14.6079 9.80865 14.5229 9.91578 14.4158L13.5158 10.8158ZM11.55 1.9C11.55 2.205 11.6712 2.49751 11.8868 2.71317C12.1025 2.92884 12.395 3.05 12.7 3.05L16.3 3.05C16.4724 3.05 16.6377 3.11848 16.7596 3.24038C16.8815 3.36228 16.95 3.52761 16.95 3.7L16.95 16.3C16.95 16.4724 16.8815 16.6377 16.7596 16.7596C16.6377 16.8815 16.4724 16.95 16.3 16.95L12.7 16.95C12.395 16.95 12.1025 17.0712 11.8868 17.2868C11.6712 17.5025 11.55 17.795 11.55 18.1C11.55 18.405 11.6712 18.6975 11.8868 18.9132C12.1025 19.1288 12.395 19.25 12.7 19.25L16.3 19.25C17.0824 19.25 17.8327 18.9392 18.386 18.386C18.9392 17.8327 19.25 17.0824 19.25 16.3L19.25 3.7C19.25 2.91761 18.9392 2.16727 18.386 1.61403C17.8327 1.0608 17.0824 0.749999 16.3 0.749999L12.7 0.749999C12.395 0.75 12.1025 0.871158 11.8868 1.08683C11.6712 1.30249 11.55 1.595 11.55 1.9Z" fill="#FF0000" stroke="#FF0000" stroke-width="0.5"/>
</svg>
