<svg width="16" height="20" viewBox="0 0 16 20" fill="none" xmlns="http://www.w3.org/2000/svg">
<path d="M5.5 8.2H6.4C6.6387 8.2 6.86761 8.10518 7.0364 7.9364C7.20518 7.76761 7.3 7.53869 7.3 7.3C7.3 7.06131 7.20518 6.83239 7.0364 6.6636C6.86761 6.49482 6.6387 6.4 6.4 6.4H5.5C5.26131 6.4 5.03239 6.49482 4.8636 6.6636C4.69482 6.83239 4.6 7.06131 4.6 7.3C4.6 7.53869 4.69482 7.76761 4.8636 7.9364C5.03239 8.10518 5.26131 8.2 5.5 8.2ZM5.5 10C5.26131 10 5.03239 10.0948 4.8636 10.2636C4.69482 10.4324 4.6 10.6613 4.6 10.9C4.6 11.1387 4.69482 11.3676 4.8636 11.5364C5.03239 11.7052 5.26131 11.8 5.5 11.8H10.9C11.1387 11.8 11.3676 11.7052 11.5364 11.5364C11.7052 11.3676 11.8 11.1387 11.8 10.9C11.8 10.6613 11.7052 10.4324 11.5364 10.2636C11.3676 10.0948 11.1387 10 10.9 10H5.5ZM15.4 7.246C15.3906 7.16332 15.3725 7.08187 15.346 7.003V6.922C15.3027 6.82946 15.245 6.7444 15.175 6.67L9.775 1.27C9.7006 1.19999 9.61554 1.14227 9.523 1.099C9.49614 1.09518 9.46887 1.09518 9.442 1.099C9.35057 1.04657 9.2496 1.01291 9.145 1H3.7C2.98392 1 2.29716 1.28446 1.79081 1.79081C1.28446 2.29716 1 2.98392 1 3.7V16.3C1 17.0161 1.28446 17.7028 1.79081 18.2092C2.29716 18.7155 2.98392 19 3.7 19H12.7C13.4161 19 14.1028 18.7155 14.6092 18.2092C15.1155 17.7028 15.4 17.0161 15.4 16.3V7.3V7.246ZM10 4.069L12.331 6.4H10.9C10.6613 6.4 10.4324 6.30518 10.2636 6.1364C10.0948 5.96761 10 5.73869 10 5.5V4.069ZM13.6 16.3C13.6 16.5387 13.5052 16.7676 13.3364 16.9364C13.1676 17.1052 12.9387 17.2 12.7 17.2H3.7C3.46131 17.2 3.23239 17.1052 3.0636 16.9364C2.89482 16.7676 2.8 16.5387 2.8 16.3V3.7C2.8 3.46131 2.89482 3.23239 3.0636 3.0636C3.23239 2.89482 3.46131 2.8 3.7 2.8H8.2V5.5C8.2 6.21608 8.48446 6.90284 8.99081 7.40919C9.49716 7.91554 10.1839 8.2 10.9 8.2H13.6V16.3ZM10.9 13.6H5.5C5.26131 13.6 5.03239 13.6948 4.8636 13.8636C4.69482 14.0324 4.6 14.2613 4.6 14.5C4.6 14.7387 4.69482 14.9676 4.8636 15.1364C5.03239 15.3052 5.26131 15.4 5.5 15.4H10.9C11.1387 15.4 11.3676 15.3052 11.5364 15.1364C11.7052 14.9676 11.8 14.7387 11.8 14.5C11.8 14.2613 11.7052 14.0324 11.5364 13.8636C11.3676 13.6948 11.1387 13.6 10.9 13.6Z" fill="black" stroke="white" stroke-width="0.5"/>
</svg>
