<svg width="19" height="18" viewBox="0 0 19 18" fill="none" xmlns="http://www.w3.org/2000/svg">
<path fill-rule="evenodd" clip-rule="evenodd" d="M4.18282 11.4371L0.201745 7.58134C0.113536 7.49288 0.050943 7.38215 0.0206383 7.26093C-0.00961619 7.13991 -0.00655484 7.01298 0.0294767 6.89358C0.0697016 6.77165 0.143103 6.66331 0.241469 6.58073C0.340433 6.49765 0.460705 6.44397 0.588634 6.42579L6.07509 5.61584L8.53324 0.641715L8.53411 0.639924C8.59071 0.523058 8.67908 0.4245 8.7891 0.355538C8.89913 0.286576 9.02635 0.25 9.1562 0.25C9.28605 0.25 9.41328 0.286576 9.5233 0.355538C9.63333 0.4245 9.7217 0.523058 9.7783 0.639927L12.2373 5.62548L17.7302 6.42673L17.7376 6.42736C17.8709 6.43876 17.998 6.48859 18.1035 6.57079C18.2067 6.65114 18.2848 6.75904 18.3291 6.88192C18.3603 7.00571 18.3566 7.13578 18.3183 7.2577C18.2792 7.3825 18.2054 7.49364 18.1056 7.57819L18.0993 7.58356L14.1108 11.4465L15.075 16.9233L15.0756 16.9267C15.1003 17.0563 15.0874 17.1902 15.0384 17.3127C14.9894 17.4352 14.9064 17.5411 14.7991 17.6179L14.7981 17.6187C14.6795 17.7045 14.5367 17.7505 14.3903 17.75L14.3886 17.75C14.2802 17.7504 14.1737 17.7225 14.0793 17.6692L9.15665 15.0824L4.22156 17.656L4.22005 17.6568C4.10653 17.717 3.97848 17.7443 3.85028 17.7358C3.72216 17.7272 3.59895 17.6832 3.49446 17.6085C3.38722 17.5317 3.30421 17.4258 3.25521 17.3033C3.20622 17.1808 3.1933 17.0469 3.218 16.9173L4.18282 11.4371ZM12.7771 11.0362C12.812 10.9289 12.8726 10.8319 12.9537 10.7535L16.134 7.58377L11.6769 6.93796L11.6755 6.93776C11.5635 6.92219 11.457 6.87938 11.3655 6.8131C11.2739 6.74682 11.1998 6.65881 11.15 6.55731L9.15034 2.49417L7.25541 6.55017C7.20563 6.65082 7.13206 6.73784 7.04107 6.80369C6.94949 6.86997 6.84304 6.91277 6.73106 6.92835L2.27352 7.57421L5.44983 10.7506L5.45282 10.7535C5.53389 10.8319 5.59453 10.9289 5.62947 11.0362C5.66441 11.1434 5.6725 11.258 5.65319 11.3691L4.88917 15.8153L8.87839 13.6934C8.9784 13.6401 9.08996 13.6123 9.20327 13.6123C9.31657 13.6123 9.42823 13.6402 9.52824 13.6934L13.5174 15.8153L12.7533 11.3687C12.7339 11.2575 12.7421 11.1434 12.7771 11.0362Z" fill="black"/>
</svg>
