<svg width="36" height="36" viewBox="0 0 36 36" fill="none" xmlns="http://www.w3.org/2000/svg">
<path d="M28.7652 21.6232C27.7034 21.6303 26.6564 21.8724 25.6993 22.3323C24.7423 22.7922 23.899 23.4583 23.2301 24.2829L14.0649 20.0598C14.4959 18.7403 14.4959 17.3179 14.0649 15.9983L23.2301 11.7752C24.3113 13.0798 25.8186 13.9606 27.4859 14.2621C29.1533 14.5635 30.8735 14.2664 32.3431 13.4229C33.8127 12.5795 34.9371 11.2441 35.5178 9.65234C36.0986 8.06059 36.0985 6.31485 35.5174 4.72321C34.9363 3.13157 33.8117 1.79635 32.342 0.953195C30.8722 0.110044 29.1519 -0.186836 27.4846 0.114951C25.8173 0.416737 24.3102 1.29779 23.2293 2.60261C22.1484 3.90744 21.5631 5.55216 21.5768 7.2465C21.5822 7.67462 21.6243 8.10149 21.7026 8.52243L12.2139 12.8894C11.2023 11.9002 9.92129 11.2316 8.53135 10.9672C7.14141 10.7029 5.70437 10.8546 4.40027 11.4034C3.09617 11.9522 1.98302 12.8736 1.20028 14.0522C0.417529 15.2308 0 16.6142 0 18.0291C0 19.4439 0.417529 20.8273 1.20028 22.0059C1.98302 23.1845 3.09617 24.1059 4.40027 24.6547C5.70437 25.2035 7.14141 25.3552 8.53135 25.0909C9.92129 24.8265 11.2023 24.1579 12.2139 23.1687L21.7026 27.5357C21.6243 27.9566 21.5822 28.3835 21.5768 28.8116C21.5768 30.2333 21.9984 31.6231 22.7883 32.8053C23.5781 33.9874 24.7008 34.9087 26.0143 35.4528C27.3278 35.9969 28.7732 36.1392 30.1676 35.8619C31.562 35.5845 32.8428 34.8999 33.8481 33.8946C34.8534 32.8893 35.5381 31.6084 35.8154 30.214C36.0928 28.8196 35.9504 27.3743 35.4064 26.0608C34.8623 24.7472 33.9409 23.6246 32.7588 22.8347C31.5767 22.0448 30.1869 21.6232 28.7652 21.6232ZM28.7652 3.65231C29.476 3.65231 30.1709 3.8631 30.762 4.25804C31.3531 4.65297 31.8137 5.21431 32.0858 5.87106C32.3578 6.52781 32.429 7.25048 32.2903 7.94769C32.1516 8.64489 31.8093 9.28531 31.3067 9.78797C30.804 10.2906 30.1636 10.6329 29.4664 10.7716C28.7692 10.9103 28.0465 10.8391 27.3897 10.5671C26.733 10.2951 26.1717 9.83438 25.7767 9.24332C25.3818 8.65226 25.171 7.95736 25.171 7.2465C25.171 6.29326 25.5497 5.37906 26.2237 4.70502C26.8977 4.03098 27.8119 3.65231 28.7652 3.65231ZM7.20005 21.6232C6.48919 21.6232 5.79429 21.4125 5.20323 21.0175C4.61217 20.6226 4.15149 20.0612 3.87946 19.4045C3.60742 18.7477 3.53624 18.0251 3.67493 17.3279C3.81361 16.6307 4.15592 15.9902 4.65858 15.4876C5.16123 14.9849 5.80166 14.6426 6.49886 14.5039C7.19607 14.3652 7.91874 14.4364 8.57549 14.7085C9.23224 14.9805 9.79358 15.4412 10.1885 16.0322C10.5834 16.6233 10.7942 17.3182 10.7942 18.0291C10.7942 18.9823 10.4156 19.8965 9.74153 20.5705C9.06749 21.2446 8.15329 21.6232 7.20005 21.6232ZM28.7652 32.4058C28.0543 32.4058 27.3594 32.195 26.7684 31.8001C26.1773 31.4051 25.7166 30.8438 25.4446 30.1871C25.1725 29.5303 25.1014 28.8076 25.2401 28.1104C25.3787 27.4132 25.721 26.7728 26.2237 26.2701C26.7264 25.7675 27.3668 25.4252 28.064 25.2865C28.7612 25.1478 29.4839 25.219 30.1406 25.491C30.7974 25.7631 31.3587 26.2237 31.7536 26.8148C32.1486 27.4059 32.3594 28.1008 32.3594 28.8116C32.3594 29.7649 31.9807 30.6791 31.3067 31.3531C30.6326 32.0271 29.7184 32.4058 28.7652 32.4058Z" fill="black"/>
</svg>
