<svg width="24" height="24" viewBox="0 0 24 24" fill="none" xmlns="http://www.w3.org/2000/svg">
<path fill-rule="evenodd" clip-rule="evenodd" d="M18.2812 0C21.75 0 24 2.25 24 5.71876V18.2812C24 21.75 21.75 24 18.2812 24H5.71876C2.25 24 0 21.75 0 18.2812V5.71876C0 2.25 2.25 0 5.71876 0H18.2812Z" fill="#1DA1F2"/>
<path fill-rule="evenodd" clip-rule="evenodd" d="M5.3353 6.16427C5.3353 6.16427 8.0587 9.54947 12.2075 9.75307C12.2075 9.75307 11.3607 7.50787 13.8921 5.96887C13.8921 5.96887 15.9487 4.76087 17.9335 6.71687C17.9335 6.71687 18.8287 6.67347 19.9077 5.88007C19.9077 5.88007 20.0665 6.61007 18.6595 7.78427C18.6595 7.78427 19.4423 7.72087 20.3309 7.13887C20.3309 7.13887 20.1617 8.14387 18.7123 8.87387C18.7123 8.87387 19.1533 16.8255 11.3935 18.5659C11.3935 18.5659 7.2899 19.4919 4.3999 17.2247C4.3999 17.2247 7.4655 17.5439 9.0941 15.8355C9.0941 15.8355 7.0505 16.0271 6.0445 13.6161C6.0445 13.6161 7.0663 13.7917 7.4815 13.4565C7.4815 13.4565 5.3259 13.4723 4.8469 10.2471C4.8469 10.2471 5.7251 10.6941 6.2999 10.6143C6.2999 10.6143 3.8597 9.10707 5.3353 6.16427Z" fill="white"/>
</svg>
