<svg width="12" height="12" viewBox="0 0 12 12" fill="none" xmlns="http://www.w3.org/2000/svg">
<path d="M11.3967 6.00174C11.2376 6.00174 11.085 6.06493 10.9726 6.17742C10.8601 6.28991 10.7969 6.44248 10.7969 6.60156V10.2005C10.7969 10.3596 10.7337 10.5122 10.6212 10.6247C10.5087 10.7372 10.3561 10.8003 10.197 10.8003H1.79948C1.64039 10.8003 1.48783 10.7372 1.37534 10.6247C1.26285 10.5122 1.19965 10.3596 1.19965 10.2005V1.80296C1.19965 1.64387 1.26285 1.4913 1.37534 1.37882C1.48783 1.26633 1.64039 1.20313 1.79948 1.20313H5.39843C5.55752 1.20313 5.71009 1.13993 5.82258 1.02745C5.93507 0.914956 5.99826 0.762388 5.99826 0.603304C5.99826 0.44422 5.93507 0.291652 5.82258 0.179163C5.71009 0.0666738 5.55752 0.003478 5.39843 0.003478H1.79948C1.32223 0.003478 0.864523 0.193065 0.527055 0.530533C0.189587 0.868001 0 1.3257 0 1.80296V10.2005C0 10.6778 0.189587 11.1355 0.527055 11.4729C0.864523 11.8104 1.32223 12 1.79948 12H10.197C10.6743 12 11.132 11.8104 11.4695 11.4729C11.8069 11.1355 11.9965 10.6778 11.9965 10.2005V6.60156C11.9965 6.44248 11.9333 6.28991 11.8208 6.17742C11.7083 6.06493 11.5558 6.00174 11.3967 6.00174ZM2.3993 6.45761V9.00087C2.3993 9.15995 2.4625 9.31252 2.57499 9.42501C2.68748 9.5375 2.84005 9.6007 2.99913 9.6007H5.54239C5.62133 9.60115 5.69959 9.58602 5.77267 9.55617C5.84575 9.52632 5.91222 9.48234 5.96827 9.42675L10.1191 5.26995L11.8226 3.60243C11.8788 3.54667 11.9234 3.48033 11.9539 3.40724C11.9843 3.33414 12 3.25574 12 3.17656C12 3.09737 11.9843 3.01897 11.9539 2.94588C11.9234 2.87278 11.8788 2.80644 11.8226 2.75068L9.27931 0.177428C9.22355 0.121207 9.15721 0.0765832 9.08411 0.0461308C9.01102 0.0156784 8.93262 0 8.85343 0C8.77425 0 8.69585 0.0156784 8.62275 0.0461308C8.54966 0.0765832 8.48332 0.121207 8.42756 0.177428L6.73605 1.87494L2.57325 6.03173C2.51766 6.08778 2.47368 6.15425 2.44383 6.22733C2.41398 6.30041 2.39885 6.37867 2.3993 6.45761ZM8.85343 1.44906L10.5509 3.14657L9.69919 3.99832L8.00168 2.30081L8.85343 1.44906ZM3.59896 6.70354L7.15593 3.14657L8.85343 4.84407L5.29646 8.40104H3.59896V6.70354Z" fill="black"/>
</svg>
