<svg width="25" height="24" viewBox="0 0 25 24" fill="none" xmlns="http://www.w3.org/2000/svg">
<path d="M23.3122 7.9562V7.89603C22.4642 5.58074 20.9255 3.58178 18.9043 2.16956C16.8831 0.757335 14.4769 0 12.0112 0C9.54553 0 7.13934 0.757335 5.11813 2.16956C3.09692 3.58178 1.55825 5.58074 0.71026 7.89603V7.9562C-0.236753 10.5689 -0.236753 13.4311 0.71026 16.0438V16.104C1.55825 18.4193 3.09692 20.4182 5.11813 21.8304C7.13934 23.2427 9.54553 24 12.0112 24C14.4769 24 16.8831 23.2427 18.9043 21.8304C20.9255 20.4182 22.4642 18.4193 23.3122 16.104V16.0438C24.2592 13.4311 24.2592 10.5689 23.3122 7.9562ZM2.67198 14.407C2.25464 12.8295 2.25464 11.1705 2.67198 9.59298H4.91051C4.71799 11.1919 4.71799 12.8081 4.91051 14.407H2.67198ZM3.65886 16.814H5.34378C5.62626 17.8874 6.03003 18.9251 6.54729 19.9071C5.367 19.103 4.38036 18.0465 3.65886 16.814ZM5.34378 7.18596H3.65886C4.36998 5.95727 5.34401 4.90105 6.51118 4.09293C6.00637 5.0765 5.61474 6.11413 5.34378 7.18596ZM10.7836 21.267C9.30545 20.1823 8.26728 18.6015 7.85911 16.814H10.7836V21.267ZM10.7836 14.407H7.3416C7.11702 12.8102 7.11702 11.1898 7.3416 9.59298H10.7836V14.407ZM10.7836 7.18596H7.85911C8.26728 5.39846 9.30545 3.81771 10.7836 2.73297V7.18596ZM20.3154 7.18596H18.6305C18.348 6.11262 17.9443 5.07493 17.427 4.09293C18.6073 4.89696 19.5939 5.95349 20.3154 7.18596ZM13.1907 2.73297C14.6689 3.81771 15.707 5.39846 16.1152 7.18596H13.1907V2.73297ZM13.1907 21.267V16.814H16.1152C15.707 18.6015 14.6689 20.1823 13.1907 21.267ZM16.6327 14.407H13.1907V9.59298H16.6327C16.8573 11.1898 16.8573 12.8102 16.6327 14.407ZM17.4631 19.9071C17.9804 18.9251 18.3842 17.8874 18.6666 16.814H20.3516C19.6301 18.0465 18.6434 19.103 17.4631 19.9071ZM21.3023 14.407H19.0638C19.1617 13.6084 19.2099 12.8046 19.2082 12C19.2095 11.1955 19.1613 10.3916 19.0638 9.59298H21.3023C21.7197 11.1705 21.7197 12.8295 21.3023 14.407Z" fill="#50E669"/>
</svg>
