<svg width="11" height="18" viewBox="0 0 11 18" fill="none" xmlns="http://www.w3.org/2000/svg">
<path d="M0.443333 10.0654L7.93716 17.5592C8.0769 17.699 8.2428 17.8098 8.42538 17.8854C8.60796 17.9611 8.80365 18 9.00128 18C9.4004 18 9.78318 17.8414 10.0654 17.5592C10.2051 17.4195 10.316 17.2536 10.3916 17.071C10.4673 16.8884 10.5062 16.6927 10.5062 16.4951C10.5062 16.096 10.3476 15.7132 10.0654 15.431L3.62071 9.00128L10.0654 2.57158C10.2059 2.43225 10.3174 2.26648 10.3935 2.08385C10.4696 1.90121 10.5087 1.70531 10.5087 1.50746C10.5087 1.3096 10.4696 1.1137 10.3935 0.931065C10.3174 0.748427 10.2059 0.582663 10.0654 0.443334C9.92607 0.302857 9.76031 0.191355 9.57767 0.115264C9.39503 0.039174 9.19914 1.7297e-08 9.00128 0C8.80343 -1.7297e-08 8.60753 0.039174 8.42489 0.115264C8.24225 0.191355 8.07649 0.302857 7.93716 0.443333L0.443334 7.93715C0.302857 8.07648 0.191355 8.24225 0.115264 8.42489C0.039174 8.60753 1.7297e-08 8.80342 0 9.00128C-1.7297e-08 9.19913 0.039174 9.39503 0.115264 9.57767C0.191355 9.76031 0.302857 9.92607 0.443333 10.0654Z" fill="white"/>
</svg>
