<svg width="11" height="18" viewBox="0 0 11 18" fill="none" xmlns="http://www.w3.org/2000/svg">
<path d="M10.0654 7.9346L2.57158 0.440774C2.43184 0.301032 2.26594 0.190182 2.08336 0.114554C1.90077 0.0389258 1.70508 0 1.50746 0C1.10833 0 0.725555 0.158551 0.443332 0.440774C0.303589 0.580517 0.192739 0.746416 0.117111 0.928998C0.0414829 1.11158 0.00255851 1.30727 0.00255851 1.5049C0.00255851 1.90402 0.161109 2.2868 0.443332 2.56902L6.88802 8.99872L0.443332 15.4284C0.302855 15.5678 0.191356 15.7335 0.115266 15.9162C0.0391754 16.0988 0 16.2947 0 16.4925C0 16.6904 0.0391754 16.8863 0.115266 17.0689C0.191356 17.2516 0.302855 17.4173 0.443332 17.5567C0.582662 17.6971 0.748427 17.8086 0.931065 17.8847C1.1137 17.9608 1.3096 18 1.50746 18C1.70531 18 1.90121 17.9608 2.08385 17.8847C2.26648 17.8086 2.43225 17.6971 2.57158 17.5567L10.0654 10.0628C10.2059 9.92352 10.3174 9.75775 10.3935 9.57511C10.4696 9.39247 10.5087 9.19658 10.5087 8.99872C10.5087 8.80087 10.4696 8.60497 10.3935 8.42233C10.3174 8.23969 10.2059 8.07393 10.0654 7.9346Z" fill="#F2FFF4"/>
</svg>
