<svg width="325" height="246" viewBox="0 0 325 246" fill="none" xmlns="http://www.w3.org/2000/svg">
<path opacity="0.1" d="M91.8382 221.864C129.721 221.864 160.431 219.581 160.431 216.765C160.431 213.949 129.721 211.666 91.8382 211.666C53.9553 211.666 23.2451 213.949 23.2451 216.765C23.2451 219.581 53.9553 221.864 91.8382 221.864Z" fill="#50E569"/>
<path opacity="0.1" d="M188.823 35.8635C167.988 35.1392 148.144 28.4141 129.192 21.0548C110.24 13.6955 91.475 5.54425 71.1388 1.64247C58.0588 -0.865356 43.102 -1.21948 32.562 5.79214C22.4213 12.5526 19.144 24.1904 17.3799 35.0008C16.0567 43.1327 15.2777 51.6928 18.909 59.3064C21.4297 64.5925 25.9078 69.0351 29.0047 74.0958C39.7765 91.7118 32.1628 113.448 20.4929 130.636C15.0201 138.707 8.66525 146.411 4.43832 154.993C0.21139 163.576 -1.74272 173.424 1.95303 182.187C5.6198 190.879 14.3537 197.395 23.8152 201.982C43.0279 211.318 65.666 213.968 87.7535 215.477C136.629 218.822 185.768 217.374 234.772 215.925C252.91 215.387 271.124 214.843 288.969 212.039C298.875 210.484 309.105 208.012 316.297 202.059C325.427 194.484 327.69 181.659 321.574 172.159C311.311 156.226 282.942 152.27 275.76 135.172C271.81 125.759 275.866 115.277 281.603 106.546C293.914 87.8229 314.546 71.3948 315.634 49.993C316.381 35.2937 306.462 20.5719 291.126 13.615C275.049 6.32654 252.758 7.24404 240.905 19.3099C228.678 31.7203 207.212 36.5074 188.823 35.8635Z" fill="#50E569"/>
<path d="M0.262036 204.091C0.262036 204.091 14.1192 203.257 12.484 212.966C12.484 212.966 12.8082 214.682 11.2531 215.461C11.2531 215.461 11.2313 214.733 9.83279 214.984C9.33606 215.068 8.83119 215.092 8.32871 215.057C7.6485 215.011 7.00165 214.745 6.48594 214.299C6.48594 214.299 2.59282 212.69 1.07782 206.324C1.07782 206.324 -0.0438747 204.936 0.00346947 204.579L2.34152 205.577C2.34152 205.577 1.54033 207.263 2.17037 208.665C2.17037 208.665 2.24684 205.639 2.69478 205.708C2.78583 205.708 3.91117 206.295 3.91117 206.295C3.91117 206.295 2.53454 209.234 3.57247 211.368C3.57247 211.368 3.17915 207.748 4.33725 206.506L5.98337 207.467C5.98337 207.467 4.37732 210.501 5.46623 212.977C5.46623 212.977 5.18944 209.179 6.32934 207.7L7.82249 208.866C7.82249 208.866 6.31477 211.856 7.23251 213.91C7.23251 213.91 7.3527 209.488 8.14662 209.153C8.14662 209.153 9.45039 210.304 9.65069 210.778C9.65069 210.778 8.61642 212.963 9.25738 214.095C9.25738 214.095 9.6507 211.149 9.98575 211.135C9.98575 211.135 11.2859 213.087 11.4206 214.412C11.3577 213.176 10.9722 211.979 10.3026 210.938C11.0519 211.08 11.7432 211.438 12.291 211.969C12.291 211.969 12.0907 210.588 9.9821 210.468C9.9821 210.468 8.88955 208.986 8.62006 208.895C8.62006 208.895 10.7178 208.72 11.9888 209.285C11.9888 209.285 10.8707 207.984 8.23402 208.556L6.77728 207.354C6.77728 207.354 9.5378 206.99 10.7105 207.394C10.7105 207.394 9.36299 206.244 6.38033 207.081L4.77791 206.123C4.77791 206.123 7.13054 205.617 8.53629 205.799C8.53629 205.799 7.05407 205.002 4.30812 205.865L3.16094 205.351C3.16094 205.351 4.88717 205.013 5.38974 204.958C5.89232 204.903 5.9251 204.765 5.9251 204.765C4.83183 204.583 3.70951 204.709 2.68386 205.129C2.68386 205.129 0.221976 204.244 0.262036 204.091Z" fill="#50E569"/>
<path d="M39.2937 214.178C39.2937 214.178 53.1327 213.344 51.5121 223.053C51.5121 223.053 51.8398 224.768 50.2848 225.548C50.2848 225.548 50.2593 224.819 48.8608 225.07C48.3643 225.156 47.8592 225.18 47.3567 225.143C46.6774 225.098 46.0315 224.832 45.5176 224.386C45.5176 224.386 41.6208 222.776 40.1058 216.41C40.1058 216.41 38.9878 215.023 39.0133 214.666L41.3513 215.664C41.3513 215.664 40.5501 217.35 41.1802 218.752C41.1802 218.752 41.2566 215.726 41.7046 215.795C41.7956 215.795 42.921 216.381 42.921 216.381C42.921 216.381 41.5444 219.32 42.5823 221.454C42.5823 221.454 42.189 217.834 43.3507 216.592L44.9968 217.554C44.9968 217.554 43.3908 220.587 44.4797 223.064C44.4797 223.064 44.1993 219.265 45.3428 217.787L46.8323 218.952C46.8323 218.952 45.3246 221.942 46.2423 223.996C46.2423 223.996 46.3625 219.575 47.1564 219.24C47.1564 219.24 48.4602 220.391 48.6605 220.864C48.6605 220.864 47.6262 223.049 48.2672 224.182C48.2672 224.182 48.6605 221.236 48.9955 221.221C48.9955 221.221 50.292 223.173 50.4304 224.499C50.3654 223.263 49.9787 222.065 49.3087 221.024C50.059 221.167 50.7514 221.525 51.3008 222.055C51.3008 222.055 51.0969 220.675 48.9883 220.555C48.9883 220.555 47.8957 219.072 47.6262 218.985C47.6262 218.985 49.7239 218.807 50.9949 219.371C50.9949 219.371 49.8769 218.071 47.2402 218.643L45.7835 217.441C45.7835 217.441 48.544 217.077 49.7166 217.481C49.7166 217.481 48.3692 216.33 45.3865 217.168L43.7841 216.21C43.7841 216.21 46.1403 215.704 47.5425 215.886C47.5425 215.886 46.0602 215.088 43.3143 215.951L42.1671 215.438C42.1671 215.438 43.8933 215.099 44.3996 215.045C44.9058 214.99 44.9313 214.852 44.9313 214.852C43.8379 214.672 42.7162 214.798 41.69 215.216C41.69 215.216 39.2646 214.331 39.2937 214.178Z" fill="#50E569"/>
<path d="M14.3512 220.419C14.3512 220.419 28.1902 219.585 26.5732 229.294C26.5732 229.294 26.8973 231.01 25.3422 231.789C25.3422 231.789 25.3167 231.061 23.9219 231.312C23.424 231.396 22.9179 231.42 22.4142 231.385C21.7353 231.338 21.0898 231.073 20.5751 230.627C20.5751 230.627 16.6819 229.018 15.1669 222.652C15.1669 222.652 14.0453 221.264 14.0744 220.907L16.4125 221.905C16.4125 221.905 15.6149 223.591 16.2413 224.993C16.2413 224.993 16.3178 221.967 16.7694 222.036C16.8604 222.036 17.9821 222.623 17.9821 222.623C17.9821 222.623 16.6091 225.558 17.647 227.696C17.647 227.696 17.2537 224.076 18.4118 222.834L20.0579 223.795C20.0579 223.795 18.4519 226.829 19.5408 229.305C19.5408 229.305 19.2604 225.507 20.4039 224.028L21.8971 225.194C21.8971 225.194 20.3857 228.184 21.3071 230.238C21.3071 230.238 21.4273 225.817 22.2175 225.481C22.2175 225.481 23.525 226.632 23.7216 227.106C23.7216 227.106 22.6873 229.291 23.3319 230.423C23.3319 230.423 23.7253 227.477 24.0603 227.463C24.0603 227.463 25.3604 229.415 25.4952 230.74C25.4322 229.504 25.0468 228.307 24.3771 227.266C25.1265 227.408 25.8178 227.766 26.3656 228.297C26.3656 228.297 26.1653 226.916 24.053 226.796C24.053 226.796 22.9823 225.314 22.6946 225.223C22.6946 225.223 24.7923 225.048 26.0633 225.613C26.0633 225.613 24.9416 224.312 22.3086 224.902L20.8519 223.701C20.8519 223.701 23.6124 223.336 24.785 223.741C24.785 223.741 23.4339 222.59 20.4549 223.427L18.8488 222.47C18.8488 222.47 21.1905 221.974 22.5963 222.156C22.5963 222.156 21.1177 221.359 18.3681 222.222L17.2246 221.709C17.2246 221.709 18.9472 221.37 19.4534 221.315C19.9596 221.261 19.9851 221.122 19.9851 221.122C18.8918 220.94 17.7695 221.066 16.7439 221.486C16.7439 221.486 14.3111 220.572 14.3512 220.419Z" fill="#50E569"/>
<path opacity="0.1" d="M25.153 234.466C19.7365 234.466 15.3455 233.724 15.3455 232.809C15.3455 231.894 19.7365 231.152 25.153 231.152C30.5695 231.152 34.9604 231.894 34.9604 232.809C34.9604 233.724 30.5695 234.466 25.153 234.466Z" fill="#50E569"/>
<path opacity="0.1" d="M9.80728 217.821C4.39077 217.821 -0.000181198 217.079 -0.000181198 216.164C-0.000181198 215.249 4.39077 214.507 9.80728 214.507C15.2238 214.507 19.6147 215.249 19.6147 216.164C19.6147 217.079 15.2238 217.821 9.80728 217.821Z" fill="#50E569"/>
<path opacity="0.1" d="M48.8498 227.46C43.4332 227.46 39.0423 226.718 39.0423 225.803C39.0423 224.888 43.4332 224.146 48.8498 224.146C54.2663 224.146 58.6572 224.888 58.6572 225.803C58.6572 226.718 54.2663 227.46 48.8498 227.46Z" fill="#50E569"/>
<path opacity="0.1" d="M256.407 245.951C294.29 245.951 325 243.668 325 240.852C325 238.035 294.29 235.752 256.407 235.752C218.524 235.752 187.814 238.035 187.814 240.852C187.814 243.668 218.524 245.951 256.407 245.951Z" fill="#50E569"/>
<path d="M255.257 239.244C251.837 236.354 249.76 231.789 250.305 227.345C250.849 222.902 254.223 218.816 258.6 217.873C262.976 216.929 267.965 219.541 269.295 223.816C270.026 215.574 270.869 206.986 275.251 199.967C279.219 193.611 286.092 189.064 293.54 188.25C300.988 187.436 308.831 190.509 313.476 196.388C318.121 202.267 319.258 210.814 316.005 217.563C313.608 222.535 309.193 226.235 304.566 229.246C289.617 238.891 271.687 242.814 254.076 240.292" fill="#F2FFF4"/>
<path d="M306.11 190.68C299.964 195.685 294.326 201.284 289.277 207.395C281.376 216.925 274.982 227.61 270.318 239.077C269.977 239.914 271.335 240.278 271.673 239.451C279.304 220.813 291.485 204.387 307.104 191.673C307.805 191.102 306.806 190.113 306.11 190.68V190.68Z" fill="white"/>
<path d="M290.875 231.26C289.378 237.115 284.252 240.741 284.252 240.741C284.252 240.741 281.552 234.875 283.049 229.02C284.545 223.165 289.672 219.539 289.672 219.539C289.672 219.539 292.371 225.406 290.875 231.26Z" fill="#3F3D56"/>
<path d="M288.868 230.255C284.391 234.388 283.844 240.741 283.844 240.741C283.844 240.741 290.556 240.393 295.033 236.261C299.51 232.128 300.057 225.775 300.057 225.775C300.057 225.775 293.345 226.123 288.868 230.255Z" fill="#50E569"/>
<path d="M196.129 58.6182C196.129 58.719 196.089 58.8155 196.018 58.8868C195.946 58.958 195.85 58.9982 195.749 58.9985H195.567C195.285 58.7551 195.011 58.5003 194.745 58.238H195.749C195.85 58.2383 195.946 58.2784 196.018 58.3497C196.089 58.4209 196.129 58.5175 196.129 58.6182Z" fill="#F2F2F2"/>
<path d="M205.256 44.5478H109.806C109.1 44.5486 108.423 44.8293 107.924 45.3284C107.425 45.8274 107.144 46.504 107.144 47.2098V98.928C107.144 99.6337 107.425 100.31 107.924 100.809C108.423 101.308 109.1 101.589 109.806 101.59H205.256C205.962 101.589 206.638 101.308 207.137 100.809C207.636 100.31 207.917 99.6337 207.918 98.928V47.2098C207.917 46.504 207.636 45.8274 207.137 45.3284C206.638 44.8293 205.962 44.5486 205.256 44.5478ZM207.157 98.928C207.157 99.9634 206.291 100.829 205.256 100.829H109.806C109.301 100.829 108.818 100.629 108.461 100.272C108.105 99.9157 107.904 99.4322 107.904 98.928V47.2098C107.904 46.7056 108.105 46.2221 108.461 45.8655C108.818 45.509 109.301 45.3086 109.806 45.3084H205.256C205.76 45.3086 206.244 45.509 206.6 45.8655C206.957 46.2221 207.157 46.7056 207.157 47.2098V98.928Z" fill="#3F3D56"/>
<path d="M147.347 67.0452C146.21 64.3148 144.442 62.0407 141.871 60.5348C139.175 58.9491 136.091 57.6295 132.987 57.1541C129.881 56.6949 126.714 56.8722 123.678 57.6751C123.283 57.7778 122.872 57.8881 122.461 58.0098C121.394 58.2854 120.379 58.7351 119.457 59.3408C119.427 59.3598 119.396 59.3788 119.366 59.4016C118.187 60.2686 117.381 61.6985 116.719 62.98C116.092 64.2083 115.696 65.5621 116.038 66.935C116.409 68.1872 117.182 69.2828 118.236 70.0533C118.97 70.6313 119.932 71.3614 120.913 71.3766C121.146 71.3818 121.377 71.3431 121.594 71.2626C121.662 71.2386 121.727 71.2067 121.788 71.1675C122.183 71.2862 122.592 71.3539 123.005 71.369C124.675 71.4451 126.344 70.7378 128.059 70.1597C128.461 70.0195 128.873 69.9089 129.291 69.8289C130.04 69.6659 130.818 69.692 131.554 69.905C131.69 69.9434 131.823 69.9904 131.953 70.0457C133.224 70.6414 134.296 71.5907 135.041 72.7799C135.767 73.8599 136.246 75.0882 137.045 76.1263C137.441 76.6614 137.946 77.1071 138.526 77.4347C139.105 77.7622 139.748 77.9643 140.41 78.0277C142.403 78.2483 144.905 78.1418 146.62 76.9439C147.086 76.626 147.485 76.2204 147.795 75.7499C147.826 75.7042 147.856 75.6586 147.883 75.613C149.461 73.0156 148.427 69.6273 147.347 67.0452ZM121.073 63.0561C121.453 63.0979 121.838 63.1435 122.218 63.1854C121.491 63.3153 120.81 63.6339 120.244 64.1095C120.029 64.2919 119.83 64.4916 119.647 64.7065C119.655 64.6913 119.655 64.6723 119.662 64.6571C119.774 64.3071 119.957 63.984 120.2 63.7085C120.443 63.4329 120.74 63.2107 121.073 63.0561V63.0561ZM144 72.7152C144.069 72.7 144.141 72.6886 144.21 72.6772C144.319 72.6601 144.423 72.6185 144.514 72.5555C144.514 72.5669 144.518 72.5821 144.518 72.5935C144.518 72.6444 144.522 72.6952 144.529 72.7456C144.51 72.7761 144.495 72.8065 144.476 72.8369C144.316 72.7951 144.16 72.7532 144 72.7152L144 72.7152ZM142.939 63.4668C143.781 64.2619 144.498 65.1799 145.065 66.1896C144.394 65.3695 143.652 64.6098 142.848 63.9193C142.909 63.7761 142.94 63.6222 142.939 63.4668V63.4668ZM142.015 74.2553C141.982 74.311 141.958 74.3712 141.943 74.4341C141.84 74.4379 141.734 74.4417 141.627 74.4417H141.574C141.57 74.4265 141.563 74.4075 141.559 74.3922C141.536 74.3238 141.517 74.2553 141.494 74.1869C141.669 74.2097 141.84 74.2325 142.015 74.2553V74.2553ZM133.885 65.7256C133.895 65.6488 133.898 65.5711 133.892 65.4937C133.976 65.5568 134.074 65.5986 134.178 65.6154C134.189 65.6192 134.204 65.6192 134.216 65.623C134.288 65.6648 134.356 65.7028 134.429 65.7447L134.406 65.7789C134.231 65.7599 134.056 65.7447 133.885 65.7257V65.7256ZM139.909 63.8319H139.897C139.646 63.6759 139.395 63.52 139.14 63.3717C139.399 63.5162 139.658 63.6721 139.909 63.8319V63.8319ZM138.509 70.9583C138.47 70.9977 138.437 71.0425 138.41 71.0914C138.391 71.0648 138.376 71.042 138.357 71.0154C138.405 70.9895 138.456 70.9703 138.509 70.9583V70.9583ZM135.102 63.5086C135.017 63.4415 134.924 63.3865 134.824 63.3451C134.334 63.1561 133.833 62.9999 133.322 62.8773C133.246 62.8051 133.17 62.7328 133.098 62.6568C133.529 62.7403 133.956 62.8482 134.375 62.98C134.913 63.1523 135.44 63.3555 135.954 63.5885C135.668 63.5581 135.387 63.5314 135.102 63.5086L135.102 63.5086ZM132.204 58.7399C133.298 58.886 134.376 59.1329 135.425 59.4776C135.318 59.451 135.212 59.4282 135.106 59.4016C134.098 59.1734 133.071 58.93 132.037 58.7209C132.094 58.7285 132.147 58.7323 132.204 58.7399L132.204 58.7399Z" fill="#CCCCCC"/>
<path d="M136.301 88.2712C135.342 88.2444 134.148 88.2109 133.229 87.5395C132.955 87.3312 132.73 87.0657 132.57 86.7614C132.409 86.4571 132.318 86.1214 132.301 85.7778C132.284 85.5337 132.324 85.289 132.418 85.0629C132.511 84.8368 132.656 84.6354 132.84 84.4745C133.114 84.27 133.435 84.1373 133.773 84.0886C134.112 84.0399 134.457 84.0767 134.777 84.1956L133.994 78.4733L134.569 78.3945L135.49 85.1218L135.01 84.9016C134.453 84.6463 133.689 84.5166 133.215 84.9176C133.098 85.0224 133.007 85.1527 132.949 85.2983C132.891 85.444 132.868 85.601 132.88 85.7573C132.894 86.013 132.963 86.2627 133.083 86.4893C133.202 86.716 133.368 86.9144 133.571 87.0709C134.286 87.5935 135.238 87.661 136.317 87.6913L136.301 88.2712Z" fill="#3F3D56"/>
<path d="M131.152 78.9668H128.027V79.547H131.152V78.9668Z" fill="#3F3D56"/>
<path d="M141.015 78.9668H137.89V79.547H141.015V78.9668Z" fill="#3F3D56"/>
<path d="M122.598 70.9552C120.082 70.6682 118.133 68.2573 117.919 65.811C117.664 62.9008 119.359 60.1367 121.684 58.5037C124.116 56.7958 127.145 56.0826 130.076 55.9256C135.795 55.6411 141.414 57.4933 145.842 61.1222C148.039 62.9464 150.09 65.2702 150.868 68.0769C151.543 70.5145 150.993 73.276 149.033 74.9832C148.548 75.4016 147.981 75.7149 147.369 75.9033C146.757 76.0918 146.113 76.1513 145.476 76.0782C143.955 75.9203 142.552 75.1204 141.337 74.237C138.973 72.5187 137.033 70.1249 134.154 69.227C132.043 68.5686 129.303 69.1481 128.013 71.0573C127.72 71.4943 127.53 71.9921 127.458 72.5132C127.431 72.6243 127.448 72.7414 127.504 72.8408C127.561 72.9401 127.653 73.0144 127.762 73.0484C127.873 73.0784 127.992 73.0633 128.092 73.0064C128.192 72.9495 128.266 72.8554 128.297 72.7445C128.636 70.3398 131.593 69.4425 133.667 69.9917C136.693 70.7924 138.723 73.492 141.206 75.2071C142.49 76.1651 144.004 76.7693 145.595 76.9593C146.975 77.0675 148.344 76.6469 149.425 75.7826C151.546 74.1082 152.357 71.2284 151.888 68.6355C151.345 65.633 149.324 63.0596 147.107 61.0673C142.611 57.071 136.775 54.9151 130.762 55.0292C127.695 55.0997 124.494 55.7329 121.852 57.3541C119.288 58.9266 117.307 61.5575 117.048 64.6156C116.82 67.3074 118.265 70.1228 120.744 71.302C121.328 71.5789 121.955 71.7558 122.598 71.8254C123.154 71.8888 123.149 71.018 122.598 70.9552H122.598Z" fill="#3F3D56"/>
<path d="M196.129 58.6182C196.129 58.719 196.089 58.8155 196.017 58.8868C195.946 58.958 195.85 58.9982 195.749 58.9985H164.566C164.465 58.9985 164.368 58.9584 164.297 58.8871C164.226 58.8158 164.186 58.7191 164.186 58.6182C164.186 58.5174 164.226 58.4207 164.297 58.3493C164.368 58.278 164.465 58.238 164.566 58.238H195.749C195.85 58.2383 195.946 58.2784 196.017 58.3497C196.089 58.4209 196.129 58.5175 196.129 58.6182Z" fill="#3F3D56"/>
<path d="M195.749 64.7027H164.566C164.465 64.7027 164.368 64.6626 164.297 64.5913C164.226 64.52 164.186 64.4233 164.186 64.3224C164.186 64.2216 164.226 64.1248 164.297 64.0535C164.368 63.9822 164.465 63.9421 164.566 63.9421H195.749C195.85 63.9421 195.946 63.9822 196.018 64.0535C196.089 64.1248 196.129 64.2216 196.129 64.3224C196.129 64.4233 196.089 64.52 196.018 64.5913C195.946 64.6626 195.85 64.7027 195.749 64.7027Z" fill="#3F3D56"/>
<path d="M195.749 70.4069H164.566C164.465 70.4069 164.368 70.3669 164.297 70.2955C164.226 70.2242 164.186 70.1275 164.186 70.0267C164.186 69.9258 164.226 69.8291 164.297 69.7578C164.368 69.6864 164.465 69.6464 164.566 69.6464H195.749C195.85 69.6464 195.946 69.6864 196.018 69.7578C196.089 69.8291 196.129 69.9258 196.129 70.0267C196.129 70.1275 196.089 70.2242 196.018 70.2955C195.946 70.3669 195.85 70.4069 195.749 70.4069Z" fill="#3F3D56"/>
<path d="M195.749 76.1111H164.566C164.465 76.1111 164.368 76.0711 164.297 75.9997C164.226 75.9284 164.186 75.8317 164.186 75.7308C164.186 75.63 164.226 75.5333 164.297 75.4619C164.368 75.3906 164.465 75.3506 164.566 75.3506H195.749C195.85 75.3506 195.946 75.3906 196.018 75.4619C196.089 75.5333 196.129 75.63 196.129 75.7308C196.129 75.8317 196.089 75.9284 196.018 75.9997C195.946 76.0711 195.85 76.1111 195.749 76.1111Z" fill="#3F3D56"/>
<path d="M195.749 81.8153H164.566C164.465 81.8153 164.368 81.7752 164.297 81.7039C164.226 81.6326 164.186 81.5359 164.186 81.435C164.186 81.3342 164.226 81.2374 164.297 81.1661C164.368 81.0948 164.465 81.0547 164.566 81.0547H195.749C195.85 81.0547 195.946 81.0948 196.018 81.1661C196.089 81.2374 196.129 81.3342 196.129 81.435C196.129 81.5359 196.089 81.6326 196.018 81.7039C195.946 81.7752 195.85 81.8153 195.749 81.8153Z" fill="#3F3D56"/>
<path d="M195.749 87.5195H164.566C164.465 87.5195 164.368 87.4795 164.297 87.4082C164.226 87.3368 164.186 87.2401 164.186 87.1393C164.186 87.0384 164.226 86.9417 164.297 86.8704C164.368 86.799 164.465 86.759 164.566 86.759H195.749C195.85 86.759 195.946 86.799 196.018 86.8704C196.089 86.9417 196.129 87.0384 196.129 87.1393C196.129 87.2401 196.089 87.3368 196.018 87.4082C195.946 87.4795 195.85 87.5195 195.749 87.5195Z" fill="#3F3D56"/>
<path d="M83.0454 138.308C81.9856 138.311 80.9625 137.921 80.1741 137.212C79.7328 136.819 79.3767 136.339 79.1274 135.803C78.8782 135.267 78.7412 134.685 78.7248 134.094L61.8494 121.821C61.3402 121.451 60.9174 120.975 60.6099 120.425C60.3025 119.876 60.1178 119.266 60.0685 118.639C60.0193 118.011 60.1067 117.38 60.3247 116.789C60.5426 116.199 60.8861 115.662 61.3313 115.217L73.895 102.654C74.4127 102.136 75.0723 101.783 75.7904 101.64C76.5085 101.498 77.2528 101.571 77.9292 101.851C78.6057 102.131 79.1838 102.606 79.5906 103.214C79.9973 103.823 80.2144 104.539 80.2144 105.271C80.1118 107.192 79.3547 109.019 78.0692 110.45L69.5386 118.981L82.9277 129.653C82.9689 129.65 83.0102 129.648 83.0521 129.648C84.1576 129.648 85.2213 130.071 86.0251 130.83C86.8289 131.589 87.312 132.626 87.3755 133.73C87.4389 134.834 87.0778 135.92 86.3661 136.766C85.6545 137.612 84.6463 138.153 83.5481 138.28C83.3812 138.299 83.2134 138.308 83.0454 138.308Z" fill="#FFB8B8"/>
<path d="M103.098 210.8L107.626 209.11L103.261 190.84L96.5781 193.335L103.098 210.8Z" fill="#FFB8B8"/>
<path d="M117.929 210.054L103.698 215.367L101.645 209.869L110.572 206.536C111.979 206.011 113.537 206.066 114.903 206.689C116.269 207.312 117.331 208.453 117.856 209.859L117.929 210.054Z" fill="#2F2E41"/>
<path d="M62.3626 211.629H67.1959L69.4951 192.986L62.3618 192.987L62.3626 211.629Z" fill="#FFB8B8"/>
<path d="M76.5176 216.117L61.3272 216.117L61.3269 210.248L70.8561 210.248C72.3576 210.248 73.7975 210.844 74.8593 211.906C75.921 212.967 76.5175 214.407 76.5176 215.909L76.5176 216.117Z" fill="#2F2E41"/>
<path d="M67.579 206.542C67.5248 206.542 67.4704 206.539 67.4158 206.534L62.2923 206.046C61.8768 206.007 61.49 205.816 61.2048 205.512C60.9197 205.207 60.7557 204.808 60.7439 204.391C60.4483 193.296 59.7035 137.298 74.1136 124.466C74.3634 124.246 74.6731 124.106 75.003 124.064V124.064C77.6132 123.706 86.4192 122.829 90.1465 126.578C90.383 126.814 90.5468 127.113 90.6185 127.439L106.936 202.882C106.986 203.114 106.987 203.354 106.94 203.587C106.892 203.82 106.796 204.04 106.659 204.234C106.522 204.427 106.346 204.59 106.142 204.712C105.938 204.834 105.711 204.912 105.475 204.942L99.2192 205.724C98.9933 205.752 98.7639 205.735 98.5446 205.674C98.3253 205.613 98.1205 205.508 97.9422 205.367C97.7638 205.225 97.6156 205.049 97.5062 204.849C97.3968 204.65 97.3283 204.43 97.305 204.204C96.6824 198.139 92.942 167.335 80.407 156.416C80.2373 156.267 80.033 156.163 79.8126 156.114C79.5922 156.064 79.363 156.071 79.1458 156.133C78.9331 156.192 78.739 156.304 78.5816 156.459C78.4243 156.614 78.309 156.806 78.2467 157.018C75.9262 164.611 68.4219 190.491 69.2843 204.728C69.2987 204.961 69.2653 205.194 69.1861 205.414C69.1069 205.633 68.9837 205.834 68.8239 206.004C68.6641 206.174 68.4712 206.309 68.2571 206.402C68.043 206.494 67.8123 206.542 67.579 206.542V206.542Z" fill="#2F2E41"/>
<path d="M77.4392 93.5971C82.5976 93.5971 86.7793 89.4154 86.7793 84.257C86.7793 79.0986 82.5976 74.9169 77.4392 74.9169C72.2808 74.9169 68.0991 79.0986 68.0991 84.257C68.0991 89.4154 72.2808 93.5971 77.4392 93.5971Z" fill="#FFB8B8"/>
<path d="M68.2681 101.847C68.2681 101.847 76.9414 91.597 84.0377 99.8761C88.6037 105.203 91.0186 112.042 90.8103 119.054L90.5427 128.064L74.1817 125.502L68.2681 101.847Z" fill="#50E569"/>
<path d="M91.061 121.709C90.9929 121.709 90.9248 121.708 90.8566 121.705C90.1576 121.676 89.4732 121.496 88.8507 121.176C88.2282 120.857 87.6824 120.407 87.2509 119.856L76.6352 106.321C76.1834 105.744 75.9125 105.047 75.8569 104.317C75.8013 103.587 75.9634 102.857 76.3227 102.219C76.682 101.581 77.2224 101.064 77.8756 100.734C78.5287 100.403 79.2653 100.273 79.9922 100.361L81.4868 100.542C82.4412 100.709 83.3095 101.198 83.9473 101.928L92.3215 112.605L104.524 100.593C104.526 100.552 104.529 100.511 104.534 100.469C104.636 99.624 104.985 98.8275 105.537 98.1794C106.089 97.5314 106.82 97.0605 107.639 96.8258C108.457 96.5911 109.327 96.6029 110.139 96.8597C110.95 97.1166 111.668 97.607 112.203 98.2698C112.737 98.9326 113.065 99.7383 113.144 100.586C113.223 101.434 113.05 102.286 112.647 103.036C112.244 103.786 111.629 104.401 110.879 104.804C110.129 105.206 109.276 105.378 108.429 105.299L94.6044 120.165C94.1518 120.652 93.6035 121.041 92.9938 121.307C92.3841 121.572 91.7261 121.709 91.061 121.709Z" fill="#FFB8B8"/>
<path d="M78.9533 85.8729L82.9662 81.1454C84.0003 79.927 85.082 78.6 85.2283 77.0086C85.3886 75.2642 84.3276 73.5686 82.877 72.5864C81.4264 71.6043 79.6451 71.2347 77.8986 71.0991C74.6593 70.8476 71.2507 71.3829 68.5877 73.2444C65.9248 75.106 64.1827 78.4667 64.832 81.6502C65.3432 84.1569 67.2271 86.5581 66.4948 89.0094C65.6937 91.6915 62.4081 92.5144 59.7256 93.3142C55.2229 94.6567 50.9235 97.2997 48.5637 101.363C46.204 105.426 46.2143 111.028 49.3599 114.518C51.3967 116.778 54.4687 117.921 57.5063 118.093C60.5439 118.265 63.5673 117.55 66.4481 116.571C69.1011 115.67 71.7256 114.511 73.8143 112.643C75.903 110.776 77.4077 108.103 77.3425 105.302C77.2805 102.632 75.8505 100.201 75.263 97.5957C74.7997 95.4145 74.9212 93.1495 75.6155 91.0305C76.3097 88.9114 77.5519 87.0136 79.2162 85.5294" fill="#2F2E41"/>
<path d="M205.159 164.781H109.709C109.003 164.78 108.326 164.5 107.827 164.001C107.328 163.501 107.048 162.825 107.047 162.119V110.401C107.048 109.695 107.328 109.019 107.827 108.52C108.326 108.02 109.003 107.74 109.709 107.739H205.159C205.865 107.74 206.542 108.02 207.041 108.52C207.54 109.019 207.82 109.695 207.821 110.401V162.119C207.82 162.825 207.54 163.501 207.041 164.001C206.542 164.5 205.865 164.78 205.159 164.781ZM109.709 108.5C109.205 108.5 108.721 108.701 108.365 109.057C108.009 109.414 107.808 109.897 107.807 110.401V162.119C107.808 162.623 108.009 163.106 108.365 163.463C108.721 163.819 109.205 164.02 109.709 164.021H205.159C205.663 164.02 206.147 163.819 206.503 163.463C206.86 163.106 207.06 162.623 207.061 162.119V110.401C207.06 109.897 206.86 109.414 206.503 109.057C206.147 108.701 205.663 108.5 205.159 108.5H109.709Z" fill="#3F3D56"/>
<path d="M147.251 130.235C146.112 127.508 144.342 125.233 141.774 123.725C139.075 122.141 135.995 120.821 132.891 120.346C129.785 119.887 126.617 120.064 123.581 120.867C122.117 121.246 120.504 121.686 119.27 122.594C118.09 123.461 117.281 124.888 116.623 126.171C115.993 127.399 115.6 128.751 115.941 130.127C116.312 131.38 117.085 132.476 118.14 133.245C119.039 133.955 120.295 134.895 121.497 134.455C121.565 134.43 121.63 134.397 121.691 134.357C123.766 134.988 125.829 134.07 127.96 133.351C129.254 132.914 130.556 132.693 131.856 133.238C133.127 133.833 134.199 134.781 134.944 135.969C135.671 137.052 136.15 138.281 136.948 139.318C137.344 139.853 137.849 140.298 138.428 140.625C139.007 140.952 139.649 141.154 140.311 141.218C142.885 141.506 146.302 141.241 147.785 138.803C149.365 136.206 148.331 132.82 147.251 130.235ZM120.976 126.247C121.358 126.29 121.74 126.333 122.122 126.376C121.394 126.507 120.714 126.827 120.148 127.302C119.932 127.484 119.733 127.683 119.551 127.898C119.556 127.881 119.559 127.864 119.565 127.847C119.677 127.497 119.86 127.174 120.103 126.899C120.346 126.624 120.643 126.402 120.976 126.247ZM133.793 128.685C133.878 128.748 133.977 128.79 134.081 128.807C134.093 128.81 134.106 128.812 134.118 128.814C134.189 128.855 134.26 128.895 134.331 128.935C134.323 128.946 134.317 128.959 134.31 128.97C134.135 128.952 133.96 128.935 133.786 128.917C133.798 128.84 133.801 128.762 133.793 128.685ZM138.413 134.148C138.375 134.189 138.341 134.234 138.312 134.282C138.295 134.257 138.278 134.232 138.261 134.207C138.308 134.179 138.36 134.159 138.413 134.148ZM141.397 137.377C141.57 137.4 141.743 137.423 141.916 137.446C141.884 137.502 141.86 137.563 141.846 137.626C141.723 137.63 141.6 137.632 141.476 137.632L141.397 137.377ZM143.903 135.905L144.112 135.869C144.221 135.851 144.326 135.81 144.417 135.748C144.418 135.76 144.419 135.772 144.419 135.784C144.421 135.826 144.425 135.878 144.43 135.937C144.413 135.967 144.396 135.997 144.377 136.027C144.219 135.986 144.061 135.945 143.903 135.905ZM135.004 126.702C134.921 126.632 134.827 126.577 134.726 126.538C134.236 126.349 133.734 126.192 133.224 126.068C133.147 125.996 133.073 125.923 133 125.847C133.431 125.932 133.857 126.04 134.276 126.172C134.814 126.344 135.341 126.547 135.856 126.779C135.572 126.748 135.288 126.722 135.004 126.702ZM139.798 127.023C139.548 126.866 139.296 126.713 139.043 126.562C139.302 126.709 139.558 126.862 139.811 127.023L139.798 127.023ZM144.967 129.382C144.296 128.561 143.554 127.801 142.75 127.111C142.812 126.968 142.843 126.814 142.841 126.659C143.684 127.453 144.401 128.371 144.967 129.382ZM135.327 122.667C135.221 122.643 135.115 122.618 135.009 122.594C134.001 122.366 132.975 122.121 131.939 121.913C131.994 121.92 132.05 121.925 132.105 121.932C133.2 122.077 134.278 122.323 135.327 122.667Z" fill="#50E569"/>
<path d="M136.204 151.462C135.245 151.436 134.051 151.402 133.132 150.731C132.858 150.522 132.633 150.257 132.473 149.953C132.313 149.648 132.221 149.313 132.204 148.969C132.187 148.725 132.227 148.48 132.321 148.254C132.415 148.028 132.559 147.827 132.744 147.666C133.017 147.461 133.338 147.328 133.677 147.28C134.015 147.231 134.36 147.268 134.681 147.387L133.898 141.664L134.473 141.586L135.393 148.313L134.913 148.093C134.357 147.837 133.593 147.708 133.118 148.109C133.001 148.214 132.911 148.344 132.853 148.489C132.795 148.635 132.771 148.792 132.784 148.948C132.798 149.204 132.867 149.454 132.986 149.68C133.105 149.907 133.272 150.106 133.474 150.262C134.19 150.785 135.141 150.852 136.22 150.882L136.204 151.462Z" fill="#3F3D56"/>
<path d="M131.055 142.158H127.93V142.738H131.055V142.158Z" fill="#3F3D56"/>
<path d="M140.918 142.158H137.793V142.738H140.918V142.158Z" fill="#3F3D56"/>
<path d="M122.502 134.146C119.985 133.859 118.037 131.448 117.823 129.002C117.568 126.092 119.263 123.328 121.588 121.695C124.02 119.987 127.049 119.274 129.98 119.117C135.698 118.832 141.318 120.684 145.746 124.313C147.943 126.138 149.994 128.461 150.771 131.268C151.446 133.706 150.897 136.467 148.937 138.174C148.452 138.593 147.885 138.906 147.273 139.094C146.661 139.283 146.016 139.342 145.38 139.269C143.859 139.111 142.455 138.312 141.24 137.428C138.877 135.71 136.937 133.316 134.058 132.418C131.946 131.76 129.207 132.339 127.917 134.248C127.624 134.685 127.434 135.183 127.362 135.704C127.335 135.815 127.352 135.933 127.408 136.032C127.464 136.131 127.557 136.206 127.666 136.24C127.777 136.27 127.895 136.254 127.996 136.198C128.096 136.141 128.17 136.047 128.201 135.936C128.54 133.531 131.496 132.634 133.571 133.183C136.596 133.984 138.627 136.683 141.109 138.398C142.394 139.356 143.908 139.96 145.499 140.15C146.879 140.259 148.248 139.838 149.329 138.974C151.45 137.299 152.261 134.42 151.792 131.827C151.249 128.824 149.228 126.251 147.01 124.258C142.515 120.262 136.679 118.106 130.666 118.22C127.598 118.291 124.398 118.924 121.755 120.545C119.192 122.118 117.211 124.749 116.952 127.807C116.724 130.498 118.168 133.314 120.648 134.493C121.232 134.77 121.859 134.947 122.502 135.017C123.057 135.08 123.053 134.209 122.502 134.146H122.502Z" fill="#3F3D56"/>
<path d="M195.652 122.19H164.469C164.368 122.19 164.271 122.15 164.2 122.078C164.128 122.007 164.088 121.91 164.088 121.809C164.088 121.709 164.128 121.612 164.2 121.54C164.271 121.469 164.368 121.429 164.469 121.429H195.652C195.753 121.429 195.849 121.469 195.921 121.54C195.992 121.612 196.032 121.709 196.032 121.809C196.032 121.91 195.992 122.007 195.921 122.078C195.849 122.15 195.753 122.19 195.652 122.19Z" fill="#3F3D56"/>
<path d="M195.652 127.894H164.469C164.368 127.894 164.271 127.854 164.2 127.782C164.128 127.711 164.088 127.614 164.088 127.514C164.088 127.413 164.128 127.316 164.2 127.245C164.271 127.173 164.368 127.133 164.469 127.133H195.652C195.753 127.133 195.849 127.173 195.921 127.245C195.992 127.316 196.032 127.413 196.032 127.514C196.032 127.614 195.992 127.711 195.921 127.782C195.849 127.854 195.753 127.894 195.652 127.894Z" fill="#3F3D56"/>
<path d="M195.652 133.598H164.469C164.368 133.598 164.271 133.558 164.2 133.487C164.128 133.415 164.088 133.319 164.088 133.218C164.088 133.117 164.128 133.02 164.2 132.949C164.271 132.878 164.368 132.837 164.469 132.837H195.652C195.753 132.837 195.849 132.878 195.921 132.949C195.992 133.02 196.032 133.117 196.032 133.218C196.032 133.319 195.992 133.415 195.921 133.487C195.849 133.558 195.753 133.598 195.652 133.598Z" fill="#3F3D56"/>
<path d="M195.652 139.302H164.469C164.368 139.302 164.271 139.262 164.2 139.191C164.128 139.12 164.088 139.023 164.088 138.922C164.088 138.821 164.128 138.724 164.2 138.653C164.271 138.582 164.368 138.542 164.469 138.542H195.652C195.753 138.542 195.849 138.582 195.921 138.653C195.992 138.724 196.032 138.821 196.032 138.922C196.032 139.023 195.992 139.12 195.921 139.191C195.849 139.262 195.753 139.302 195.652 139.302Z" fill="#3F3D56"/>
<path d="M195.652 145.006H164.469C164.368 145.006 164.271 144.966 164.2 144.895C164.128 144.824 164.088 144.727 164.088 144.626C164.088 144.525 164.128 144.429 164.2 144.357C164.271 144.286 164.368 144.246 164.469 144.246H195.652C195.753 144.246 195.849 144.286 195.921 144.357C195.992 144.429 196.032 144.525 196.032 144.626C196.032 144.727 195.992 144.824 195.921 144.895C195.849 144.966 195.753 145.006 195.652 145.006Z" fill="#3F3D56"/>
<path d="M195.652 150.711H164.469C164.368 150.711 164.271 150.671 164.2 150.599C164.128 150.528 164.088 150.431 164.088 150.33C164.088 150.23 164.128 150.133 164.2 150.062C164.271 149.99 164.368 149.95 164.469 149.95H195.652C195.753 149.95 195.849 149.99 195.921 150.062C195.992 150.133 196.032 150.23 196.032 150.33C196.032 150.431 195.992 150.528 195.921 150.599C195.849 150.671 195.753 150.711 195.652 150.711Z" fill="#3F3D56"/>
<path d="M253.905 98.6836C259.416 98.6836 263.883 94.2163 263.883 88.7055C263.883 83.1948 259.416 78.7274 253.905 78.7274C248.395 78.7274 243.927 83.1948 243.927 88.7055C243.927 94.2163 248.395 98.6836 253.905 98.6836Z" fill="#FFB8B8"/>
<path d="M224.169 235.716L219.424 234.204L223 215.18L230.003 217.412L224.169 235.716Z" fill="#FFB8B8"/>
<path d="M216.25 231.697L225.617 234.682L223.781 240.445L208.866 235.691L208.935 235.476C209.167 234.747 209.541 234.072 210.034 233.487C210.527 232.903 211.131 232.422 211.81 232.071C212.489 231.72 213.231 231.507 213.993 231.442C214.754 231.378 215.522 231.465 216.25 231.697Z" fill="#2F2E41"/>
<path d="M258.694 235.618H253.713L251.343 216.407H258.694V235.618Z" fill="#FFB8B8"/>
<path d="M249.929 234.195H259.761V240.242H244.107V240.016C244.107 239.252 244.258 238.495 244.551 237.788C244.843 237.082 245.272 236.44 245.813 235.9C246.353 235.359 246.995 234.93 247.701 234.638C248.408 234.345 249.165 234.195 249.929 234.195Z" fill="#2F2E41"/>
<path d="M258.548 229.383L256.867 229.132C251.768 228.373 251.463 228.327 250.654 227.972C250.24 227.79 250.211 225.046 250.459 209.621C250.642 198.299 250.868 184.207 250.428 176.642C250.41 176.344 250.292 176.06 250.093 175.837C249.894 175.614 249.625 175.464 249.331 175.412C249.036 175.361 248.733 175.409 248.469 175.551C248.206 175.693 247.998 175.919 247.879 176.193C244.085 184.954 237.721 204.558 233.509 217.531C232.044 222.044 230.887 225.608 230.155 227.745C230.014 228.149 229.727 228.486 229.35 228.689C228.974 228.893 228.535 228.949 228.119 228.847C224.653 227.98 224.885 227.612 219.949 226.335C219.522 226.226 219.153 225.956 218.921 225.582C218.688 225.208 218.609 224.758 218.701 224.327C219.594 220.116 235.933 151.845 237.184 145.355C237.226 145.133 237.312 144.922 237.436 144.733C237.561 144.544 237.722 144.382 237.909 144.256C238.097 144.129 238.308 144.042 238.529 143.997C238.751 143.953 238.979 143.953 239.201 143.997C242.88 144.738 245.118 145.525 248.753 146.285C252.676 147.106 256.733 147.954 260.689 148.746C261.083 148.825 261.436 149.042 261.685 149.357C262.664 150.593 264.116 151.287 265.653 152.022C266.689 152.517 264.341 152.473 265.243 153.187C268.898 156.08 263.643 214.826 260.467 228.094C260.365 228.509 260.112 228.872 259.757 229.11C259.402 229.349 258.971 229.446 258.548 229.383V229.383Z" fill="#2F2E41"/>
<path d="M255.54 162.801C255.427 162.285 255.428 161.751 255.543 161.235C255.659 160.72 255.886 160.237 256.208 159.818C256.531 159.4 256.941 159.058 257.41 158.816C257.879 158.574 258.396 158.437 258.923 158.416L266.988 149.313L271.996 155.363L262.722 162.139C262.698 163.027 262.35 163.877 261.742 164.526C261.135 165.174 260.31 165.578 259.425 165.659C258.54 165.741 257.655 165.495 256.939 164.968C256.223 164.441 255.726 163.67 255.54 162.801V162.801Z" fill="#FFB8B8"/>
<path d="M258.159 97.4367C257.577 94.9648 260.521 89.6461 259.939 87.1742C259.544 85.5002 255.608 86.6382 254.689 85.1842C253.771 83.7302 252.232 82.5523 250.512 82.533C248.536 82.5108 246.591 83.9771 244.718 83.3434C242.825 82.7026 242.22 80.1099 243.057 78.2948C243.894 76.4797 245.697 75.3231 247.478 74.4168C250.512 72.8735 254.044 71.7464 257.291 72.7675C259.254 73.3848 260.895 74.7223 262.483 76.0305C263.931 77.2229 265.403 78.4424 266.415 80.0215C268.398 83.115 268.278 87.2831 266.584 90.5435C264.89 93.8038 261.802 96.1964 258.401 97.5852" fill="#2F2E41"/>
<path d="M233.658 154.96C234.735 153.161 236.37 144.732 238.386 130.583C239.759 120.924 240.955 111.11 241.549 106.097C241.595 105.692 241.743 105.304 241.98 104.972C242.217 104.639 242.534 104.372 242.902 104.195C243.287 104.01 243.67 103.834 244.051 103.668C248.965 101.53 253.945 100.822 258.853 101.562C263.753 102.315 268.349 104.409 272.132 107.613L272.176 107.655L272.188 107.715C272.209 107.827 274.27 118.933 270.049 126.436C265.885 133.84 265.837 153.446 265.837 153.644V153.896L265.594 153.826C259.117 151.976 234.098 155.214 233.846 155.247L233.456 155.297L233.658 154.96Z" fill="#CCCCCC"/>
<path d="M260.236 156.465L272.959 139.501L266.398 125.442L266.874 108.768L272.253 107.774L272.31 107.803C274.923 109.331 276.949 111.691 278.063 114.505C279.258 117.492 281.736 127.656 283.605 135.656C284.093 137.715 284.044 139.864 283.463 141.899C282.882 143.934 281.789 145.785 280.288 147.276L264.68 162.884L260.236 156.465Z" fill="#CCCCCC"/>
<path d="M206.824 122.845C207.128 122.413 207.523 122.054 207.982 121.791C208.44 121.529 208.95 121.37 209.476 121.326C210.002 121.282 210.532 121.354 211.027 121.537C211.522 121.72 211.972 122.009 212.343 122.384L224.503 122.197L223.415 129.976L212.157 127.7C211.485 128.282 210.623 128.598 209.734 128.587C208.846 128.576 207.992 128.239 207.334 127.641C206.677 127.043 206.262 126.224 206.168 125.34C206.074 124.456 206.307 123.568 206.824 122.845Z" fill="#FFB8B8"/>
<path d="M212.928 129.649L214.668 122.037L235.773 119.985L241.559 106.07L241.729 105.659L244.003 103.698L244.051 103.668C248.965 101.53 253.945 100.822 258.853 101.562L259.025 101.589L259.014 101.762C258.904 103.543 258.447 105.285 257.669 106.891C255.485 111.419 242.053 130.669 241.917 130.863L241.857 130.949L212.928 129.649Z" fill="#CCCCCC"/>
</svg>
