<svg width="325" height="235" viewBox="0 0 325 235" fill="none" xmlns="http://www.w3.org/2000/svg">
<path opacity="0.1" d="M188.823 45.2524C167.988 44.5281 148.144 37.803 129.192 30.4437C110.24 23.0844 91.4751 14.9331 71.1388 11.0313C58.0589 8.52352 43.102 8.1694 32.5621 15.181C22.4213 21.9415 19.1441 33.5793 17.3799 44.3897C16.0567 52.5216 15.2777 61.0817 18.909 68.6953C21.4297 73.9814 25.9078 78.424 29.0047 83.4847C39.7765 101.101 32.1629 122.837 20.4929 140.025C15.0201 148.096 8.66525 155.8 4.43832 164.382C0.21139 172.965 -1.74272 182.813 1.95303 191.576C5.6198 200.268 14.3537 206.784 23.8152 211.371C43.028 220.707 65.666 223.357 87.7536 224.866C136.629 228.211 185.768 226.763 234.772 225.314C252.91 224.776 271.125 224.232 288.969 221.428C298.875 219.873 309.106 217.401 316.298 211.448C325.428 203.873 327.691 191.048 321.574 181.548C311.311 165.615 282.943 161.659 275.76 144.561C271.81 135.148 275.867 124.666 281.603 115.935C293.914 97.2118 314.546 80.7838 315.634 59.3819C316.381 44.6826 306.463 29.9608 291.126 23.0039C275.049 15.7154 252.758 16.6329 240.905 28.6988C228.678 41.1092 207.212 45.8963 188.823 45.2524Z" fill="#50E569"/>
<path opacity="0.1" d="M115.58 234.068C152.975 234.068 183.289 231.814 183.289 229.034C183.289 226.254 152.975 224 115.58 224C78.1861 224 47.8721 226.254 47.8721 229.034C47.8721 231.814 78.1861 234.068 115.58 234.068Z" fill="#50E569"/>
<path d="M221.518 50.8793H219.593C219.213 50.8793 218.906 51.1869 218.906 51.5664V77.3796C218.906 77.7591 219.213 78.0668 219.593 78.0668H221.518C221.897 78.0668 222.205 77.7591 222.205 77.3796V51.5664C222.205 51.1869 221.897 50.8793 221.518 50.8793Z" fill="#3F3D56"/>
<path d="M208.986 0H122.026C115.565 0 110.327 5.23815 110.327 11.6997V212.589C110.327 219.051 115.565 224.289 122.026 224.289H208.986C215.448 224.289 220.686 219.051 220.686 212.589V11.6997C220.686 5.23815 215.448 0 208.986 0Z" fill="#3F3D56"/>
<path d="M205.325 5.84207H192.666V7.36492C192.666 8.31284 192.479 9.25147 192.116 10.1272C191.754 11.0029 191.222 11.7985 190.551 12.4686C189.881 13.1387 189.085 13.6702 188.209 14.0326C187.333 14.395 186.394 14.5812 185.446 14.5807H145.186C144.238 14.5812 143.3 14.395 142.424 14.0326C141.548 13.6702 140.752 13.1387 140.081 12.4686C139.411 11.7985 138.879 11.0029 138.516 10.1272C138.153 9.25147 137.967 8.31284 137.967 7.36492V5.84207H126.114C123.789 5.84207 121.56 6.76549 119.916 8.4092C118.273 10.0529 117.349 12.2823 117.349 14.6068V209.697C117.349 212.022 118.273 214.251 119.916 215.895C121.56 217.539 123.789 218.462 126.114 218.462H205.325C207.65 218.462 209.879 217.539 211.523 215.895C213.167 214.251 214.09 212.022 214.09 209.697V14.6218C214.092 13.4696 213.867 12.3282 213.427 11.2631C212.988 10.198 212.342 9.22998 211.528 8.4145C210.714 7.59903 209.747 6.95209 208.683 6.51068C207.619 6.06927 206.478 5.84207 205.325 5.84207Z" fill="white"/>
<path d="M169.11 6.69816H156.022C155.38 6.69816 154.86 7.21808 154.86 7.85943V8.66452C154.86 9.30587 155.38 9.82579 156.022 9.82579H169.11C169.751 9.82579 170.271 9.30587 170.271 8.66452V7.85943C170.271 7.21808 169.751 6.69816 169.11 6.69816Z" fill="#E6E8EC"/>
<path d="M174.379 10.0382C175.36 10.0382 176.155 9.24305 176.155 8.26213C176.155 7.28121 175.36 6.48602 174.379 6.48602C173.398 6.48602 172.603 7.28121 172.603 8.26213C172.603 9.24305 173.398 10.0382 174.379 10.0382Z" fill="#E6E8EC"/>
<path d="M166.18 135.775C177.71 135.775 187.057 126.428 187.057 114.898C187.057 103.368 177.71 94.0213 166.18 94.0213C154.65 94.0213 145.303 103.368 145.303 114.898C145.303 126.428 154.65 135.775 166.18 135.775Z" fill="white"/>
<path d="M193.639 111.983C193.639 117.501 192.002 122.896 188.936 127.485C185.87 132.073 181.512 135.649 176.413 137.761C171.315 139.873 165.704 140.425 160.292 139.348C154.879 138.271 149.907 135.614 146.005 131.711C142.103 127.809 139.446 122.837 138.369 117.425C137.293 112.012 137.846 106.402 139.958 101.303C142.07 96.2048 145.646 91.8471 150.235 88.7813C154.824 85.7155 160.218 84.0792 165.737 84.0793C169.401 84.0795 173.03 84.8013 176.415 86.2036C179.8 87.606 182.876 89.6614 185.467 92.2525C188.058 94.8435 190.113 97.9196 191.515 101.305C192.917 104.69 193.639 108.319 193.639 111.983ZM162.512 126.752L183.209 106.054C183.377 105.887 183.51 105.689 183.601 105.47C183.691 105.252 183.738 105.018 183.738 104.781C183.738 104.544 183.691 104.31 183.601 104.092C183.51 103.873 183.377 103.675 183.209 103.508L180.663 100.98C180.496 100.812 180.298 100.679 180.08 100.589C179.861 100.498 179.628 100.451 179.391 100.451C179.155 100.451 178.921 100.498 178.703 100.589C178.485 100.679 178.286 100.812 178.12 100.98L161.238 117.861L153.356 109.96C153.018 109.624 152.56 109.435 152.083 109.435C151.606 109.435 151.148 109.624 150.809 109.96L148.263 112.522C147.926 112.86 147.737 113.318 147.737 113.795C147.737 114.273 147.926 114.73 148.263 115.069L159.965 126.767C160.133 126.935 160.331 127.068 160.549 127.158C160.768 127.249 161.002 127.296 161.239 127.296C161.475 127.296 161.71 127.249 161.928 127.158C162.147 127.068 162.345 126.935 162.512 126.767L162.512 126.752Z" fill="#50E569"/>
<path d="M113.781 44.2174H113.492C113.113 44.2174 112.805 44.5251 112.805 44.9046V51.576C112.805 51.9555 113.113 52.2632 113.492 52.2632H113.781C114.161 52.2632 114.468 51.9555 114.468 51.576V44.9046C114.468 44.5251 114.161 44.2174 113.781 44.2174Z" fill="#3F3D56"/>
<path d="M113.933 58.95H113.433C113.053 58.95 112.746 59.2576 112.746 59.6371V72.2659C112.746 72.6454 113.053 72.953 113.433 72.953H113.933C114.312 72.953 114.62 72.6454 114.62 72.2659V59.6371C114.62 59.2576 114.312 58.95 113.933 58.95Z" fill="#3F3D56"/>
<path d="M113.872 77.8529H113.463C113.083 77.8529 112.775 78.1605 112.775 78.54V91.2891C112.775 91.6686 113.083 91.9763 113.463 91.9763H113.872C114.252 91.9763 114.559 91.6686 114.559 91.2891V78.54C114.559 78.1605 114.252 77.8529 113.872 77.8529Z" fill="#3F3D56"/>
<path d="M90.6699 115.2C90.7176 115.246 90.779 115.275 90.8448 115.284C90.9106 115.292 90.9774 115.279 91.0352 115.247C90.9118 115.249 90.7888 115.233 90.6699 115.2Z" fill="url(#paint0_linear)"/>
<path d="M104.462 120.595L104.102 122.556L103.824 124.056L103.319 126.801L98.4187 130.231C98.4187 130.231 97.977 129.853 97.2484 129.257C95.2403 127.604 91.0199 124.237 87.9207 122.43C87.1236 121.922 86.2611 121.524 85.3569 121.248L104.462 120.595Z" fill="#FEB9B9"/>
<path d="M100.868 122.054C100.868 122.054 106.581 123.035 106.915 120.595C107.25 118.155 103.974 116.836 101.199 116.672C98.4232 116.508 81.7639 117.653 81.7639 117.653C81.7639 117.653 78.8253 121.572 89.4382 122.228L100.868 122.054Z" fill="#3F3D56"/>
<path d="M113.361 41.5432H83.4741V76.9827H113.361V41.5432Z" fill="#2F2E41"/>
<path opacity="0.1" d="M113.361 41.704H83.4741V77.1435H113.361V41.704Z" fill="black"/>
<path d="M48.4468 102.211C47.9547 102.335 47.3258 102.811 46.6263 103.499C43.6142 106.481 39.3001 113.48 39.3001 113.48C33.7845 106.91 39.8879 101.719 42.4895 99.9347C43.1221 99.5029 43.547 99.2653 43.547 99.2653L48.4468 102.211Z" fill="#FEB9B9"/>
<path d="M104.134 52.7283C104.134 52.7283 105.605 63.0165 110.667 65.4663C115.73 67.9161 104.134 72.4945 104.134 72.4945L88.2939 66.6108C88.2939 66.6108 97.2768 63.6701 95.4794 55.0139L104.134 52.7283Z" fill="#FEB9B9"/>
<path d="M87.1491 114.624L86.7908 116.579L86.4997 118.085L85.9944 120.829L81.0946 124.256C81.0946 124.256 80.6529 123.882 79.9243 123.286C77.9162 121.632 73.696 118.266 70.5921 116.458C69.7953 115.95 68.9328 115.552 68.0283 115.277L87.1491 114.624Z" fill="#FEB9B9"/>
<path d="M82.9106 117.035C82.9106 117.035 88.0379 117.071 88.3464 114.624C88.6549 112.177 85.5521 110.866 82.9106 110.702C80.2691 110.537 64.2195 111.758 64.2195 111.758C64.2195 111.758 61.9426 116.379 72.0379 117.034L82.9106 117.035Z" fill="#2F2E41"/>
<path d="M118.86 155.472C118.636 155.362 118.411 155.248 118.19 155.137L117.588 154.378L109.686 144.357V144.531C109.633 146.205 109.064 159.465 104.626 160.69C99.89 161.995 94.177 162.323 91.5727 153.504C88.9684 144.686 84.2099 125.415 79.3232 124.27L86.5924 118.31C86.5924 118.31 91.4053 123.939 93.3662 129.327C93.2927 128.993 89.9691 113.463 92.6968 110.716H116.545C116.545 110.716 120.226 121.201 122.75 126.396C124.714 130.428 127.663 139.963 129.561 146.416C131.441 152.788 124.837 158.414 118.86 155.472Z" fill="#3F3D56"/>
<path opacity="0.1" d="M118.181 113.643C114.499 115.822 98.3377 114.935 93.0798 114.581L91.6473 114.477C91.4934 114.477 91.6707 114.39 91.6707 114.39L91.818 112.907L95.7373 102.947L116.722 90.7778C116.297 92.0597 116.156 94.021 116.19 96.2667C116.287 103.482 118.181 113.643 118.181 113.643Z" fill="black"/>
<path d="M118.181 113.152C114.499 115.33 98.3372 114.443 93.0794 114.089L91.6468 113.988L91.4092 113.968L91.6702 113.901L92.962 113.567L95.7365 102.462L116.721 90.2962C116.296 91.5781 116.155 93.5394 116.189 95.7851C116.286 102.994 118.181 113.152 118.181 113.152Z" fill="#EFEFEF"/>
<path opacity="0.1" d="M116.176 95.7782C111.909 96.7621 102.518 99.6491 98.9099 106.622C96.5036 111.264 94.4788 113.255 93.0663 114.088L91.6338 113.988C91.6432 113.959 91.651 113.93 91.6572 113.901L92.949 113.566L95.7234 102.462L116.708 90.2962C116.288 91.5712 116.143 93.5325 116.176 95.7782Z" fill="black"/>
<path opacity="0.1" d="M43.5472 99.2725L48.447 102.211C47.9549 102.335 47.326 102.811 46.6265 103.5C46.2181 102.308 43.6558 100.645 42.4897 99.9353C43.122 99.5101 43.5472 99.2725 43.5472 99.2725Z" fill="black"/>
<path opacity="0.1" d="M90.7612 114.179C90.7074 114.207 90.6463 114.218 90.5862 114.209C90.5262 114.201 90.4703 114.174 90.4263 114.132C90.535 114.164 90.6479 114.18 90.7612 114.179Z" fill="black"/>
<path d="M101.849 64.8136C101.849 64.8136 97.4376 65.3022 94.3352 62.0359C94.3352 62.0359 81.2821 65.7943 76.8615 74.2851C72.4409 82.7758 42.3892 99.4363 42.3892 99.4363C42.3892 99.4363 47.617 102.375 47.1249 103.844L66.8878 92.4114C66.8878 92.4114 73.916 87.351 75.8674 86.2065C77.8187 85.0621 88.6087 78.0404 90.8946 97.1474C93.1805 116.254 90.8946 113.968 90.8946 113.968C90.8946 113.968 94.1612 115.113 98.8969 105.966C103.633 96.8191 118.328 94.6973 118.328 94.6973L119.145 85.0651C119.145 85.0651 122.06 78.6793 119.814 76.0288C119.134 75.244 118.682 74.2879 118.506 73.2642C118.134 70.8177 118.506 66.7413 123.707 63.3544C131.709 58.1266 134.811 53.883 134.811 53.883C134.811 53.883 134.975 50.7773 130.076 49.3078C125.176 47.8384 105.252 39.8364 105.252 39.8364L104.583 42.6142L120.303 53.7089C120.303 53.7089 112.465 60.0677 106.246 59.9138C106.246 59.9138 107.401 64.6495 101.849 64.8136Z" fill="#50E569"/>
<path opacity="0.1" d="M104.874 57.2062C104.488 55.8971 104.186 54.5646 103.971 53.2168L95.3156 55.5033C95.6972 57.1556 95.629 58.8799 95.1182 60.4968C96.8877 60.969 98.7572 60.9086 100.493 60.3233C102.228 59.738 103.752 58.6537 104.874 57.2062Z" fill="black"/>
<path d="M97.685 60.3225C102.825 60.3225 106.993 56.1553 106.993 51.0149C106.993 45.8745 102.825 41.7073 97.685 41.7073C92.5446 41.7073 88.3774 45.8745 88.3774 51.0149C88.3774 56.1553 92.5446 60.3225 97.685 60.3225Z" fill="#FEB9B9"/>
<path opacity="0.1" d="M107.809 125.973C107.809 125.973 113.197 136.589 111.564 139.852L107.809 125.973Z" fill="black"/>
<path d="M102.634 29.5182C105.218 29.8129 107.671 30.9204 110.215 31.5263C110.851 31.7239 111.528 31.7492 112.176 31.5998C113.164 31.2952 113.967 30.2612 114.991 30.2912C115.621 30.3113 116.179 30.7398 116.698 31.1512C117.53 31.7879 118.313 32.486 119.04 33.2397C120.794 35.1439 121.882 37.7077 123.482 39.7794C125.081 41.8511 127.363 44.2804 129.635 43.3304C128.089 49.3546 123.267 53.1232 117.789 53.4983C115.603 53.6483 113.364 53.1937 111.249 53.8329C110.722 54.0489 110.166 54.1842 109.599 54.2344C108.38 54.2344 107.4 53.1166 106.64 52.0289C104.859 49.472 103.451 46.5703 101.446 44.2375C100.776 43.4646 100.003 42.7315 99.0663 42.591C98.1292 42.4506 97.2692 42.8989 96.4359 43.3307C95.0604 44.0437 93.6548 44.7798 92.5872 46.0082C91.5195 47.2367 90.8468 49.0504 91.2885 50.6938C91.5261 51.5842 92.0687 52.3874 92.0783 53.3177C92.0984 54.8036 90.7865 55.8881 90.5287 57.3338C90.4705 57.9411 90.4493 58.5514 90.4651 59.1612C90.3514 61.1417 89.0548 62.7621 87.7045 64.0107C87.1757 64.4926 86.5942 65.0147 86.4394 65.761C86.3355 66.2729 86.4394 66.8112 86.3724 67.3306C86.175 68.6158 84.8931 69.2685 83.7585 69.4359C82.4329 69.6322 81.079 69.4717 79.836 68.9708C81.4225 68.2206 82.3998 66.0859 82.0316 64.1748C81.5263 61.524 78.8623 59.6197 79.0909 56.9224C79.2162 56.0948 79.4644 55.2905 79.8273 54.5362C80.4078 53.0786 80.8298 51.5627 81.0858 50.0148C81.2865 48.8199 81.3838 47.5515 81.0087 46.4103C80.6741 45.3727 79.9746 44.5463 79.382 43.6692C78.5789 42.476 77.9449 41.1774 77.4979 39.8103C77.3359 39.4048 77.2741 38.9662 77.3178 38.5317C77.452 38.0186 77.7378 37.5578 78.1379 37.2096C79.5939 35.6792 81.15 34.0904 83.1014 33.652C84.0324 33.4974 84.9793 33.4614 85.9193 33.5448C87.5543 33.5961 89.1908 33.5267 90.8156 33.3372C92.1542 33.18 94.4164 33.2001 95.5513 32.3332C96.6087 31.523 97.2047 30.5057 98.5064 29.9905C99.8247 29.5019 101.242 29.3399 102.636 29.5185L102.634 29.5182Z" fill="#2F2E41"/>
<path d="M275.58 223.732C283.037 223.732 289.081 222.709 289.081 221.448C289.081 220.187 283.037 219.165 275.58 219.165C268.123 219.165 262.078 220.187 262.078 221.448C262.078 222.709 268.123 223.732 275.58 223.732Z" fill="#50E569"/>
<path d="M285.646 15.1607C285.646 15.1607 257.373 13.4548 260.704 33.2661C260.704 33.2661 260.033 36.7682 263.216 38.3565C263.216 38.3565 263.266 36.8891 266.117 37.3893C267.132 37.5575 268.163 37.6071 269.19 37.537C270.574 37.4459 271.892 36.9073 272.943 36.0024C272.943 36.0024 280.891 32.7184 283.981 19.7305C283.981 19.7305 286.267 16.8966 286.176 16.1678L281.405 18.2059C281.405 18.2059 283.037 21.6477 281.741 24.5073C281.741 24.5073 281.587 18.3289 280.67 18.4633C280.485 18.4903 278.192 19.6552 278.192 19.6552C278.192 19.6552 280.996 25.6488 278.88 30.0076C278.88 30.0076 279.683 22.6205 277.315 20.0885L273.958 22.0494C273.958 22.0494 277.235 28.2414 275.012 33.2949C275.012 33.2949 275.582 25.545 273.249 22.5263L270.207 24.9001C270.207 24.9001 273.286 31.0011 271.409 35.1925C271.409 35.1925 271.164 26.1733 269.549 25.4918C269.549 25.4918 266.886 27.8423 266.48 28.8025C266.48 28.8025 268.588 33.2349 267.279 35.5718C267.279 35.5718 266.476 29.5614 265.818 29.5278C265.818 29.5278 263.165 33.51 262.89 36.2434C262.89 36.2434 263.004 32.1837 265.176 29.1518C265.176 29.1518 262.611 29.5917 261.113 31.2523C261.113 31.2523 261.526 28.4385 265.831 28.1901C265.831 28.1901 268.024 25.1681 268.608 24.9868C268.608 24.9868 264.33 24.6267 261.735 25.7793C261.735 25.7793 264.018 23.1234 269.394 24.3321L272.399 21.8775C272.399 21.8775 266.765 21.1084 264.374 21.9582C264.374 21.9582 267.124 19.6078 273.208 21.3203L276.479 19.3659C276.479 19.3659 271.674 18.3316 268.813 18.6944C268.813 18.6944 271.835 17.0659 277.439 18.8321L279.79 17.7818C279.79 17.7818 276.271 17.0902 275.24 16.9795C274.209 16.8687 274.155 16.5867 274.155 16.5867C276.385 16.215 278.674 16.4696 280.767 17.3221C280.767 17.3221 285.73 15.4731 285.646 15.1607Z" fill="#50E569"/>
<path d="M281.164 217.715C281.78 217.212 282.228 216.534 282.45 215.77C282.618 215.002 282.289 214.09 281.55 213.793C280.724 213.477 279.84 214.051 279.173 214.629C278.506 215.206 277.736 215.868 276.859 215.743C277.31 215.336 277.648 214.818 277.84 214.241C278.031 213.663 278.07 213.046 277.952 212.45C277.912 212.202 277.807 211.97 277.646 211.778C277.189 211.288 276.356 211.496 275.809 211.885C274.063 213.111 273.577 215.486 273.566 217.617C273.388 216.848 273.539 216.045 273.533 215.266C273.526 214.487 273.315 213.586 272.646 213.175C272.234 212.953 271.771 212.844 271.303 212.859C270.518 212.829 269.645 212.909 269.107 213.483C268.436 214.195 268.617 215.391 269.195 216.17C269.772 216.949 270.655 217.449 271.468 217.989C272.118 218.377 272.671 218.906 273.088 219.538C273.138 219.626 273.179 219.719 273.208 219.816H278.114C279.22 219.256 280.246 218.55 281.163 217.716L281.164 217.715Z" fill="#50E569"/>
<path d="M92.0123 224.739C96.9333 224.739 100.923 224.065 100.923 223.232C100.923 222.4 96.9333 221.725 92.0123 221.725C87.0913 221.725 83.1021 222.4 83.1021 223.232C83.1021 224.065 87.0913 224.739 92.0123 224.739Z" fill="#EFEFEF"/>
<path d="M95.697 220.768C96.103 220.436 96.3989 219.989 96.5456 219.485C96.6102 219.232 96.5865 218.965 96.4785 218.728C96.3705 218.49 96.1846 218.297 95.9517 218.18C95.4065 217.971 94.8237 218.35 94.3829 218.732C93.9421 219.113 93.4344 219.549 92.8562 219.467C93.1538 219.198 93.3766 218.856 93.5028 218.475C93.629 218.094 93.6544 217.687 93.5764 217.294C93.5504 217.13 93.4807 216.977 93.3747 216.85C93.0746 216.527 92.5237 216.664 92.1627 216.921C91.0105 217.731 90.6891 219.297 90.6825 220.704C90.5652 220.196 90.6648 219.667 90.6603 219.153C90.6558 218.639 90.5163 218.045 90.0752 217.773C89.8031 217.627 89.4974 217.555 89.1887 217.564C88.6702 217.544 88.0941 217.598 87.7394 217.977C87.2962 218.446 87.4159 219.235 87.797 219.749C88.1781 220.263 88.7608 220.594 89.2974 220.95C89.7262 221.205 90.0921 221.554 90.3677 221.97C90.4009 222.028 90.4277 222.09 90.4475 222.154H93.685C94.415 221.784 95.0917 221.317 95.697 220.767V220.768Z" fill="#EFEFEF"/>
<path d="M41.6202 224.739C46.5413 224.739 50.5305 224.065 50.5305 223.232C50.5305 222.4 46.5413 221.725 41.6202 221.725C36.6992 221.725 32.71 222.4 32.71 223.232C32.71 224.065 36.6992 224.739 41.6202 224.739Z" fill="#EFEFEF"/>
<path d="M45.3054 220.768C45.7114 220.436 46.0073 219.989 46.154 219.485C46.2186 219.232 46.1949 218.965 46.0869 218.728C45.9789 218.49 45.793 218.297 45.5601 218.18C45.0149 217.971 44.4321 218.35 43.9913 218.732C43.5505 219.113 43.0428 219.549 42.4646 219.467C42.7622 219.198 42.985 218.856 43.1112 218.475C43.2374 218.094 43.2628 217.687 43.1848 217.294C43.1588 217.13 43.0891 216.977 42.9831 216.85C42.683 216.527 42.1321 216.664 41.7711 216.921C40.6189 217.731 40.2975 219.297 40.2909 220.704C40.1736 220.196 40.2732 219.667 40.2687 219.153C40.2642 218.639 40.1247 218.045 39.6835 217.773C39.4115 217.627 39.1058 217.555 38.7971 217.564C38.2786 217.544 37.7025 217.598 37.3478 217.977C36.9046 218.446 37.0243 219.235 37.4054 219.749C37.7865 220.263 38.3692 220.594 38.9058 220.95C39.3346 221.205 39.7005 221.554 39.9761 221.97C40.0093 222.028 40.0361 222.09 40.0559 222.154H43.2934C44.0234 221.784 44.7001 221.317 45.3054 220.767V220.768Z" fill="#EFEFEF"/>
<path d="M246.908 4.67239C246.908 4.67239 234.148 3.90331 235.639 12.8553C235.639 12.8553 235.339 14.437 236.774 15.1553C236.774 15.1553 236.797 14.4838 238.087 14.7154C238.545 14.7925 239.01 14.8151 239.473 14.7827C240.1 14.7412 240.695 14.4959 241.169 14.0841C241.169 14.0841 244.762 12.5999 246.159 6.73058C246.159 6.73058 247.19 5.45138 247.149 5.1222L244.993 6.04221C244.993 6.04221 245.729 7.59688 245.151 8.88958C245.151 8.88958 245.081 6.09893 244.668 6.16314C244.584 6.16314 243.546 6.70327 243.546 6.70327C243.546 6.70327 244.815 9.4129 243.858 11.3808C243.858 11.3808 244.221 8.04308 243.15 6.89801L241.632 7.79822C241.632 7.79822 243.113 10.5952 242.109 12.8787C242.109 12.8787 242.368 9.37659 241.313 8.01337L239.94 9.08792C239.94 9.08792 241.33 11.8447 240.484 13.739C240.484 13.739 240.37 9.66256 239.641 9.35379C239.641 9.35379 238.439 10.4148 238.254 10.8514C238.254 10.8514 239.208 12.8661 238.617 13.9103C238.617 13.9103 238.254 11.1938 237.945 11.1797C237.945 11.1797 236.746 12.9801 236.622 14.2017C236.682 13.0621 237.039 11.958 237.657 10.9985C236.965 11.1295 236.326 11.4598 235.82 11.9488C235.82 11.9488 236.008 10.6762 237.952 10.5655C237.952 10.5655 238.959 9.19895 239.208 9.11493C239.208 9.11493 237.274 8.95379 236.102 9.47502C236.102 9.47502 237.133 8.27623 239.561 8.82026L240.904 7.7121C240.904 7.7121 238.356 7.37302 237.276 7.74691C237.276 7.74691 238.518 6.68586 241.268 7.45824L242.746 6.57514C242.746 6.57514 240.573 6.10853 239.281 6.27507C239.281 6.27507 240.647 5.53959 243.179 6.33508L244.237 5.86157C244.237 5.86157 242.646 5.5492 242.178 5.49878C241.71 5.44837 241.688 5.32084 241.688 5.32084C242.696 5.15316 243.731 5.26943 244.676 5.65662C244.676 5.65662 246.947 4.81222 246.908 4.67239Z" fill="#3F3D56"/>
<path d="M50.14 141.335C50.14 141.335 37.3804 140.566 38.8711 149.518C38.8711 149.518 38.5711 151.1 40.006 151.818C40.006 151.818 40.0294 151.147 41.3188 151.378C41.7767 151.455 42.2422 151.478 42.7054 151.446C43.3318 151.404 43.9273 151.159 44.4011 150.747C44.4011 150.747 47.9939 149.263 49.3907 143.394C49.3907 143.394 50.4214 142.114 50.3809 141.785L48.2252 142.705C48.2252 142.705 48.9607 144.26 48.3831 145.553C48.3831 145.553 48.3125 142.762 47.8996 142.826C47.8156 142.826 46.778 143.366 46.778 143.366C46.778 143.366 48.0473 146.076 47.0904 148.044C47.0904 148.044 47.4528 144.706 46.3819 143.561L44.8641 144.461C44.8641 144.461 46.345 147.258 45.3409 149.542C45.3409 149.542 45.5996 146.04 44.5452 144.676L43.1717 145.751C43.1717 145.751 44.562 148.508 43.7158 150.402C43.7158 150.402 43.6018 146.326 42.8729 146.017C42.8729 146.017 41.6708 147.078 41.486 147.514C41.486 147.514 42.4396 149.529 41.8487 150.573C41.8487 150.573 41.486 147.857 41.1772 147.843C41.1772 147.843 39.9784 149.643 39.8542 150.865C39.9142 149.725 40.2707 148.621 40.8885 147.661C40.1967 147.792 39.5584 148.123 39.0518 148.612C39.0518 148.612 39.2399 147.339 41.1841 147.228C41.1841 147.228 42.1914 145.862 42.4399 145.778C42.4399 145.778 40.5059 145.617 39.3339 146.138C39.3339 146.138 40.3646 144.939 42.7925 145.483L44.1356 144.375C44.1356 144.375 41.588 144.036 40.5077 144.41C40.5077 144.41 41.75 143.349 44.5002 144.121L45.9777 143.238C45.9777 143.238 43.8052 142.772 42.5125 142.938C42.5125 142.938 43.879 142.203 46.411 142.998L47.4687 142.525C47.4687 142.525 45.8784 142.212 45.4103 142.162C44.9422 142.111 44.9199 141.984 44.9199 141.984C45.9279 141.816 46.9627 141.932 47.9084 142.32C47.9084 142.32 50.1793 141.475 50.14 141.335Z" fill="#3F3D56"/>
<defs>
<linearGradient id="paint0_linear" x1="90.8544" y1="115.287" x2="90.8544" y2="115.2" gradientUnits="userSpaceOnUse">
<stop stop-color="#808080" stop-opacity="0.251"/>
<stop offset="0.54" stop-color="#808080" stop-opacity="0.122"/>
<stop offset="1" stop-color="#808080" stop-opacity="0.102"/>
</linearGradient>
</defs>
</svg>
