<svg width="325" height="254" viewBox="0 0 325 254" fill="none" xmlns="http://www.w3.org/2000/svg">
<path opacity="0.1" d="M222.922 253.281C260.805 253.281 291.515 250.998 291.515 248.182C291.515 245.365 260.805 243.082 222.922 243.082C185.039 243.082 154.329 245.365 154.329 248.182C154.329 250.998 185.039 253.281 222.922 253.281Z" fill="#50E569"/>
<path opacity="0.1" d="M188.823 65.1135C167.988 64.3892 148.144 57.6641 129.192 50.3048C110.24 42.9455 91.4751 34.7943 71.1388 30.8925C58.0589 28.3846 43.102 28.0305 32.5621 35.0421C22.4213 41.8027 19.1441 53.4404 17.3799 64.2508C16.0567 72.3827 15.2777 80.9428 18.909 88.5564C21.4297 93.8425 25.9078 98.2851 29.0047 103.346C39.7765 120.962 32.1629 142.698 20.4929 159.886C15.0201 167.957 8.66525 175.661 4.43832 184.243C0.21139 192.826 -1.74272 202.674 1.95303 211.437C5.6198 220.129 14.3537 226.645 23.8152 231.232C43.028 240.568 65.666 243.218 87.7536 244.728C136.629 248.072 185.768 246.624 234.772 245.175C252.91 244.637 271.125 244.093 288.969 241.289C298.875 239.734 309.106 237.262 316.298 231.31C325.428 223.735 327.691 210.909 321.574 201.409C311.311 185.476 282.943 181.52 275.76 164.422C271.81 155.009 275.867 144.527 281.603 135.796C293.914 117.073 314.546 100.645 315.634 79.243C316.381 64.5437 306.463 49.8219 291.126 42.865C275.049 35.5765 252.758 36.494 240.905 48.5599C228.678 60.9703 207.212 65.7574 188.823 65.1135Z" fill="#50E569"/>
<path d="M178.962 204.75H74.5383C72.8711 204.748 71.2728 204.084 70.0939 202.904C68.915 201.724 68.2519 200.124 68.25 198.455V123.295C68.2519 121.626 68.915 120.026 70.0939 118.846C71.2727 117.666 72.8711 117.002 74.5383 117H178.962C180.629 117.002 182.227 117.666 183.406 118.846C184.585 120.026 185.248 121.626 185.25 123.295V198.455C185.248 200.124 184.585 201.724 183.406 202.904C182.227 204.084 180.629 204.748 178.962 204.75Z" fill="#3F3D56"/>
<path d="M178.962 107.25H74.5383C72.8711 107.248 71.2727 106.584 70.0939 105.404C68.915 104.224 68.2519 102.624 68.25 100.955V25.7951C68.2519 24.1261 68.915 22.526 70.0939 21.3459C71.2727 20.1657 72.8711 19.5019 74.5383 19.5H178.962C180.629 19.5019 182.227 20.1657 183.406 21.3459C184.585 22.526 185.248 24.1261 185.25 25.7951V100.955C185.248 102.624 184.585 104.224 183.406 105.404C182.227 106.584 180.629 107.248 178.962 107.25Z" fill="#3F3D56"/>
<path d="M164.559 144.083H100.859C100.56 144.083 100.264 144.139 99.9879 144.248C99.7119 144.357 99.4611 144.517 99.2498 144.718C99.0386 144.919 98.871 145.158 98.7567 145.421C98.6424 145.684 98.5835 145.965 98.5835 146.25C98.5835 146.535 98.6424 146.816 98.7567 147.079C98.871 147.342 99.0386 147.581 99.2498 147.782C99.4611 147.983 99.7119 148.143 99.9879 148.252C100.264 148.361 100.56 148.417 100.859 148.417H164.559C165.162 148.417 165.741 148.188 166.167 147.782C166.594 147.376 166.833 146.825 166.833 146.25C166.833 145.675 166.594 145.124 166.167 144.718C165.741 144.312 165.162 144.083 164.559 144.083Z" fill="#E6E6E6"/>
<path d="M100.859 158.167C100.56 158.167 100.264 158.223 99.9879 158.332C99.7119 158.44 99.4611 158.6 99.2498 158.801C99.0386 159.002 98.871 159.241 98.7567 159.504C98.6424 159.767 98.5835 160.049 98.5835 160.333C98.5835 160.618 98.6424 160.9 98.7567 161.162C98.871 161.425 99.0386 161.664 99.2498 161.865C99.4611 162.067 99.7119 162.226 99.9879 162.335C100.264 162.444 100.56 162.5 100.859 162.5H164.559C165.162 162.5 165.741 162.272 166.167 161.865C166.594 161.459 166.833 160.908 166.833 160.333C166.833 159.759 166.594 159.208 166.167 158.801C165.741 158.395 165.162 158.167 164.559 158.167H100.859Z" fill="#E6E6E6"/>
<path d="M100.859 172.25C100.255 172.25 99.6765 172.478 99.2498 172.885C98.8232 173.291 98.5835 173.842 98.5835 174.417C98.5835 174.991 98.8232 175.542 99.2498 175.949C99.6765 176.355 100.255 176.583 100.859 176.583H164.559C165.162 176.583 165.741 176.355 166.167 175.949C166.594 175.542 166.833 174.991 166.833 174.417C166.833 173.842 166.594 173.291 166.167 172.885C165.741 172.478 165.162 172.25 164.559 172.25H100.859Z" fill="#E6E6E6"/>
<path d="M89.3748 149.5C90.8706 149.5 92.0832 148.287 92.0832 146.792C92.0832 145.296 90.8706 144.083 89.3748 144.083C87.8791 144.083 86.6665 145.296 86.6665 146.792C86.6665 148.287 87.8791 149.5 89.3748 149.5Z" fill="#50E569"/>
<path d="M89.3748 163.583C90.8706 163.583 92.0832 162.371 92.0832 160.875C92.0832 159.379 90.8706 158.167 89.3748 158.167C87.8791 158.167 86.6665 159.379 86.6665 160.875C86.6665 162.371 87.8791 163.583 89.3748 163.583Z" fill="#E6E6E6"/>
<path d="M89.3748 177.667C90.8706 177.667 92.0832 176.454 92.0832 174.958C92.0832 173.463 90.8706 172.25 89.3748 172.25C87.8791 172.25 86.6665 173.463 86.6665 174.958C86.6665 176.454 87.8791 177.667 89.3748 177.667Z" fill="#E6E6E6"/>
<path d="M138.667 146.25C138.667 146.534 138.609 146.816 138.496 147.079C138.383 147.342 138.218 147.581 138.009 147.782C137.8 147.983 137.553 148.143 137.28 148.252C137.008 148.36 136.716 148.416 136.421 148.416H100.91C100.356 148.424 99.8165 148.238 99.3925 147.893C98.9685 147.548 98.688 147.067 98.6029 146.538C98.561 146.232 98.5872 145.921 98.6799 145.625C98.7726 145.33 98.9295 145.057 99.1402 144.824C99.351 144.592 99.6106 144.406 99.9019 144.278C100.193 144.15 100.509 144.084 100.829 144.083H136.421C137.016 144.083 137.588 144.312 138.009 144.718C138.43 145.124 138.667 145.675 138.667 146.25V146.25Z" fill="#50E569"/>
<path d="M84.5988 60.6667C83.998 60.6667 83.4218 60.8949 82.997 61.3013C82.5722 61.7076 82.3335 62.2587 82.3335 62.8333C82.3335 63.408 82.5722 63.9591 82.997 64.3654C83.4218 64.7717 83.998 65 84.5988 65H169.985C170.586 65 171.162 64.7717 171.587 64.3654C172.011 63.9591 172.25 63.408 172.25 62.8333C172.25 62.2587 172.011 61.7076 171.587 61.3013C171.162 60.8949 170.586 60.6667 169.985 60.6667H84.5988Z" fill="#E6E6E6"/>
<path d="M84.5988 74.75C83.998 74.75 83.4218 74.9783 82.997 75.3846C82.5722 75.7909 82.3335 76.342 82.3335 76.9167C82.3335 77.4913 82.5722 78.0424 82.997 78.4487C83.4218 78.8551 83.998 79.0833 84.5988 79.0833H169.985C170.586 79.0833 171.162 78.8551 171.587 78.4487C172.011 78.0424 172.25 77.4913 172.25 76.9167C172.25 76.342 172.011 75.7909 171.587 75.3846C171.162 74.9783 170.586 74.75 169.985 74.75H84.5988Z" fill="#E6E6E6"/>
<path d="M122.597 88.8333C121.975 88.8333 121.378 89.1187 120.937 89.6266C120.497 90.1345 120.25 90.8234 120.25 91.5417C120.25 92.26 120.497 92.9488 120.937 93.4568C121.378 93.9647 121.975 94.25 122.597 94.25H131.986C132.609 94.25 133.206 93.9647 133.646 93.4568C134.086 92.9488 134.333 92.26 134.333 91.5417C134.333 90.8234 134.086 90.1345 133.646 89.6266C133.206 89.1187 132.609 88.8333 131.986 88.8333H122.597Z" fill="#50E569"/>
<path d="M115.51 32.5C115.331 32.5002 115.159 32.5711 115.032 32.6972C114.905 32.8233 114.834 32.9942 114.833 33.1725V50.2442C114.834 50.4225 114.905 50.5934 115.032 50.7195C115.159 50.8456 115.331 50.9165 115.51 50.9167H139.074C139.253 50.9165 139.425 50.8456 139.552 50.7195C139.679 50.5934 139.75 50.4225 139.75 50.2442V33.1725C139.75 32.9942 139.679 32.8232 139.552 32.6972C139.425 32.5711 139.253 32.5002 139.074 32.5L115.51 32.5Z" fill="#50E569"/>
<path d="M127.292 43.3333C129.386 43.3333 131.083 41.3932 131.083 39C131.083 36.6068 129.386 34.6667 127.292 34.6667C125.198 34.6667 123.5 36.6068 123.5 39C123.5 41.3932 125.198 43.3333 127.292 43.3333Z" fill="white"/>
<path d="M133.25 49.2239C133.251 49.8125 133.103 50.3928 132.817 50.9167H120.684C120.375 50.3489 120.227 49.7163 120.253 49.0793C120.279 48.4423 120.48 47.8223 120.835 47.2787C121.19 46.7351 121.688 46.286 122.281 45.9746C122.874 45.6632 123.543 45.4998 124.223 45.5H129.278C130.331 45.4994 131.341 45.891 132.086 46.5886C132.831 47.2862 133.249 48.2326 133.25 49.2197V49.2239Z" fill="white"/>
<path d="M127.292 43.3333C129.386 43.3333 131.083 41.3932 131.083 39C131.083 36.6068 129.386 34.6667 127.292 34.6667C125.198 34.6667 123.5 36.6068 123.5 39C123.5 41.3932 125.198 43.3333 127.292 43.3333Z" fill="white"/>
<path d="M133.25 49.2239C133.251 49.8125 133.103 50.3928 132.817 50.9167H120.684C120.375 50.3489 120.227 49.7163 120.253 49.0793C120.279 48.4423 120.48 47.8223 120.835 47.2787C121.19 46.7351 121.688 46.286 122.281 45.9746C122.874 45.6632 123.543 45.4998 124.223 45.5H129.278C130.331 45.4994 131.341 45.891 132.086 46.5886C132.831 47.2862 133.249 48.2326 133.25 49.2197V49.2239Z" fill="white"/>
<path d="M126.208 9.75C128.901 9.75 131.083 7.56739 131.083 4.875C131.083 2.18261 128.901 0 126.208 0C123.516 0 121.333 2.18261 121.333 4.875C121.333 7.56739 123.516 9.75 126.208 9.75Z" fill="#E6E6E6"/>
<path d="M126.208 7.58333C127.704 7.58333 128.917 6.37077 128.917 4.875C128.917 3.37923 127.704 2.16667 126.208 2.16667C124.713 2.16667 123.5 3.37923 123.5 4.875C123.5 6.37077 124.713 7.58333 126.208 7.58333Z" fill="#50E569"/>
<path d="M220.998 240.5L215.126 240.5L212.333 219.917L221 219.918L220.998 240.5Z" fill="#FFB8B8"/>
<path d="M211.447 239.417H222.083V245.917H204.75C204.75 245.063 204.923 244.218 205.26 243.429C205.596 242.641 206.09 241.924 206.711 241.32C207.333 240.717 208.072 240.238 208.884 239.911C209.697 239.585 210.568 239.417 211.447 239.417Z" fill="#2F2E41"/>
<path d="M250.248 240.5L244.376 240.5L241.583 219.917L250.25 219.918L250.248 240.5Z" fill="#FFB8B8"/>
<path d="M240.697 239.417H251.333V245.917H234C234 245.063 234.173 244.218 234.51 243.429C234.846 242.641 235.34 241.924 235.961 241.32C236.583 240.717 237.322 240.238 238.134 239.911C238.947 239.585 239.818 239.417 240.697 239.417Z" fill="#2F2E41"/>
<path d="M234 89.9167C240.582 89.9167 245.917 84.8239 245.917 78.5417C245.917 72.2594 240.582 67.1667 234 67.1667C227.419 67.1667 222.083 72.2594 222.083 78.5417C222.083 84.8239 227.419 89.9167 234 89.9167Z" fill="#FFB8B8"/>
<path d="M193.956 155.366C194.04 154.733 194.267 154.125 194.621 153.585C194.976 153.045 195.45 152.586 196.01 152.241C196.57 151.896 197.201 151.672 197.861 151.586C198.52 151.501 199.192 151.555 199.827 151.744L206.491 144.083L212.333 146.832L202.764 157.524C202.361 158.526 201.588 159.352 200.592 159.845C199.596 160.337 198.447 160.463 197.361 160.197C196.275 159.931 195.329 159.292 194.702 158.402C194.074 157.512 193.809 156.432 193.956 155.366Z" fill="#FFB8B8"/>
<path d="M250.672 163.168C250.397 162.582 250.253 161.942 250.25 161.294C250.247 160.645 250.386 160.005 250.657 159.416C250.928 158.828 251.324 158.306 251.817 157.888C252.311 157.47 252.889 157.165 253.512 156.996L254.81 146.947L261.083 146.25L259.052 160.415C259.266 161.485 259.082 162.596 258.534 163.539C257.986 164.481 257.113 165.19 256.08 165.529C255.047 165.868 253.926 165.815 252.929 165.38C251.933 164.945 251.129 164.158 250.672 163.168L250.672 163.168Z" fill="#FFB8B8"/>
<path d="M243.876 100.825C244.496 100.018 245.314 99.3911 246.249 99.0076C247.184 98.6241 248.202 98.4975 249.201 98.6405C250.199 98.7835 251.143 99.191 251.936 99.8221C252.73 100.453 253.345 101.285 253.72 102.235L263.271 126.406C264.247 128.876 264.558 131.564 264.173 134.197L261.062 155.442C261.022 155.716 260.924 155.978 260.774 156.21C260.625 156.442 260.428 156.639 260.197 156.787C259.966 156.934 259.706 157.03 259.435 157.066C259.164 157.103 258.889 157.08 258.628 156.999L254.529 155.722C254.105 155.59 253.739 155.311 253.497 154.934C253.254 154.557 253.15 154.106 253.201 153.658C254.648 141.151 252.736 128.479 247.668 116.983L243.166 106.77C242.741 105.807 242.583 104.745 242.708 103.697C242.833 102.65 243.237 101.657 243.876 100.825Z" fill="#50E569"/>
<path d="M237.39 89.9138C239.166 89.9518 240.93 89.6167 242.566 88.9305C244.201 88.2443 245.672 87.2225 246.882 85.9323C248.091 84.6421 249.011 83.1127 249.582 81.4446C250.153 79.7764 250.362 78.0073 250.194 76.2536C250.027 74.4998 249.487 72.801 248.61 71.2689C247.734 69.7368 246.54 68.406 245.108 67.364C243.676 66.322 242.038 65.5924 240.301 65.2232C238.564 64.8539 236.769 64.8533 235.032 65.2214C232.437 63.6589 229.421 62.6075 226.397 62.8749C223.374 63.1423 220.384 64.9226 219.253 67.7166C218.123 70.5106 219.337 74.1936 222.149 75.3291C223.951 76.057 225.986 75.704 227.909 75.4105C229.833 75.1169 231.931 74.9253 233.605 75.9096C235.279 76.894 236.031 79.5333 234.532 80.7639C233.737 81.4421 233.17 82.3444 232.905 83.3505C232.64 84.3567 232.691 85.4189 233.05 86.3957C233.804 88.3284 235.86 89.881 237.39 89.9138Z" fill="#2F2E41"/>
<path d="M251.421 154.587L253.499 234.19C253.506 234.455 253.459 234.719 253.36 234.965C253.261 235.211 253.113 235.434 252.924 235.619C252.736 235.805 252.512 235.949 252.266 236.043C252.02 236.136 251.757 236.178 251.494 236.164L244.647 235.812C244.21 235.789 243.794 235.616 243.469 235.321C243.143 235.026 242.928 234.627 242.859 234.191L234.715 182.488C234.68 182.266 234.57 182.064 234.403 181.916C234.237 181.768 234.024 181.683 233.802 181.676C233.58 181.669 233.363 181.741 233.187 181.878C233.012 182.015 232.89 182.21 232.841 182.429L221.817 232.21C221.758 232.476 221.643 232.726 221.481 232.944C221.319 233.162 221.113 233.343 220.877 233.475C220.64 233.607 220.379 233.687 220.109 233.709C219.84 233.731 219.569 233.695 219.315 233.604L212.519 233.185C212.126 233.044 211.789 232.777 211.561 232.425C211.333 232.072 211.225 231.654 211.255 231.234L217.187 153.833L251.421 154.587Z" fill="#2F2E41"/>
<path d="M254.483 117.254C255.626 105.133 246.863 94.1694 234.919 93.307C229.773 92.9354 221.784 92.8025 219.15 99.6619C211.216 120.325 225.105 119.823 220.32 137.726C215.535 155.629 211.308 156.655 217.874 157.947C224.44 159.24 253.964 166.871 252.752 154.271C252.007 146.525 253.343 129.344 254.483 117.254Z" fill="#50E569"/>
<path d="M220.749 97.8881C221.694 97.5226 222.718 97.4127 223.718 97.5693C224.718 97.726 225.66 98.1437 226.447 98.7804C227.234 99.417 227.84 100.25 228.202 101.195C228.564 102.141 228.671 103.165 228.511 104.165L224.777 127.498C224.138 131.488 222.451 135.237 219.887 138.361L207.759 153.137C207.585 153.349 207.367 153.521 207.121 153.641C206.874 153.761 206.604 153.827 206.33 153.833C206.056 153.839 205.783 153.786 205.531 153.677C205.279 153.569 205.054 153.407 204.87 153.203L201.989 150.004C201.691 149.673 201.518 149.248 201.501 148.802C201.484 148.357 201.624 147.92 201.896 147.567L202.745 146.466C209.8 137.311 214.251 126.421 215.627 114.946L217.112 102.57C217.236 101.533 217.641 100.549 218.281 99.7247C218.922 98.9 219.775 98.2651 220.749 97.8881Z" fill="#50E569"/>
</svg>
