<svg width="325" height="243" viewBox="0 0 325 243" fill="none" xmlns="http://www.w3.org/2000/svg">
<path opacity="0.1" d="M188.823 48.7323C167.988 48.008 148.144 41.2829 129.192 33.9236C110.24 26.5643 91.4751 18.4131 71.1388 14.5113C58.0589 12.0034 43.102 11.6493 32.5621 18.6609C22.4213 25.4215 19.1441 37.0592 17.3799 47.8696C16.0567 56.0015 15.2777 64.5616 18.909 72.1752C21.4297 77.4613 25.9078 81.9039 29.0047 86.9647C39.7765 104.581 32.1629 126.317 20.4929 143.505C15.0201 151.576 8.66525 159.28 4.43832 167.862C0.21139 176.445 -1.74272 186.293 1.95303 195.056C5.6198 203.748 14.3537 210.264 23.8152 214.851C43.028 224.187 65.666 226.836 87.7536 228.346C136.629 231.691 185.768 230.242 234.772 228.794C252.91 228.256 271.125 227.712 288.969 224.908C298.875 223.353 309.106 220.881 316.298 214.928C325.428 207.353 327.691 194.528 321.574 185.028C311.311 169.095 282.943 165.139 275.76 148.041C271.81 138.628 275.867 128.146 281.603 119.415C293.914 100.692 314.546 84.2637 315.634 62.8618C316.381 48.1625 306.463 33.4407 291.126 26.4838C275.049 19.1953 252.758 20.1128 240.905 32.1787C228.678 44.5891 207.212 49.3762 188.823 48.7323Z" fill="#50E569"/>
<path opacity="0.1" d="M186.644 242.786C252.603 242.786 306.073 238.811 306.073 233.907C306.073 229.004 252.603 225.029 186.644 225.029C120.685 225.029 67.2144 229.004 67.2144 233.907C67.2144 238.811 120.685 242.786 186.644 242.786Z" fill="#50E569"/>
<path d="M88.4346 61.823C85.6732 61.823 83.4346 64.0616 83.4346 66.823V225.139C83.4346 227.9 85.6731 230.139 88.4346 230.139H234.243C237.004 230.139 239.243 227.9 239.243 225.139V66.823C239.243 64.0616 237.004 61.823 234.243 61.823H88.4346ZM161.339 73.9732C160.278 73.9732 159.242 73.6588 158.361 73.0698C157.479 72.4808 156.792 71.6436 156.386 70.6641C155.981 69.6846 155.874 68.6069 156.081 67.567C156.288 66.5272 156.799 65.5721 157.548 64.8224C158.298 64.0728 159.253 63.5623 160.293 63.3554C161.333 63.1486 162.411 63.2547 163.39 63.6605C164.369 64.0662 165.207 64.7532 165.796 65.6347C166.385 66.5162 166.699 67.5526 166.699 68.6128C166.699 70.0344 166.134 71.3979 165.129 72.4032C164.124 73.4084 162.76 73.9732 161.339 73.9732Z" fill="#3F3D56"/>
<path d="M46.3794 217.977C48.8502 227.11 57.3131 232.767 57.3131 232.767C57.3131 232.767 61.7702 223.615 59.2994 214.482C56.8286 205.348 48.3657 199.692 48.3657 199.692C48.3657 199.692 43.9087 208.843 46.3794 217.977Z" fill="#3F3D56"/>
<path d="M50.0099 216.014C56.7897 222.614 57.6178 232.759 57.6178 232.759C57.6178 232.759 47.4537 232.204 40.6738 225.605C33.894 219.005 33.0659 208.859 33.0659 208.859C33.0659 208.859 43.2301 209.414 50.0099 216.014Z" fill="#50E569"/>
<path d="M182.601 97.0228H100.766C100.103 97.0228 99.4664 96.7592 98.9973 96.2901C98.5282 95.821 98.2646 95.1847 98.2646 94.5213C98.2646 93.8578 98.5282 93.2216 98.9973 92.7524C99.4664 92.2833 100.103 92.0198 100.766 92.0198H182.601C183.265 92.0198 183.901 92.2833 184.37 92.7524C184.839 93.2216 185.103 93.8578 185.103 94.5213C185.103 95.1847 184.839 95.821 184.37 96.2901C183.901 96.7592 183.265 97.0228 182.601 97.0228Z" fill="#F2F2F2"/>
<path d="M182.601 122.753H100.766C100.103 122.753 99.4664 122.489 98.9973 122.02C98.5282 121.551 98.2646 120.915 98.2646 120.251C98.2646 119.588 98.5282 118.951 98.9973 118.482C99.4664 118.013 100.103 117.75 100.766 117.75H182.601C183.265 117.75 183.901 118.013 184.37 118.482C184.839 118.951 185.103 119.588 185.103 120.251C185.103 120.915 184.839 121.551 184.37 122.02C183.901 122.489 183.265 122.753 182.601 122.753Z" fill="#F2F2F2"/>
<path d="M182.601 148.482H100.766C100.103 148.482 99.4664 148.219 98.9973 147.75C98.5282 147.281 98.2646 146.644 98.2646 145.981C98.2646 145.317 98.5282 144.681 98.9973 144.212C99.4664 143.743 100.103 143.479 100.766 143.479H182.601C183.265 143.479 183.901 143.743 184.37 144.212C184.839 144.681 185.103 145.317 185.103 145.981C185.103 146.644 184.839 147.281 184.37 147.75C183.901 148.219 183.265 148.482 182.601 148.482Z" fill="#F2F2F2"/>
<path d="M182.601 174.212H100.766C100.103 174.212 99.4664 173.949 98.9973 173.479C98.5282 173.01 98.2646 172.374 98.2646 171.711C98.2646 171.047 98.5282 170.411 98.9973 169.942C99.4664 169.473 100.103 169.209 100.766 169.209H182.601C183.265 169.209 183.901 169.473 184.37 169.942C184.839 170.411 185.103 171.047 185.103 171.711C185.103 172.374 184.839 173.01 184.37 173.479C183.901 173.949 183.265 174.212 182.601 174.212Z" fill="#F2F2F2"/>
<path d="M182.601 199.942H100.766C100.103 199.942 99.4664 199.678 98.9973 199.209C98.5282 198.74 98.2646 198.104 98.2646 197.44C98.2646 196.777 98.5282 196.141 98.9973 195.672C99.4664 195.202 100.103 194.939 100.766 194.939H182.601C183.265 194.939 183.901 195.202 184.37 195.672C184.839 196.141 185.103 196.777 185.103 197.44C185.103 198.104 184.839 198.74 184.37 199.209C183.901 199.678 183.265 199.942 182.601 199.942Z" fill="#F2F2F2"/>
<path d="M168.307 97.0228H100.409C99.7453 97.0228 99.109 96.7592 98.6399 96.2901C98.1708 95.821 97.9072 95.1847 97.9072 94.5213C97.9072 93.8578 98.1708 93.2216 98.6399 92.7524C99.109 92.2833 99.7453 92.0198 100.409 92.0198H168.307C168.97 92.0198 169.607 92.2833 170.076 92.7524C170.545 93.2216 170.808 93.8578 170.808 94.5213C170.808 95.1847 170.545 95.821 170.076 96.2901C169.607 96.7592 168.97 97.0228 168.307 97.0228Z" fill="#50E569"/>
<path d="M147.223 122.753H100.409C99.7453 122.753 99.109 122.489 98.6399 122.02C98.1708 121.551 97.9072 120.915 97.9072 120.251C97.9072 119.588 98.1708 118.951 98.6399 118.482C99.109 118.013 99.7453 117.75 100.409 117.75H147.223C147.886 117.75 148.522 118.013 148.991 118.482C149.461 118.951 149.724 119.588 149.724 120.251C149.724 120.915 149.461 121.551 148.991 122.02C148.522 122.489 147.886 122.753 147.223 122.753Z" fill="#50E569"/>
<path d="M121.493 148.482H100.409C99.7453 148.482 99.109 148.219 98.6399 147.75C98.1708 147.281 97.9072 146.644 97.9072 145.981C97.9072 145.317 98.1708 144.681 98.6399 144.212C99.109 143.743 99.7453 143.479 100.409 143.479H121.493C122.156 143.479 122.793 143.743 123.262 144.212C123.731 144.681 123.994 145.317 123.994 145.981C123.994 146.644 123.731 147.281 123.262 147.75C122.793 148.219 122.156 148.482 121.493 148.482Z" fill="#50E569"/>
<path d="M174.739 174.212H100.409C99.7453 174.212 99.109 173.949 98.6399 173.479C98.1708 173.01 97.9072 172.374 97.9072 171.711C97.9072 171.047 98.1708 170.411 98.6399 169.942C99.109 169.473 99.7453 169.209 100.409 169.209H174.739C175.403 169.209 176.039 169.473 176.508 169.942C176.977 170.411 177.241 171.047 177.241 171.711C177.241 172.374 176.977 173.01 176.508 173.479C176.039 173.949 175.403 174.212 174.739 174.212Z" fill="#50E569"/>
<path d="M158.301 199.942H100.409C99.7453 199.942 99.109 199.678 98.6399 199.209C98.1708 198.74 97.9072 198.104 97.9072 197.44C97.9072 196.777 98.1708 196.141 98.6399 195.672C99.109 195.202 99.7453 194.939 100.409 194.939H158.301C158.964 194.939 159.6 195.202 160.07 195.672C160.539 196.141 160.802 196.777 160.802 197.44C160.802 198.104 160.539 198.74 160.07 199.209C159.6 199.678 158.964 199.942 158.301 199.942Z" fill="#50E569"/>
<path d="M221.911 97.3801C221.346 97.3801 220.793 97.2125 220.323 96.8983C219.853 96.5842 219.486 96.1377 219.27 95.6153C219.053 95.0929 218.997 94.5181 219.107 93.9635C219.217 93.409 219.49 92.8996 219.89 92.4998C220.289 92.0999 220.799 91.8276 221.353 91.7173C221.908 91.607 222.483 91.6636 223.005 91.88C223.528 92.0964 223.974 92.4628 224.288 92.933C224.602 93.4031 224.77 93.9558 224.77 94.5213C224.769 95.2792 224.468 96.0059 223.932 96.5418C223.396 97.0778 222.669 97.3793 221.911 97.3801ZM221.911 92.3771C221.487 92.3771 221.072 92.5029 220.72 92.7385C220.367 92.9741 220.092 93.309 219.93 93.7008C219.768 94.0925 219.725 94.5237 219.808 94.9396C219.891 95.3555 220.095 95.7376 220.395 96.0374C220.695 96.3373 221.077 96.5415 221.493 96.6242C221.909 96.707 222.34 96.6645 222.732 96.5022C223.123 96.3399 223.458 96.0651 223.694 95.7125C223.929 95.3599 224.055 94.9453 224.055 94.5213C224.055 93.9528 223.828 93.4078 223.427 93.0058C223.025 92.6038 222.48 92.3777 221.911 92.3771Z" fill="#50E569"/>
<path d="M221.911 123.11C221.346 123.11 220.793 122.942 220.323 122.628C219.853 122.314 219.486 121.868 219.27 121.345C219.053 120.823 218.997 120.248 219.107 119.693C219.217 119.139 219.49 118.629 219.89 118.23C220.289 117.83 220.799 117.557 221.353 117.447C221.908 117.337 222.483 117.393 223.005 117.61C223.528 117.826 223.974 118.193 224.288 118.663C224.602 119.133 224.77 119.686 224.77 120.251C224.769 121.009 224.468 121.736 223.932 122.272C223.396 122.808 222.669 123.109 221.911 123.11ZM221.911 118.107C221.487 118.107 221.072 118.233 220.72 118.468C220.367 118.704 220.092 119.039 219.93 119.431C219.768 119.822 219.725 120.253 219.808 120.669C219.891 121.085 220.095 121.467 220.395 121.767C220.695 122.067 221.077 122.271 221.493 122.354C221.909 122.437 222.34 122.394 222.732 122.232C223.123 122.07 223.458 121.795 223.694 121.442C223.929 121.09 224.055 120.675 224.055 120.251C224.055 119.683 223.828 119.138 223.427 118.736C223.025 118.334 222.48 118.108 221.911 118.107Z" fill="#50E569"/>
<path d="M221.911 148.84C221.346 148.84 220.793 148.672 220.323 148.358C219.853 148.044 219.486 147.597 219.27 147.075C219.053 146.552 218.997 145.978 219.107 145.423C219.217 144.869 219.49 144.359 219.89 143.959C220.289 143.56 220.799 143.287 221.353 143.177C221.908 143.067 222.483 143.123 223.005 143.34C223.528 143.556 223.974 143.922 224.288 144.393C224.602 144.863 224.77 145.415 224.77 145.981C224.769 146.739 224.468 147.465 223.932 148.001C223.396 148.537 222.669 148.839 221.911 148.84ZM221.911 143.837C221.487 143.837 221.072 143.962 220.72 144.198C220.367 144.434 220.092 144.769 219.93 145.16C219.768 145.552 219.725 145.983 219.808 146.399C219.891 146.815 220.095 147.197 220.395 147.497C220.695 147.797 221.077 148.001 221.493 148.084C221.909 148.167 222.34 148.124 222.732 147.962C223.123 147.799 223.458 147.525 223.694 147.172C223.929 146.819 224.055 146.405 224.055 145.981C224.055 145.412 223.828 144.867 223.427 144.465C223.025 144.063 222.48 143.837 221.911 143.837Z" fill="#50E569"/>
<path d="M221.911 174.57C221.346 174.57 220.793 174.402 220.323 174.088C219.853 173.774 219.486 173.327 219.27 172.805C219.053 172.282 218.997 171.707 219.107 171.153C219.217 170.598 219.49 170.089 219.89 169.689C220.289 169.289 220.799 169.017 221.353 168.907C221.908 168.796 222.483 168.853 223.005 169.069C223.528 169.286 223.974 169.652 224.288 170.122C224.602 170.592 224.77 171.145 224.77 171.711C224.769 172.469 224.468 173.195 223.932 173.731C223.396 174.267 222.669 174.569 221.911 174.57ZM221.911 169.566C221.487 169.566 221.072 169.692 220.72 169.928C220.367 170.163 220.092 170.498 219.93 170.89C219.768 171.282 219.725 171.713 219.808 172.129C219.891 172.545 220.095 172.927 220.395 173.227C220.695 173.527 221.077 173.731 221.493 173.814C221.909 173.896 222.34 173.854 222.732 173.692C223.123 173.529 223.458 173.254 223.694 172.902C223.929 172.549 224.055 172.135 224.055 171.711C224.055 171.142 223.828 170.597 223.427 170.195C223.025 169.793 222.48 169.567 221.911 169.566Z" fill="#50E569"/>
<path d="M221.911 200.299C221.346 200.299 220.793 200.132 220.323 199.817C219.853 199.503 219.486 199.057 219.27 198.534C219.053 198.012 218.997 197.437 219.107 196.883C219.217 196.328 219.49 195.819 219.89 195.419C220.289 195.019 220.799 194.747 221.353 194.637C221.908 194.526 222.483 194.583 223.005 194.799C223.528 195.016 223.974 195.382 224.288 195.852C224.602 196.322 224.77 196.875 224.77 197.44C224.769 198.198 224.468 198.925 223.932 199.461C223.396 199.997 222.669 200.298 221.911 200.299ZM221.911 195.296C221.487 195.296 221.072 195.422 220.72 195.658C220.367 195.893 220.092 196.228 219.93 196.62C219.768 197.012 219.725 197.443 219.808 197.859C219.891 198.275 220.095 198.657 220.395 198.957C220.695 199.256 221.077 199.461 221.493 199.543C221.909 199.626 222.34 199.584 222.732 199.421C223.123 199.259 223.458 198.984 223.694 198.632C223.929 198.279 224.055 197.865 224.055 197.44C224.055 196.872 223.828 196.327 223.427 195.925C223.025 195.523 222.48 195.297 221.911 195.296Z" fill="#50E569"/>
<path d="M221.91 95.9507C222.7 95.9507 223.34 95.3107 223.34 94.5213C223.34 93.7318 222.7 93.0918 221.91 93.0918C221.121 93.0918 220.481 93.7318 220.481 94.5213C220.481 95.3107 221.121 95.9507 221.91 95.9507Z" fill="#50E569"/>
<path d="M221.91 173.14C222.7 173.14 223.34 172.5 223.34 171.711C223.34 170.921 222.7 170.281 221.91 170.281C221.121 170.281 220.481 170.921 220.481 171.711C220.481 172.5 221.121 173.14 221.91 173.14Z" fill="#50E569"/>
<path d="M221.91 198.87C222.7 198.87 223.34 198.23 223.34 197.44C223.34 196.651 222.7 196.011 221.91 196.011C221.121 196.011 220.481 196.651 220.481 197.44C220.481 198.23 221.121 198.87 221.91 198.87Z" fill="#50E569"/>
<path d="M161.339 71.1143C162.72 71.1143 163.84 69.9943 163.84 68.6128C163.84 67.2312 162.72 66.1113 161.339 66.1113C159.957 66.1113 158.837 67.2312 158.837 68.6128C158.837 69.9943 159.957 71.1143 161.339 71.1143Z" fill="#3F3D56"/>
<path d="M161.339 5.00302C162.72 5.00302 163.84 3.88305 163.84 2.50151C163.84 1.11996 162.72 0 161.339 0C159.957 0 158.837 1.11996 158.837 2.50151C158.837 3.88305 159.957 5.00302 161.339 5.00302Z" fill="#3F3D56"/>
<path d="M161.696 2.50148H160.981V68.6127H161.696V2.50148Z" fill="#3F3D56"/>
<path d="M271.65 166.13V172.717C271.65 172.717 273.236 183.328 273.236 192.598C273.236 201.868 270.674 223.457 270.674 223.457C270.674 223.457 265.552 225.287 265.186 222.482C264.82 219.676 263.844 204.796 263.844 202.6C263.844 200.405 259.575 183.694 259.575 183.694L256.891 202.234C256.891 202.234 257.745 224.189 256.891 224.799C256.038 225.409 251.891 226.507 251.403 225.409C250.915 224.311 248.353 200.77 248.353 200.77C248.353 200.77 246.28 170.033 247.5 168.204C248.719 166.374 249.817 164.91 249.817 164.91C249.817 164.91 267.259 160.641 271.65 166.13Z" fill="#2F2E41"/>
<path d="M270.064 222.726L270.37 224.714C270.472 225.392 270.539 226.075 270.57 226.761C270.618 227.759 270.784 229.298 271.353 229.542C272.207 229.908 277.748 234.582 273.845 234.826C269.942 235.07 267.99 235.491 266.833 234.593C265.467 233.532 267.015 234.013 266.405 234.013C265.795 234.013 265.063 234.013 264.819 233.037C264.575 232.061 265.185 230.354 265.185 230.354V222.726H270.064Z" fill="#2F2E41"/>
<path d="M251.852 222.63L251.546 224.618C251.444 225.297 251.377 225.98 251.346 226.665C251.298 227.664 251.132 229.203 250.563 229.447C249.709 229.813 244.168 234.486 248.071 234.73C251.974 234.974 253.926 235.396 255.083 234.498C256.449 233.437 254.901 233.917 255.511 233.917C256.121 233.917 256.853 233.917 257.097 232.941C257.341 231.966 256.731 230.258 256.731 230.258V222.63H251.852Z" fill="#2F2E41"/>
<path d="M255.306 113.194C255.306 113.194 257.379 118.317 258.843 119.171C260.307 120.024 259.575 123.928 259.575 123.928L255.916 129.05H252.988L249.451 122.952C249.451 122.952 249.207 118.927 248.475 117.951C247.743 116.975 255.306 113.194 255.306 113.194Z" fill="#FFB9B9"/>
<path opacity="0.1" d="M255.306 113.194C255.306 113.194 257.379 118.317 258.843 119.171C260.307 120.024 259.575 123.928 259.575 123.928L255.916 129.05H252.988L249.451 122.952C249.451 122.952 249.207 118.927 248.475 117.951C247.743 116.975 255.306 113.194 255.306 113.194Z" fill="black"/>
<path d="M258.355 123.684L263.844 124.903L267.869 165.398C267.869 165.398 265.673 165.764 263.478 168.692C261.282 171.619 258.599 171.131 257.257 170.399C255.915 169.667 250.549 167.594 250.427 166.74C250.305 165.886 250.671 150.884 250.671 150.884L247.255 127.465L248.963 124.903H252.012L254.452 126.977L258.355 123.684Z" fill="#50E569"/>
<path d="M250.06 119.536C253.563 119.536 256.403 116.697 256.403 113.194C256.403 109.691 253.563 106.851 250.06 106.851C246.557 106.851 243.718 109.691 243.718 113.194C243.718 116.697 246.557 119.536 250.06 119.536Z" fill="#FFB9B9"/>
<path d="M259.209 121.61C259.209 121.61 271.162 122.83 272.26 125.391C273.358 127.953 271.528 139.296 271.528 139.296C271.528 139.296 275.919 149.176 275.797 151.493C275.675 153.811 279.944 169.667 275.309 167.838C270.675 166.008 272.138 161.251 269.821 164.666C267.503 168.082 266.527 167.594 266.527 167.594C266.527 167.594 264.21 171.375 263.478 171.009C262.746 170.643 262.258 167.838 263.844 166.496C265.43 165.154 265.186 162.837 262.136 158.446C259.087 154.055 255.916 131.002 257.745 127.465C259.575 123.927 259.209 121.61 259.209 121.61Z" fill="#575A89"/>
<path d="M271.65 168.448L269.577 170.399L267.015 168.692L268.113 166.13L271.65 168.448Z" fill="#FFB9B9"/>
<path d="M250.426 123.684C250.426 123.684 241.156 127.099 241.156 130.758C241.156 134.417 246.767 150.396 246.767 150.396C246.767 150.396 246.767 154.543 246.523 155.518C246.279 156.494 242.441 165.005 245.791 165.764C247.882 166.238 249.6 167.483 249.755 169.24C249.94 171.327 248.342 173.961 248.475 174.424C248.719 175.278 250.182 176.498 250.06 175.888C249.938 175.278 251.036 166.496 252.744 162.593C254.451 158.69 252.012 132.466 251.524 129.05C251.288 127.237 250.922 125.444 250.426 123.684Z" fill="#575A89"/>
<path d="M245.547 168.204L247.743 173.449L249.389 170.094L247.499 165.886L245.547 168.204Z" fill="#FFB9B9"/>
<path d="M257.206 117.123C257.206 117.123 259.208 117.951 260.428 117.951C261.648 117.951 266.649 120.512 264.941 122.098C263.233 123.684 260.672 124.049 259.452 126.367C258.233 128.684 257.623 129.05 257.623 129.05L255.451 126.133C255.451 126.133 258.477 122.708 258.355 121.61C258.233 120.512 257.206 117.123 257.206 117.123Z" fill="#50E569"/>
<path d="M249.122 120.056C249.122 120.056 247.622 120.634 247.256 121.61C246.89 122.586 244.573 124.415 245.548 124.903C246.524 125.391 250.793 127.343 251.647 127.709C252.501 128.075 254.092 126.67 254.092 126.67C254.092 126.67 251.952 125.452 251.952 124.598C251.952 123.745 249.122 120.056 249.122 120.056Z" fill="#50E569"/>
<path d="M244.084 129.05L241.157 129.782C241.157 129.782 237.132 147.834 238.351 152.347C239.571 156.86 245.304 170.399 245.304 170.399L248.963 166.13C248.963 166.13 247.367 156.422 246.457 155.787C245.548 155.153 246.158 153.811 246.158 153.445C246.158 153.079 246.523 153.323 245.67 152.469C244.816 151.615 248.841 146.858 247.743 145.517C246.645 144.175 244.084 129.05 244.084 129.05Z" fill="#575A89"/>
<path opacity="0.1" d="M272.931 132.405L271.163 125.757C271.163 125.757 275.92 129.172 276.895 134.173C277.871 139.174 281.652 149.176 279.213 153.567C276.773 157.958 272.504 170.643 271.041 170.399C269.577 170.155 266.04 167.106 265.918 166.618C265.796 166.13 272.26 154.909 271.285 154.055C270.309 153.201 270.553 151.005 271.285 150.518C272.016 150.03 272.87 147.712 272.26 147.834C271.65 147.956 269.821 146.736 270.187 145.395C270.553 144.053 268.357 135.027 268.357 135.027L272.931 132.405Z" fill="black"/>
<path d="M270.553 124.903L272.26 125.391C272.26 125.391 277.017 128.806 277.993 133.807C278.969 138.808 282.75 148.81 280.31 153.201C277.871 157.592 273.602 170.277 272.138 170.033C270.675 169.789 267.137 166.74 267.015 166.252C266.893 165.764 273.358 154.543 272.382 153.689C271.406 152.835 271.65 150.64 272.382 150.152C273.114 149.664 273.968 147.346 273.358 147.468C272.748 147.59 270.918 146.371 271.284 145.029C271.65 143.687 269.455 134.661 269.455 134.661L270.553 124.903Z" fill="#575A89"/>
<path d="M254.983 107.469L256.172 107.036C256.172 107.036 253.685 104.549 250.224 104.765L251.198 103.792C251.198 103.792 248.819 102.927 246.656 105.198C245.519 106.391 244.203 107.795 243.383 109.376H242.109L242.641 110.439L240.78 111.502L242.69 111.311C242.509 112.229 242.571 113.179 242.871 114.066L243.303 115.255C243.303 115.255 245.033 111.794 245.033 111.362V112.443C245.033 112.443 246.223 111.47 246.223 110.821L246.872 111.578L247.196 110.389L251.198 111.578L250.549 110.605L253.036 110.929L252.063 109.74C252.063 109.74 254.875 111.146 254.983 112.335C255.091 113.525 256.497 115.039 256.497 115.039L257.146 113.957C257.146 113.957 258.119 109.091 254.983 107.469Z" fill="#2F2E41"/>
<path d="M254.737 113.895C255.251 113.895 255.668 113.24 255.668 112.433C255.668 111.625 255.251 110.971 254.737 110.971C254.223 110.971 253.807 111.625 253.807 112.433C253.807 113.24 254.223 113.895 254.737 113.895Z" fill="#FFB9B9"/>
</svg>
