<svg width="325" height="249" viewBox="0 0 325 249" fill="none" xmlns="http://www.w3.org/2000/svg">
<path opacity="0.1" d="M185.552 39.2276C165.078 38.5159 145.578 31.9073 126.954 24.6754C108.331 17.4436 89.8904 9.4336 69.9064 5.59941C57.053 3.13503 42.3553 2.78704 31.998 9.67719C22.0329 16.3206 18.8124 27.7567 17.0788 38.3798C15.7786 46.3709 15.013 54.7827 18.5815 62.2644C21.0585 67.4589 25.459 71.8246 28.5023 76.7976C39.0874 94.1084 31.6057 115.469 20.1379 132.359C14.7599 140.29 8.51514 147.86 4.36143 156.294C0.207728 164.728 -1.71253 174.405 1.9192 183.016C5.52245 191.558 14.1051 197.96 23.4027 202.469C42.2826 211.643 64.5285 214.246 86.2334 215.73C134.262 219.017 182.55 217.593 230.705 216.17C248.528 215.641 266.428 215.107 283.963 212.351C293.697 210.823 303.751 208.394 310.818 202.544C319.79 195.101 322.014 182.497 316.003 173.162C305.918 157.505 278.041 153.617 270.983 136.816C267.101 127.566 271.087 117.265 276.725 108.686C288.822 90.2869 309.097 74.1434 310.166 53.1123C310.9 38.6677 301.154 24.2009 286.083 17.3645C270.284 10.2023 248.38 11.1039 236.732 22.9608C224.717 35.1562 203.622 39.8603 185.552 39.2276Z" fill="#50E569"/>
<path opacity="0.1" d="M183.41 238.586C248.226 238.586 300.77 234.68 300.77 229.862C300.77 225.043 248.226 221.137 183.41 221.137C118.594 221.137 66.0498 225.043 66.0498 229.862C66.0498 234.68 118.594 238.586 183.41 238.586Z" fill="#50E569"/>
<path d="M92.665 201.602C92.665 201.602 99.3084 200.539 103.294 205.237C103.294 205.237 100.371 207.54 94.0823 204.351L92.665 201.602Z" fill="#50E569"/>
<path d="M91.9501 201.516C91.9501 201.516 87.7142 206.742 89.7926 212.541C89.7926 212.541 93.2472 211.156 93.6236 204.114L91.9501 201.516Z" fill="#50E569"/>
<path d="M88.1533 192.921C88.1533 192.921 90.8107 188.049 101.44 194.87C101.44 194.87 100.023 198.147 95.3282 197.881C90.6335 197.616 89.3871 195.506 88.1533 192.921Z" fill="#50E569"/>
<path d="M87.4608 192.57C87.4608 192.57 81.9467 191.937 81.4121 204.563C81.4121 204.563 84.9078 205.287 87.3912 201.295C89.8745 197.302 88.8495 195.063 87.4608 192.57Z" fill="#50E569"/>
<path d="M84.2495 182.504C84.2495 182.504 87.3498 173.911 98.5992 180.023C98.5992 180.023 96.0305 187.907 85.401 185.427L84.2495 182.504Z" fill="#50E569"/>
<path d="M80.792 169.66C80.792 169.66 86.6413 160.976 97.005 169.027C97.005 169.027 93.3733 177.176 81.6778 172.747L80.792 169.66Z" fill="#50E569"/>
<path d="M79.5518 157.433C79.5518 157.433 86.3755 149.461 96.6506 157.433C96.6506 157.433 90.1844 164.43 79.5518 159.47V157.433Z" fill="#50E569"/>
<path d="M78.4893 145.563C78.4893 145.563 85.4015 137.237 95.2338 145.12C95.2338 145.12 87.4389 152.472 78.4893 147.512V145.563Z" fill="#50E569"/>
<path d="M79.1094 135.022C79.1094 135.022 86.3855 124.301 95.5881 131.568C95.5881 131.568 87.7932 140.78 79.1094 137.06V135.022Z" fill="#50E569"/>
<path d="M80.792 122.707C80.792 122.707 88.5015 112.077 97.4479 120.226C97.4479 120.226 88.3243 129.442 80.792 124.655V122.707Z" fill="#50E569"/>
<path d="M83.3644 111.701C83.3644 111.701 92.488 101.714 100.447 105.69C100.447 105.69 90.9379 116.297 82.9658 114.349L83.3644 111.701Z" fill="#50E569"/>
<path d="M86.5532 101.271C86.5532 101.271 97.0941 89.0468 103.206 93.1214C103.206 93.1214 95.4491 102.612 85.8066 103.561L86.5532 101.271Z" fill="#50E569"/>
<path d="M91.1559 89.1702C91.1559 89.1702 100.371 79.1798 107.103 81.66C107.103 81.66 99.2197 92.0237 89.9189 92.2894L91.1559 89.1702Z" fill="#50E569"/>
<path d="M95.3223 77.8511C95.3223 77.8511 105.509 68.2814 109.938 69.9644C109.938 69.9644 102.586 80.597 94.8794 79.977L95.3223 77.8511Z" fill="#50E569"/>
<path d="M99.3965 67.383C99.3965 67.383 108.166 55.9564 112.949 56.8422C112.949 56.8422 107.634 67.0287 99.3965 68.5472V67.383Z" fill="#50E569"/>
<path d="M103.82 53.3053C103.82 53.3053 111.57 44.5424 115.755 44.5645C115.755 44.5645 109.637 56.2695 103.5 56.162L103.82 53.3053Z" fill="#50E569"/>
<path d="M106.439 43.9223L113.923 25.672C113.923 25.672 114.3 42.1697 105.486 47.3073L106.439 43.9223Z" fill="#50E569"/>
<path d="M109.479 23.796C109.479 23.796 110.719 8.56049 109.921 7.32038C109.921 7.32038 115.274 19.9745 109.425 30.528L109.479 23.796Z" fill="#50E569"/>
<path d="M83.9581 182.298C83.9581 182.298 76.1948 177.486 71.168 189.258C71.168 189.258 78.0771 193.842 84.8692 185.3L83.9581 182.298Z" fill="#50E569"/>
<path d="M80.5611 169.169C80.5611 169.169 71.0389 164.826 66.417 177.116C66.417 177.116 73.7753 182.178 81.4279 172.276L80.5611 169.169Z" fill="#50E569"/>
<path d="M79.1094 158.176C79.1094 158.176 72.2888 150.204 62.0264 158.176C62.0264 158.176 68.4926 165.174 79.1094 160.213V158.176Z" fill="#50E569"/>
<path d="M78.2577 145.563C78.2577 145.563 71.3486 137.237 61.5132 145.12C61.5132 145.12 69.3113 152.472 78.2577 147.512V145.563Z" fill="#50E569"/>
<path d="M79.1086 135.326C79.1086 135.326 74.2621 123.305 63.7275 128.483C63.7275 128.483 69.4219 139.129 78.6815 137.316L79.1086 135.326Z" fill="#50E569"/>
<path d="M81.4031 122.647C81.4031 122.647 76.5882 110.432 65.9019 116.098C65.9019 116.098 72.444 127.294 80.9286 124.535L81.4031 122.647Z" fill="#50E569"/>
<path d="M84.3893 111.764C84.3893 111.764 82.4912 98.3729 73.6333 97.1739C73.6333 97.1739 75.5093 111.296 83.1935 114.178L84.3893 111.764Z" fill="#50E569"/>
<path d="M86.7777 101.293C86.7777 101.293 86.0374 85.1588 78.7139 84.5989C78.7139 84.5989 78.9606 96.8449 85.952 103.58L86.7777 101.293Z" fill="#50E569"/>
<path d="M91.9154 88.7083C91.9154 88.7083 89.7294 75.2918 82.7412 73.6499C82.7412 73.6499 83.608 86.6456 91.2258 91.9983L91.9154 88.7083Z" fill="#50E569"/>
<path d="M96.151 77.946C96.151 77.946 96.0751 63.9727 91.8075 61.9164C91.8075 61.9164 89.1565 74.5705 94.9141 79.7302L96.151 77.946Z" fill="#50E569"/>
<path d="M99.7225 67.2406C99.7225 67.2406 99.1246 52.8498 94.702 50.822C94.702 50.822 93.1867 62.2106 99.0582 68.1834L99.7225 67.2406Z" fill="#50E569"/>
<path d="M104.436 54.4505C104.436 54.4505 104.407 42.7455 101.253 40.0027C101.253 40.0027 98.1119 52.8245 102.788 56.8073L104.436 54.4505Z" fill="#50E569"/>
<path d="M106.066 43.3402L102.997 23.8561C102.997 23.8561 98.8242 39.8192 106.214 46.8517L106.066 43.3402Z" fill="#50E569"/>
<path d="M106.667 23.9826C106.667 23.9826 98.783 10.8857 98.9443 9.43045C98.9443 9.43045 99.7827 23.157 109.7 29.9933L106.667 23.9826Z" fill="#50E569"/>
<path d="M107.59 20.1137C107.59 20.1137 100.15 1.51216 96.7837 0C96.7837 0 107.413 5.4033 108.21 19.5759L107.59 20.1137Z" fill="#50E569"/>
<path d="M103.459 56.2727L102.953 56.1146C109.232 35.6402 110.798 22.5812 107.363 19.3101L107.73 18.9242C111.371 22.3787 109.893 35.2922 103.459 56.2727Z" fill="#444053"/>
<path d="M86.1699 104.203L85.417 103.937C86.0813 102.062 86.8026 100.157 87.5555 98.2811C94.1104 81.9352 99.6876 66.7503 103.266 55.0801L103.92 54.7637C100.336 66.434 94.857 82.2199 88.2958 98.5785C87.546 100.445 86.8311 102.337 86.1699 104.203Z" fill="#444053"/>
<path d="M102.013 216.929C101.912 216.815 91.7317 205.357 84.6391 185.787C80.4797 174.333 78.1627 162.292 77.7743 150.112C77.2903 134.886 80.4822 117.882 85.9583 102.441L86.553 103.137C74.2659 137.797 79.1472 167.499 85.623 185.382C92.6428 204.772 102.706 216.106 102.804 216.22L102.013 216.929Z" fill="#444053"/>
<path d="M57.6576 214.43C57.6576 214.43 45.6204 213.705 47.0408 222.139C47.0408 222.139 46.7593 223.629 48.1101 224.306C48.1101 224.306 48.1291 223.674 49.3439 223.892C49.7754 223.964 50.2139 223.986 50.6504 223.955C51.2413 223.915 51.8032 223.684 52.2511 223.297C52.2511 223.297 55.6329 221.899 56.949 216.369C56.949 216.369 57.9233 215.164 57.8822 214.854L55.8512 215.721C55.8512 215.721 56.5472 217.185 55.9999 218.403C55.9999 218.403 55.9335 215.774 55.5444 215.834C55.4653 215.834 54.4877 216.344 54.4877 216.344C54.4877 216.344 55.6836 218.897 54.782 220.751C54.782 220.751 55.1236 217.606 54.1176 216.527L52.6877 217.362C52.6877 217.362 54.0828 219.998 53.1369 222.149C53.1369 222.149 53.3774 218.849 52.3872 217.565L51.0901 218.577C51.0901 218.577 52.3998 221.174 51.6026 222.959C51.6026 222.959 51.4982 219.118 50.8086 218.827C50.8086 218.827 49.676 219.827 49.502 220.238C49.502 220.238 50.4005 222.136 49.8437 223.12C49.8437 223.12 49.502 220.561 49.211 220.548C49.211 220.548 48.0816 222.244 47.9646 223.395C48.0193 222.322 48.3541 221.281 48.9358 220.377C48.2849 220.5 47.6843 220.812 47.2085 221.272C47.2085 221.272 47.3825 220.074 49.2142 219.969C49.2142 219.969 50.1632 218.682 50.3973 218.602C50.3973 218.602 48.5751 218.451 47.4711 218.941C47.4711 218.941 48.4423 217.812 50.7327 218.308L51.9981 217.264C51.9981 217.264 49.6001 216.948 48.5815 217.299C48.5815 217.299 49.752 216.299 52.3429 217.027L53.7348 216.195C53.7348 216.195 51.6912 215.755 50.4701 215.914C50.4701 215.914 51.7576 215.221 54.1429 215.97L55.1394 215.524C55.1394 215.524 53.6399 215.23 53.2034 215.183C52.7668 215.135 52.7383 215.015 52.7383 215.015C53.688 214.857 54.6629 214.967 55.5539 215.331C55.5539 215.331 57.6924 214.563 57.6576 214.43Z" fill="#50E569"/>
<path d="M22.6692 218.343C22.6692 218.343 10.6478 217.619 12.0556 226.053C12.0556 226.053 11.7709 227.543 13.1217 228.22C13.1217 228.22 13.1438 227.587 14.3586 227.805C14.7899 227.879 15.2287 227.901 15.6651 227.868C16.2552 227.829 16.8163 227.598 17.2627 227.21C17.2627 227.21 20.6477 225.812 21.9637 220.282C21.9637 220.282 22.9349 219.077 22.9128 218.767L20.8818 219.634C20.8818 219.634 21.5778 221.099 21.0305 222.316C21.0305 222.316 20.964 219.688 20.5749 219.748C20.4958 219.748 19.5183 220.257 19.5183 220.257C19.5183 220.257 20.7141 222.81 19.8125 224.664C19.8125 224.664 20.1542 221.519 19.145 220.441L17.7151 221.276C17.7151 221.276 19.1102 223.911 18.1643 226.062C18.1643 226.062 18.4079 222.763 17.4146 221.478L16.1207 222.49C16.1207 222.49 17.4304 225.088 16.6332 226.872C16.6332 226.872 16.5288 223.031 15.8391 222.74C15.8391 222.74 14.7066 223.74 14.5326 224.151C14.5326 224.151 15.431 226.049 14.8743 227.033C14.8743 227.033 14.5326 224.474 14.2416 224.461C14.2416 224.461 13.1153 226.157 12.9951 227.309C13.0517 226.235 13.3875 225.195 13.9695 224.291C13.3178 224.414 12.7163 224.725 12.2391 225.186C12.2391 225.186 12.4162 223.987 14.2479 223.882C14.2479 223.882 15.1969 222.595 15.431 222.519C15.431 222.519 13.6089 222.364 12.5048 222.854C12.5048 222.854 13.476 221.725 15.7664 222.222L17.0318 221.178C17.0318 221.178 14.6338 220.861 13.6152 221.212C13.6152 221.212 14.7857 220.213 17.3766 220.94L18.7686 220.108C18.7686 220.108 16.7218 219.669 15.5038 219.827C15.5038 219.827 16.7914 219.134 19.1767 219.884L20.1732 219.438C20.1732 219.438 18.6737 219.143 18.2339 219.096C17.7942 219.049 17.7721 218.928 17.7721 218.928C18.7218 218.772 19.6961 218.882 20.5876 219.245C20.5876 219.245 22.6945 218.476 22.6692 218.343Z" fill="#50E569"/>
<path d="M42.1684 227.53C42.1684 227.53 30.1471 226.806 31.5517 235.24C31.5517 235.24 31.2701 236.73 32.6209 237.407C32.6209 237.407 32.6431 236.774 33.8547 236.992C34.2872 237.065 34.7269 237.086 35.1644 237.055C35.7542 237.015 36.3148 236.784 36.762 236.397C36.762 236.397 40.1438 234.999 41.4598 229.469C41.4598 229.469 42.4342 228.264 42.4089 227.954L40.3779 228.821C40.3779 228.821 41.0707 230.285 40.5266 231.503C40.5266 231.503 40.4601 228.874 40.0679 228.935C39.9888 228.935 39.0144 229.444 39.0144 229.444C39.0144 229.444 40.207 231.994 39.3054 233.851C39.3054 233.851 39.6471 230.706 38.6411 229.627L37.2112 230.463C37.2112 230.463 38.6063 233.098 37.6604 235.249C37.6604 235.249 37.904 231.949 36.9107 230.665L35.6136 231.677C35.6136 231.677 36.9265 234.275 36.1261 236.059C36.1261 236.059 36.0217 232.218 35.3352 231.927C35.3352 231.927 34.1995 232.927 34.0287 233.338C34.0287 233.338 34.9271 235.236 34.3672 236.22C34.3672 236.22 34.0255 233.661 33.7345 233.648C33.7345 233.648 32.6051 235.344 32.4881 236.495C32.5428 235.422 32.8776 234.381 33.4593 233.477C32.8084 233.601 32.2078 233.912 31.732 234.373C31.732 234.373 31.906 233.174 33.7408 233.069C33.7408 233.069 34.6709 231.782 34.9208 231.703C34.9208 231.703 33.0986 231.551 31.9945 232.041C31.9945 232.041 32.9689 230.912 35.2561 231.424L36.5215 230.38C36.5215 230.38 34.1236 230.064 33.1049 230.415C33.1049 230.415 34.2786 229.415 36.8664 230.143L38.2615 229.311C38.2615 229.311 36.2273 228.881 35.0062 229.039C35.0062 229.039 36.2906 228.346 38.6791 229.096L39.6724 228.65C39.6724 228.65 38.1761 228.356 37.7363 228.308C37.2966 228.261 37.2745 228.141 37.2745 228.141C38.2241 227.983 39.1991 228.092 40.09 228.457C40.09 228.457 42.2032 227.663 42.1684 227.53Z" fill="#50E569"/>
<path opacity="0.1" d="M32.7855 239.732C37.4906 239.732 41.3048 239.087 41.3048 238.292C41.3048 237.497 37.4906 236.853 32.7855 236.853C28.0804 236.853 24.2661 237.497 24.2661 238.292C24.2661 239.087 28.0804 239.732 32.7855 239.732Z" fill="#50E569"/>
<path opacity="0.1" d="M303.007 239.732C307.712 239.732 311.527 239.087 311.527 238.292C311.527 237.497 307.712 236.853 303.007 236.853C298.302 236.853 294.488 237.497 294.488 238.292C294.488 239.087 298.302 239.732 303.007 239.732Z" fill="#50E569"/>
<path opacity="0.1" d="M221.423 248.017C226.128 248.017 229.943 247.372 229.943 246.578C229.943 245.783 226.128 245.138 221.423 245.138C216.718 245.138 212.904 245.783 212.904 246.578C212.904 247.372 216.718 248.017 221.423 248.017Z" fill="#50E569"/>
<path opacity="0.1" d="M316.48 227.255C321.185 227.255 325 226.61 325 225.815C325 225.02 321.185 224.376 316.48 224.376C311.775 224.376 307.961 225.02 307.961 225.815C307.961 226.61 311.775 227.255 316.48 227.255Z" fill="#50E569"/>
<path opacity="0.1" d="M49.3656 226.356C54.0707 226.356 57.8849 225.712 57.8849 224.917C57.8849 224.122 54.0707 223.478 49.3656 223.478C44.6604 223.478 40.8462 224.122 40.8462 224.917C40.8462 225.712 44.6604 226.356 49.3656 226.356Z" fill="#50E569"/>
<path opacity="0.1" d="M14.368 230.396C19.0731 230.396 22.8874 229.752 22.8874 228.957C22.8874 228.162 19.0731 227.517 14.368 227.517C9.66288 227.517 5.84863 228.162 5.84863 228.957C5.84863 229.752 9.66288 230.396 14.368 230.396Z" fill="#50E569"/>
<path d="M229.123 25.2322H98.8649C97.1527 25.2322 95.7646 26.6203 95.7646 28.3325V225.034C95.7646 226.746 97.1527 228.134 98.8649 228.134H229.123C230.835 228.134 232.223 226.746 232.223 225.034V28.3325C232.223 26.6203 230.835 25.2322 229.123 25.2322Z" fill="#3A3768"/>
<path opacity="0.1" d="M212.182 42.6727H117.495C112.392 42.6727 108.254 46.8099 108.254 51.9134V73.3209C108.254 78.4244 112.392 82.5616 117.495 82.5616H212.182C217.286 82.5616 221.423 78.4244 221.423 73.3209V51.9134C221.423 46.8099 217.286 42.6727 212.182 42.6727Z" fill="black"/>
<path d="M217.21 43.451H112.209C110.427 43.451 108.982 44.8956 108.982 46.6777V78.8033C108.982 80.5854 110.427 82.0301 112.209 82.0301H217.21C218.992 82.0301 220.437 80.5854 220.437 78.8033V46.6777C220.437 44.8956 218.992 43.451 217.21 43.451Z" fill="#E6E8EC"/>
<path opacity="0.1" d="M131.288 99.1764H115.61C113.725 99.1764 112.196 100.705 112.196 102.59V120.767C112.196 122.653 113.725 124.181 115.61 124.181H131.288C133.173 124.181 134.702 122.653 134.702 120.767V102.59C134.702 100.705 133.173 99.1764 131.288 99.1764Z" fill="black"/>
<path opacity="0.1" d="M158.795 99.1764H143.117C141.231 99.1764 139.703 100.705 139.703 102.59V120.767C139.703 122.653 141.231 124.181 143.117 124.181H158.795C160.68 124.181 162.208 122.653 162.208 120.767V102.59C162.208 100.705 160.68 99.1764 158.795 99.1764Z" fill="black"/>
<path opacity="0.1" d="M186.302 99.1764H170.623C168.738 99.1764 167.21 100.705 167.21 102.59V120.767C167.21 122.653 168.738 124.181 170.623 124.181H186.302C188.187 124.181 189.715 122.653 189.715 120.767V102.59C189.715 100.705 188.187 99.1764 186.302 99.1764Z" fill="black"/>
<path opacity="0.1" d="M208.098 99.7079H203.84C198.802 99.7079 194.717 103.793 194.717 108.831V115.589C194.717 120.628 198.802 124.712 203.84 124.712H208.098C213.137 124.712 217.222 120.628 217.222 115.589V108.831C217.222 103.793 213.137 99.7079 208.098 99.7079Z" fill="black"/>
<path d="M213.809 99.1764H198.13C196.245 99.1764 194.717 100.705 194.717 102.59V120.767C194.717 122.653 196.245 124.181 198.13 124.181H213.809C215.694 124.181 217.222 122.653 217.222 120.767V102.59C217.222 100.705 215.694 99.1764 213.809 99.1764Z" fill="#50E569"/>
<path opacity="0.1" d="M131.288 126.683H115.61C113.725 126.683 112.196 128.211 112.196 130.097V148.274C112.196 150.159 113.725 151.688 115.61 151.688H131.288C133.173 151.688 134.702 150.159 134.702 148.274V130.097C134.702 128.211 133.173 126.683 131.288 126.683Z" fill="black"/>
<path opacity="0.1" d="M158.795 126.683H143.117C141.231 126.683 139.703 128.211 139.703 130.097V148.274C139.703 150.159 141.231 151.688 143.117 151.688H158.795C160.68 151.688 162.208 150.159 162.208 148.274V130.097C162.208 128.211 160.68 126.683 158.795 126.683Z" fill="black"/>
<path opacity="0.1" d="M186.302 126.683H170.623C168.738 126.683 167.21 128.211 167.21 130.097V148.274C167.21 150.159 168.738 151.688 170.623 151.688H186.302C188.187 151.688 189.715 150.159 189.715 148.274V130.097C189.715 128.211 188.187 126.683 186.302 126.683Z" fill="black"/>
<path opacity="0.1" d="M131.288 157.047H115.61C113.725 157.047 112.196 158.575 112.196 160.46V178.638C112.196 180.523 113.725 182.051 115.61 182.051H131.288C133.173 182.051 134.702 180.523 134.702 178.638V160.46C134.702 158.575 133.173 157.047 131.288 157.047Z" fill="black"/>
<path opacity="0.1" d="M158.795 157.047H143.117C141.231 157.047 139.703 158.575 139.703 160.46V178.638C139.703 180.523 141.231 182.051 143.117 182.051H158.795C160.68 182.051 162.208 180.523 162.208 178.638V160.46C162.208 158.575 160.68 157.047 158.795 157.047Z" fill="black"/>
<path opacity="0.1" d="M186.302 157.047H170.623C168.738 157.047 167.21 158.575 167.21 160.46V178.638C167.21 180.523 168.738 182.051 170.623 182.051H186.302C188.187 182.051 189.715 180.523 189.715 178.638V160.46C189.715 158.575 188.187 157.047 186.302 157.047Z" fill="black"/>
<path opacity="0.1" d="M186.302 187.41H170.623C168.738 187.41 167.21 188.938 167.21 190.824V209.001C167.21 210.886 168.738 212.415 170.623 212.415H186.302C188.187 212.415 189.715 210.886 189.715 209.001V190.824C189.715 188.938 188.187 187.41 186.302 187.41Z" fill="black"/>
<path opacity="0.1" d="M208.098 127.215H203.84C198.802 127.215 194.717 131.3 194.717 136.338V143.096C194.717 148.134 198.802 152.219 203.84 152.219H208.098C213.137 152.219 217.222 148.134 217.222 143.096V136.338C217.222 131.3 213.137 127.215 208.098 127.215Z" fill="black"/>
<path d="M213.647 126.683H198.292C196.317 126.683 194.717 128.284 194.717 130.258V148.113C194.717 150.087 196.317 151.688 198.292 151.688H213.647C215.622 151.688 217.222 150.087 217.222 148.113V130.258C217.222 128.284 215.622 126.683 213.647 126.683Z" fill="#50E569"/>
<path opacity="0.2" d="M213.647 126.683H198.292C196.317 126.683 194.717 128.284 194.717 130.258V148.113C194.717 150.087 196.317 151.688 198.292 151.688H213.647C215.622 151.688 217.222 150.087 217.222 148.113V130.258C217.222 128.284 215.622 126.683 213.647 126.683Z" fill="black"/>
<path opacity="0.1" d="M159.032 187.41H115.372C113.618 187.41 112.196 188.832 112.196 190.586V209.239C112.196 210.993 113.618 212.415 115.372 212.415H159.032C160.786 212.415 162.208 210.993 162.208 209.239V190.586C162.208 188.832 160.786 187.41 159.032 187.41Z" fill="black"/>
<path opacity="0.1" d="M213.531 157.047H196.261C194.224 157.047 192.572 158.698 192.572 160.735V208.729C192.572 210.766 194.224 212.418 196.261 212.418H213.531C215.568 212.418 217.219 210.766 217.219 208.729V160.735C217.219 158.698 215.568 157.047 213.531 157.047Z" fill="black"/>
<path d="M215.431 75.2918H205.58V76.3579H215.431V75.2918Z" fill="#50E569"/>
<path d="M201.008 75.2918H191.157V76.3579H201.008V75.2918Z" fill="#50E569"/>
<path d="M186.584 75.2918H176.732V76.3579H186.584V75.2918Z" fill="#50E569"/>
<path d="M172.161 75.2918H162.31V76.3579H172.161V75.2918Z" fill="#50E569"/>
<path d="M278.342 150.128C279.357 146.711 278.342 143.295 278.342 143.295V140.071C278.342 140.071 279.503 133.77 274.321 129.727L270.885 126.696C270.885 126.696 268.959 125.041 268.399 124.937C268.294 124.914 268.189 124.899 268.082 124.89L267.981 124.829C267.686 124.324 267.434 123.795 267.228 123.248C267.451 123.276 267.677 123.254 267.889 123.181C268.101 123.109 268.294 122.989 268.452 122.83C268.577 122.687 268.674 122.523 268.74 122.346C268.94 121.9 268.974 121.359 269.142 120.884C269.289 120.5 269.503 120.144 269.775 119.834C269.74 119.891 269.702 119.945 269.67 120.005C270.158 119.398 270.793 118.879 271.252 118.24C271.343 118.113 271.427 117.981 271.502 117.844C271.483 117.873 271.458 117.898 271.436 117.927C272.068 116.911 272.261 115.681 272.445 114.494C272.533 114.09 272.54 113.673 272.464 113.267C272.375 112.997 272.26 112.736 272.122 112.488C271.375 110.948 271.388 109.009 270.195 107.778C269.297 106.857 267.937 106.576 266.656 106.418C265.374 106.26 264.027 106.168 262.926 105.497C262.618 105.264 262.278 105.078 261.917 104.944C261.735 104.88 261.536 104.882 261.355 104.949C261.175 105.016 261.023 105.144 260.926 105.31C260.904 105.409 260.858 105.501 260.793 105.579C260.736 105.612 260.672 105.631 260.606 105.635C260.54 105.638 260.475 105.627 260.414 105.602L258.709 105.146L258.728 105.231H258.683L258.747 105.5C258.78 105.494 258.814 105.5 258.844 105.517C258.873 105.534 258.896 105.56 258.908 105.592L258.633 106.016C258.105 106.006 257.584 105.899 257.095 105.7C257.092 105.727 257.092 105.755 257.095 105.782H257.07C257.038 106.263 257.586 106.576 257.753 107.028C257.821 107.226 257.821 107.441 257.753 107.639C257.685 107.822 257.577 107.989 257.437 108.126C256.833 108.724 256.058 108.607 255.362 108.983C255.302 109.009 255.248 109.048 255.204 109.096C255.16 109.145 255.128 109.202 255.109 109.265C255.081 109.312 255.073 109.367 255.087 109.42C255.114 109.493 255.164 109.555 255.229 109.597C255.431 109.761 255.654 109.899 255.89 110.008C255.82 110.072 255.754 110.135 255.691 110.201C254.807 111.099 254.16 112.201 253.807 113.41C253.454 114.619 253.406 115.897 253.667 117.129C253.928 118.361 254.49 119.509 255.303 120.471C256.116 121.432 257.155 122.178 258.326 122.64C258.351 122.773 258.37 122.909 258.389 123.052C258.389 123.067 258.389 123.077 258.389 123.093L258.408 123.276L256.111 124.254C255.765 124.251 255.427 124.15 255.135 123.962C254.844 123.775 254.612 123.508 254.466 123.194C253.932 122.09 252.043 123.194 252.043 123.194C252.043 123.194 246.282 122.764 244.134 123.827C244.134 123.827 240.696 122.384 240.212 122.286C239.728 122.188 239.003 121.805 238.665 121.903C238.326 122.001 237.89 121.27 237.646 121.324C237.402 121.378 237.308 120.843 236.532 120.65C235.757 120.457 235.466 120.701 234.596 119.834C233.726 118.967 226.653 115.551 226.653 115.551L223.477 112.938L220.088 110.242L220.028 110.353C220.006 110.274 219.984 110.192 219.962 110.103C219.625 108.76 219.202 107.441 218.697 106.152C218.478 105.63 218.38 104.972 218.086 105.32C217.906 105.529 217.599 105.07 217.137 104.76C217.039 104.692 216.927 104.647 216.81 104.628C216.692 104.609 216.572 104.617 216.458 104.65C216.344 104.684 216.238 104.742 216.149 104.821C216.06 104.9 215.99 104.998 215.944 105.108C213.306 109.246 212.36 109.537 213.888 111.059C215.251 112.409 216.156 113.589 217.267 113.963L217.399 114.004C217.376 114.01 217.351 114.01 217.327 114.004L223.768 121.704C223.768 121.704 228.415 125.747 231.613 127.044C234.811 128.341 234.565 128.73 234.565 128.73C234.565 128.73 244.251 133.637 245.751 133.542C247.25 133.447 246.963 143.599 246.333 145.247C245.704 146.895 244.688 158.72 244.688 158.72C244.688 158.72 243.717 161.223 244.735 162.953C244.735 162.953 244.96 166.268 244.758 167.066C243.875 168.426 242.616 170.735 242.41 173.111C242.41 173.238 242.385 173.355 242.372 173.478C242.308 173.553 242.231 173.616 242.145 173.665L242.36 173.601C242.268 174.592 242.056 175.567 241.727 176.506C241.215 177.824 240.944 179.223 240.927 180.637V188.28L240.294 193.025C240.294 193.025 239.519 196.616 240.294 197.454C240.621 197.872 240.773 198.401 240.718 198.929C240.685 199.541 240.859 200.147 241.211 200.65C241.346 200.797 241.445 200.973 241.499 201.164C241.554 201.356 241.564 201.558 241.528 201.754C241.271 202.586 241.907 211.44 241.907 211.44C241.907 211.44 241.721 213.879 241.464 214.009C241.208 214.139 241.907 216.831 241.907 216.831C241.907 216.831 239.291 219.014 239.959 220.168L240.626 221.193L240.449 221.367L240.341 221.478C240.14 221.362 239.904 221.317 239.674 221.352C238.852 222.193 237.972 222.976 237.042 223.696C235.862 224.547 232.651 225.781 232.651 225.781L230.12 225.986H230.073C230.073 225.986 228.861 225.872 229.541 227.748C230.221 229.624 236.302 229.048 236.302 229.048L239.851 228.489C239.851 228.489 246.178 228.52 247.991 228.118C248.747 227.951 248.94 227.546 248.877 227.138L248.858 227.119C248.771 226.73 248.593 226.366 248.339 226.059C248.326 226.039 248.311 226.02 248.294 226.002L248.408 224.705C251.094 223.158 247.649 220.115 247.649 220.115C247.649 220.115 248.829 217.549 249.433 216.717C250.038 215.885 250.038 203.626 250.038 203.626C250.038 203.626 250.354 199.197 249.522 198.172C249.508 197.839 249.584 197.507 249.744 197.214C249.903 196.92 250.139 196.675 250.427 196.505C251.025 196.097 252.831 190.476 254.248 185.809L255.14 191.308C255.14 191.308 254.947 193.94 255.526 194.708C255.635 194.853 255.713 195.019 255.754 195.196C255.795 195.372 255.8 195.555 255.767 195.733C255.629 196.471 255.674 197.231 255.896 197.948C255.964 198.255 256.13 198.533 256.368 198.739C256.883 198.995 256.915 199.909 257.108 200.102C257.301 200.295 258.497 199.83 258.56 200.536C258.596 201.155 258.596 201.776 258.56 202.396L258.949 213.816C258.949 213.816 258.316 214.765 258.174 217.296C258.12 218.375 257.918 218.988 257.709 219.34C257.593 219.528 257.54 219.748 257.557 219.969C257.574 220.189 257.661 220.399 257.804 220.567L257.915 220.697L257.437 221.064C257.245 221.213 257.111 221.424 257.056 221.661C257.002 221.898 257.032 222.146 257.14 222.364C256.986 222.498 256.875 222.675 256.823 222.872C256.77 223.07 256.778 223.278 256.845 223.471C256.865 223.535 256.893 223.595 256.928 223.651C256.565 223.708 256.228 223.875 255.963 224.129C255.486 224.785 254.911 225.363 254.258 225.844C253.31 226.57 252.403 227.347 251.54 228.172C251.133 228.726 250.588 229.162 249.958 229.438C249.804 229.5 249.644 229.548 249.481 229.58C248.215 229.839 248.611 231.162 249.642 231.38C250.673 231.598 254.096 232.645 256.76 232.035C256.76 232.035 257.551 232.351 258.712 231.763C259.873 231.174 262.464 230.453 262.464 230.453C262.464 230.453 263.916 230.453 264.112 229.877C264.163 229.694 264.191 229.505 264.194 229.314L264.235 229.273L264.197 229.238C264.201 228.807 264.168 228.376 264.099 227.951C264.061 227.729 264.02 227.533 263.982 227.375C263.859 226.894 263.628 226.271 263.53 226.008C263.547 225.987 263.561 225.965 263.574 225.942C264.128 224.993 263.207 222.74 263.207 222.74C263.51 222.261 263.877 221.825 264.299 221.447C264.814 221.061 266.171 211.051 266.171 211.051C266.171 211.051 266.105 208.486 266.804 207.331C267.503 206.176 265.836 199.185 265.836 199.185C265.836 199.185 265.124 197.581 265.384 197.002C265.643 196.423 265.124 194.307 265.124 194.307V191.776C265.123 191.475 265.073 191.175 264.976 190.89C264.776 190.295 264.482 189.153 264.802 188.334C265.254 187.179 266.285 180.058 266.285 180.058C266.285 180.058 265.479 176.917 266.662 174.414C266.754 174.215 266.86 174.021 266.978 173.836C267.854 172.459 267.592 170.014 267.159 168.043C267.095 167.727 267.022 167.442 266.95 167.167C266.921 167.047 266.89 166.933 266.858 166.819L266.997 166.762C266.997 166.762 266.997 166.575 267.041 166.256C267.519 166.161 267.972 165.969 268.373 165.692C268.773 165.415 269.113 165.059 269.37 164.645C269.37 164.645 272.325 161.324 274.938 159.929C277.551 158.534 277.747 156.512 277.747 156.512C277.361 155.838 278.44 153.095 278.44 153.095L278.342 150.128ZM269.819 154.557L267.022 157.8V157.781C266.295 156.768 267.699 154.506 267.699 154.506L270.025 149.318C270.006 149.983 269.923 150.584 269.708 150.846C269.076 151.713 270.872 153.159 270.872 153.159C269.914 153.162 269.819 154.557 269.819 154.557Z" fill="url(#paint0_linear)"/>
<path d="M220.582 112.042L219.054 115.007C218.57 114.965 218.093 114.865 217.633 114.709C216.905 114.492 216.23 114.122 215.655 113.625C215.08 113.127 214.617 112.514 214.296 111.824C212.932 108.812 215.188 106.867 216.238 106.291C217.289 105.715 218.266 105.061 219.054 106.949C219.548 108.231 219.961 109.542 220.291 110.875C220.474 111.568 220.582 112.042 220.582 112.042Z" fill="#CC818C"/>
<path d="M269.107 127.461L266.668 131.093C266.668 131.093 255.143 136.591 257.345 130.144C258.313 127.297 258.427 125.218 258.253 123.779C258.253 123.763 258.253 123.754 258.253 123.738C258.025 121.938 257.348 121.157 257.348 121.157C257.348 121.157 268.582 115.405 266.908 119.338C266.567 120.155 266.431 121.043 266.513 121.925C266.651 123.196 267.063 124.421 267.721 125.516C268.117 126.209 268.581 126.861 269.107 127.461Z" fill="#CC818C"/>
<path d="M265.598 199.403C265.598 199.403 267.256 206.363 266.547 207.499C265.839 208.634 265.915 211.197 265.915 211.197C265.915 211.197 264.577 221.143 264.067 221.522C263.649 221.892 263.284 222.318 262.982 222.788C262.982 222.788 263.893 225.04 263.346 225.97C263.262 226.112 263.134 226.223 262.982 226.287C262.128 226.647 258.971 225.047 257.174 224.072C257.029 223.993 256.906 223.88 256.814 223.743C256.722 223.606 256.665 223.449 256.647 223.285C256.629 223.121 256.651 222.955 256.711 222.801C256.77 222.648 256.866 222.511 256.99 222.402C256.882 222.186 256.852 221.94 256.905 221.705C256.958 221.469 257.091 221.26 257.282 221.111L257.756 220.744L257.645 220.614C257.503 220.447 257.418 220.238 257.401 220.019C257.384 219.8 257.436 219.581 257.55 219.393C257.756 219.049 257.955 218.444 258.009 217.366C258.139 214.879 258.775 213.924 258.775 213.924L258.392 202.573C258.428 201.958 258.428 201.341 258.392 200.725C258.329 200.026 257.149 200.488 256.959 200.295C256.769 200.102 256.734 199.197 256.225 198.941C255.99 198.735 255.828 198.459 255.763 198.153C255.538 197.437 255.493 196.677 255.633 195.939C255.666 195.762 255.662 195.58 255.621 195.405C255.58 195.23 255.504 195.065 255.396 194.92C254.823 194.155 255.013 191.545 255.013 191.545L254.134 186.078C252.732 190.716 250.951 196.303 250.36 196.708C250.076 196.878 249.843 197.121 249.686 197.412C249.529 197.704 249.454 198.032 249.468 198.362C250.296 199.384 249.977 203.785 249.977 203.785C249.977 203.785 249.977 215.958 249.379 216.79C248.781 217.622 247.623 220.181 247.623 220.181C247.623 220.181 251.04 223.221 248.351 224.756H248.322C245.58 226.287 239.907 222.016 239.907 222.016L240.499 221.424L240.673 221.25L240.002 220.251C239.344 219.102 241.926 216.935 241.926 216.935C241.926 216.935 241.236 214.256 241.489 214.129C241.742 214.003 241.926 211.579 241.926 211.579C241.926 211.579 241.293 202.782 241.553 201.953C241.587 201.758 241.577 201.558 241.522 201.367C241.467 201.177 241.369 201.002 241.236 200.855C240.888 200.356 240.716 199.755 240.749 199.147C240.804 198.622 240.653 198.097 240.328 197.682C239.563 196.853 240.328 193.285 240.328 193.285L240.961 188.565V181.07C240.969 179.624 241.241 178.191 241.761 176.841C242.148 175.747 242.382 174.604 242.457 173.446C242.666 171.029 243.966 168.682 244.839 167.344C245.301 166.635 245.646 166.211 245.646 166.211L266.044 165.414C266.044 165.414 266.361 166.322 266.702 167.584C266.772 167.86 266.842 168.151 266.908 168.454C267.335 170.416 267.591 172.845 266.728 174.212C266.611 174.397 266.505 174.59 266.411 174.788C265.244 177.274 266.041 180.397 266.041 180.397C266.041 180.397 265.023 187.47 264.577 188.622C264.26 189.435 264.551 190.571 264.751 191.153C264.844 191.438 264.892 191.735 264.893 192.035V194.557C264.893 194.557 265.405 196.66 265.149 197.236C264.893 197.812 265.598 199.403 265.598 199.403Z" fill="#444053"/>
<path opacity="0.1" d="M266.538 174.414C266.42 174.598 266.314 174.789 266.222 174.987L265.074 174.924C265.184 174.332 264.403 168.787 264.403 168.787L266.715 168.657C267.142 170.615 267.402 173.045 266.538 174.414Z" fill="black"/>
<path d="M266.728 174.221C266.611 174.407 266.505 174.599 266.412 174.797L265.263 174.731C265.374 174.142 264.593 168.594 264.593 168.594L266.905 168.464C267.336 170.425 267.592 172.855 266.728 174.221Z" fill="#444053"/>
<path opacity="0.05" d="M266.728 174.221C266.611 174.407 266.505 174.599 266.412 174.797L265.263 174.731C265.374 174.142 264.593 168.594 264.593 168.594L266.905 168.464C267.336 170.425 267.592 172.855 266.728 174.221Z" fill="black"/>
<path opacity="0.1" d="M263.349 225.983C263.265 226.125 263.138 226.235 262.986 226.299C262.131 226.66 258.974 225.059 257.177 224.085C256.953 223.961 256.783 223.758 256.7 223.515C257.725 223.329 258.395 224.465 258.395 224.465C258.566 224.357 258.757 224.285 258.956 224.253C259.155 224.221 259.358 224.228 259.555 224.276C259.751 224.323 259.935 224.41 260.097 224.529C260.26 224.649 260.396 224.8 260.499 224.974C261.375 226.265 263.255 225.72 263.255 225.72L263.349 225.983Z" fill="black"/>
<path d="M263.878 229.89C263.688 230.466 262.252 230.466 262.252 230.466C262.252 230.466 259.686 231.2 258.538 231.772C257.39 232.345 256.611 232.044 256.611 232.044C253.982 232.649 250.601 231.598 249.582 231.389C248.563 231.181 248.165 229.861 249.424 229.605C249.585 229.572 249.743 229.523 249.895 229.46C250.526 229.187 251.072 228.75 251.477 228.194C252.329 227.375 253.226 226.603 254.163 225.882C254.808 225.403 255.375 224.828 255.846 224.177C257.345 222.854 258.411 224.67 258.411 224.67C258.582 224.563 258.773 224.491 258.972 224.459C259.172 224.427 259.375 224.435 259.571 224.483C259.767 224.531 259.952 224.617 260.114 224.737C260.276 224.858 260.412 225.009 260.515 225.183C261.391 226.473 263.27 225.926 263.27 225.926C263.27 225.926 263.609 226.79 263.767 227.41C263.805 227.568 263.846 227.764 263.884 227.985C263.97 228.628 264.023 229.46 263.878 229.89Z" fill="#FF748F"/>
<path d="M259.493 225.86C259.589 225.86 259.667 225.782 259.667 225.686C259.667 225.59 259.589 225.512 259.493 225.512C259.397 225.512 259.319 225.59 259.319 225.686C259.319 225.782 259.397 225.86 259.493 225.86Z" fill="#575988"/>
<path d="M257.997 227.261C258.093 227.261 258.171 227.183 258.171 227.087C258.171 226.991 258.093 226.913 257.997 226.913C257.901 226.913 257.823 226.991 257.823 227.087C257.823 227.183 257.901 227.261 257.997 227.261Z" fill="#575988"/>
<path d="M256.475 228.52C256.571 228.52 256.649 228.442 256.649 228.346C256.649 228.25 256.571 228.172 256.475 228.172C256.379 228.172 256.301 228.25 256.301 228.346C256.301 228.442 256.379 228.52 256.475 228.52Z" fill="#575988"/>
<path d="M257.263 227.957C257.359 227.957 257.437 227.879 257.437 227.783C257.437 227.687 257.359 227.609 257.263 227.609C257.167 227.609 257.089 227.687 257.089 227.783C257.089 227.879 257.167 227.957 257.263 227.957Z" fill="#575988"/>
<path d="M258.779 226.518C258.875 226.518 258.953 226.44 258.953 226.344C258.953 226.248 258.875 226.17 258.779 226.17C258.682 226.17 258.604 226.248 258.604 226.344C258.604 226.44 258.682 226.518 258.779 226.518Z" fill="#575988"/>
<path d="M263.878 229.89C263.688 230.466 262.252 230.466 262.252 230.466C262.252 230.466 259.686 231.2 258.538 231.772C257.39 232.345 256.611 232.044 256.611 232.044C253.982 232.649 250.601 231.598 249.582 231.389C248.563 231.181 248.165 229.861 249.424 229.605C249.585 229.572 249.743 229.523 249.895 229.46C251.007 229.843 252.169 230.063 253.343 230.115C255.941 230.225 257.997 230.115 257.997 230.115L260.626 229.27C261.124 228.968 261.676 228.768 262.252 228.681C262.834 228.563 263.385 228.324 263.868 227.979C263.97 228.628 264.023 229.46 263.878 229.89Z" fill="#DCE6F2"/>
<path opacity="0.5" d="M257.335 231.538C257.189 231.539 257.043 231.525 256.899 231.497L256.937 231.31C257.474 231.393 258.024 231.316 258.519 231.089C258.753 230.997 258.987 230.886 259.215 230.773C259.442 230.659 259.762 230.516 260.047 230.412L260.306 230.323C260.448 230.273 260.594 230.225 260.733 230.165C260.812 230.134 260.891 230.096 260.967 230.058C261.154 229.96 261.351 229.885 261.556 229.833C261.66 229.814 261.766 229.8 261.872 229.792C261.97 229.785 262.067 229.774 262.163 229.757C262.354 229.709 262.54 229.64 262.717 229.551C262.905 229.454 263.105 229.38 263.311 229.33L263.451 229.308C263.601 229.304 263.745 229.251 263.862 229.156L264.004 229.286C263.859 229.413 263.675 229.488 263.482 229.498L263.349 229.52C263.157 229.567 262.972 229.636 262.796 229.725C262.606 229.82 262.407 229.893 262.201 229.944C262.097 229.964 261.991 229.977 261.885 229.982C261.785 229.989 261.686 230.002 261.587 230.02C261.397 230.069 261.214 230.14 261.04 230.232L260.8 230.342C260.654 230.402 260.502 230.453 260.357 230.504L260.104 230.592C259.825 230.693 259.553 230.823 259.287 230.947C259.022 231.07 258.819 231.168 258.579 231.263C258.185 231.431 257.763 231.524 257.335 231.538Z" fill="#575988"/>
<path opacity="0.1" d="M257.949 199.865C257.949 199.865 259.271 197.967 261.536 197.967C263.801 197.967 264.769 197.711 264.769 197.711C264.769 197.711 263.32 198.571 262.318 198.682C261.315 198.792 257.949 199.865 257.949 199.865Z" fill="black"/>
<path opacity="0.1" d="M258.715 200.311C258.715 200.311 259.911 199.482 260.594 199.451C261.277 199.419 261.859 199.356 261.859 199.356C261.539 199.581 261.184 199.753 260.809 199.865C260.249 200.023 258.715 200.311 258.715 200.311Z" fill="black"/>
<path opacity="0.1" d="M258.983 200.884C258.983 200.884 260.783 201.026 260.799 201.516L258.983 200.884Z" fill="black"/>
<path opacity="0.1" d="M242.195 173.994C242.29 174.01 243.9 172.32 244.011 171.653C244.099 171.23 244.35 170.859 244.71 170.621C244.71 170.621 245.748 171.036 244.824 172.308C243.9 173.579 242.195 173.994 242.195 173.994Z" fill="black"/>
<path opacity="0.1" d="M266.893 119.331C266.526 120.198 266.203 120.28 266.26 121.106C265.833 121.558 265.342 121.945 264.802 122.254C263.663 122.931 262.423 124.257 261.005 124.257C260.056 124.257 259.115 124.079 258.231 123.732C258.003 121.932 257.326 121.15 257.326 121.15C257.326 121.15 268.563 115.399 266.893 119.331Z" fill="black"/>
<path d="M268.613 116.272C268.613 117.774 268.168 119.242 267.334 120.49C266.499 121.739 265.314 122.712 263.926 123.287C262.539 123.861 261.012 124.012 259.539 123.719C258.067 123.426 256.714 122.703 255.652 121.641C254.59 120.579 253.867 119.226 253.574 117.753C253.281 116.281 253.432 114.754 254.006 113.367C254.581 111.979 255.554 110.793 256.803 109.959C258.051 109.125 259.519 108.68 261.021 108.68C263.034 108.68 264.966 109.48 266.389 110.903C267.813 112.327 268.613 114.258 268.613 116.272Z" fill="#CC818C"/>
<path opacity="0.1" d="M269.107 127.461L266.668 131.093C266.668 131.093 255.143 136.591 257.345 130.144C258.313 127.297 258.427 125.218 258.253 123.779H258.272C258.408 124.256 258.486 124.748 258.503 125.244C258.538 126.237 258.563 127.493 261.034 127.907C265.146 128.597 267.342 126.028 267.728 125.525C268.122 126.215 268.584 126.864 269.107 127.461Z" fill="black"/>
<path opacity="0.1" d="M220.582 112.042L219.054 115.007C218.57 114.965 218.093 114.865 217.633 114.709L217.5 114.551C218.133 114.792 220.224 110.821 220.224 110.821L220.291 110.875C220.474 111.568 220.582 112.042 220.582 112.042Z" fill="black"/>
<path opacity="0.1" d="M266.703 167.594C261.78 169.732 244.754 167.91 244.754 167.91C244.805 167.729 244.834 167.542 244.84 167.353C245.302 166.645 245.647 166.221 245.647 166.221L266.045 165.424C266.045 165.424 266.377 166.332 266.703 167.594Z" fill="black"/>
<path d="M258.259 123.956L255.988 124.927C255.645 124.925 255.31 124.824 255.023 124.637C254.735 124.451 254.507 124.186 254.365 123.874C253.837 122.776 251.973 123.874 251.973 123.874C251.973 123.874 246.279 123.444 244.178 124.507C244.178 124.507 240.784 123.07 240.306 122.976C239.829 122.881 239.11 122.498 238.775 122.593C238.44 122.688 238.013 121.96 237.772 122.02C237.532 122.08 237.437 121.542 236.671 121.35C235.906 121.157 235.621 121.397 234.773 120.536C233.925 119.676 226.931 116.282 226.931 116.282L223.767 113.7L220.42 111.024C220.42 111.024 218.317 114.991 217.693 114.75L224.052 122.403C224.052 122.403 228.642 126.417 231.8 127.708C234.957 128.999 234.716 129.382 234.716 129.382C234.716 129.382 244.28 134.26 245.76 134.165C247.241 134.07 246.962 144.146 246.33 145.772C245.697 147.398 244.707 159.16 244.707 159.16C244.707 159.16 243.758 161.646 244.754 163.367C244.754 163.367 244.991 166.907 244.754 167.527C244.754 167.527 261.885 169.359 266.747 167.192C266.747 167.192 267.465 159.255 266.747 158.252C266.029 157.249 267.418 155.013 267.418 155.013L270.477 148.176L277.936 140.669C277.936 140.669 279.082 134.405 273.966 130.391L270.572 127.376C270.572 127.376 268.674 125.734 268.117 125.63C267.56 125.525 267.766 125.63 267.766 125.63C267.766 125.63 265.551 128.86 261.008 128.094C258.547 127.68 258.522 126.424 258.478 125.434C258.465 124.934 258.391 124.438 258.259 123.956Z" fill="#67647E"/>
<path opacity="0.1" d="M267.607 149.695C267.607 149.695 257.085 150.125 254.985 153.431C254.985 153.431 257.712 152.137 260.148 152.52C262.584 152.903 267.607 149.695 267.607 149.695Z" fill="black"/>
<path opacity="0.1" d="M255.988 161.216C255.988 161.216 260.961 161.552 262.015 160.498C263.068 159.445 263.071 158.825 263.071 158.825L255.988 161.216Z" fill="black"/>
<path opacity="0.1" d="M268.614 139.556C268.614 139.556 264.404 144.529 269.522 146.68L268.614 139.556Z" fill="black"/>
<path opacity="0.1" d="M243.701 129.948C243.701 129.948 245.232 133.07 245.998 133.276L243.701 129.948Z" fill="black"/>
<path opacity="0.1" d="M238.538 128.607C238.538 128.607 242.363 132.052 243.081 132.384C243.081 132.384 239.111 128.607 238.538 128.607Z" fill="black"/>
<path opacity="0.1" d="M253.789 125.31C253.789 125.31 250.107 130.808 252.498 134.168C252.498 134.155 251.16 130.185 253.789 125.31Z" fill="black"/>
<path d="M263.071 166.955L261.945 168.015L261.787 168.16L260.483 169.394C260.392 169.464 260.3 169.533 260.205 169.596C254.9 173.393 253.837 167.622 253.837 167.622C253.837 167.622 251.496 169.154 251.16 167.91C250.825 166.667 256.611 164.899 257.488 164.993C257.564 165.001 257.642 165.001 257.718 164.993C258.137 164.924 258.539 164.782 258.908 164.573L259.164 164.437C259.459 164.271 259.745 164.09 260.022 163.896L263.071 166.955Z" fill="#CC818C"/>
<path opacity="0.1" d="M268.791 116.272C268.794 117.589 268.454 118.884 267.805 120.03C267.156 121.176 266.22 122.133 265.089 122.808C264.984 122.63 264.89 122.445 264.811 122.254C264.539 121.622 264.371 120.938 264.096 120.302C263.795 119.608 263.366 118.977 262.831 118.442C262.74 118.336 262.623 118.256 262.492 118.208C262.369 118.191 262.244 118.2 262.124 118.233C262.005 118.266 261.893 118.323 261.796 118.401C261.474 118.619 261.115 118.777 260.736 118.866C260.547 118.91 260.35 118.903 260.163 118.848C259.977 118.792 259.808 118.69 259.674 118.55C259.376 118.195 259.417 117.677 259.503 117.224C259.689 116.234 259.999 115.26 260.003 114.254C260.006 113.248 259.62 112.166 258.737 111.666C257.965 111.226 257.007 111.35 256.149 111.103C256.017 111.068 255.887 111.024 255.76 110.97C256.814 109.888 258.167 109.145 259.645 108.836C261.124 108.527 262.661 108.667 264.06 109.236C265.459 109.805 266.656 110.779 267.499 112.032C268.342 113.285 268.792 114.762 268.791 116.272Z" fill="black"/>
<path d="M255.241 109.755C255.105 109.828 254.954 109.961 254.995 110.113C255.021 110.185 255.07 110.247 255.134 110.29C255.488 110.576 255.897 110.786 256.336 110.907C257.193 111.141 258.155 111.03 258.927 111.47C259.8 111.967 260.192 113.052 260.192 114.058C260.192 115.064 259.876 116.038 259.696 117.025C259.61 117.481 259.566 117.999 259.863 118.354C259.999 118.493 260.167 118.595 260.354 118.65C260.54 118.706 260.737 118.713 260.926 118.67C261.305 118.582 261.664 118.426 261.986 118.208C262.083 118.13 262.195 118.072 262.315 118.038C262.436 118.005 262.561 117.996 262.685 118.012C262.815 118.062 262.931 118.142 263.024 118.246C263.559 118.782 263.988 119.414 264.289 120.109C264.567 120.742 264.732 121.422 265.004 122.061C265.241 122.713 265.686 123.269 266.269 123.643C266.877 123.978 267.718 123.959 268.187 123.441C268.655 122.922 268.617 122.21 268.838 121.587C269.218 120.502 270.278 119.822 270.942 118.885C271.685 117.832 271.891 116.509 272.094 115.234C272.184 114.833 272.19 114.417 272.112 114.013C272.026 113.746 271.913 113.487 271.777 113.241C271.037 111.71 271.053 109.784 269.879 108.563C268.993 107.645 267.649 107.367 266.383 107.209C265.118 107.05 263.789 106.962 262.704 106.294C262.4 106.064 262.064 105.879 261.708 105.744C261.527 105.68 261.33 105.682 261.151 105.749C260.971 105.816 260.821 105.944 260.727 106.111C260.705 106.208 260.66 106.299 260.597 106.377C260.541 106.409 260.477 106.428 260.412 106.432C260.346 106.436 260.281 106.425 260.221 106.399L258.538 105.946L258.731 106.794C258.119 106.82 257.509 106.712 256.943 106.478C256.912 106.959 257.453 107.269 257.62 107.718C257.681 107.922 257.683 108.139 257.627 108.345C257.572 108.55 257.46 108.736 257.304 108.882C256.693 109.496 255.931 109.379 255.241 109.755Z" fill="#585268"/>
<path opacity="0.1" d="M248.421 223.996L248.352 224.759H248.323C245.58 226.29 239.908 222.019 239.908 222.019L240.5 221.428C240.597 221.535 240.67 221.662 240.715 221.8C240.76 221.938 240.775 222.084 240.759 222.228L241.917 222.291L243.303 223.788C243.303 223.788 247.051 224.221 248.067 223.981L248.421 223.996Z" fill="black"/>
<path d="M247.94 228.153C246.156 228.552 239.908 228.523 239.908 228.523L236.403 229.077C236.403 229.077 230.392 229.653 229.724 227.786C229.057 225.92 230.25 226.037 230.25 226.037H230.297L232.799 225.834C232.799 225.834 235.963 224.607 237.137 223.762C238.055 223.047 238.923 222.269 239.734 221.434C239.734 221.434 240.778 221.231 240.759 222.44L241.917 222.503L243.302 224.003C243.302 224.003 247.051 224.436 248.067 224.192H248.421L248.259 226.043L248.304 226.097C248.544 226.388 249.534 227.799 247.94 228.153Z" fill="#FF748F"/>
<path d="M241.471 223.689C241.567 223.689 241.645 223.612 241.645 223.515C241.645 223.419 241.567 223.341 241.471 223.341C241.375 223.341 241.297 223.419 241.297 223.515C241.297 223.612 241.375 223.689 241.471 223.689Z" fill="#575988"/>
<path d="M236.975 225.638C237.071 225.638 237.149 225.56 237.149 225.464C237.149 225.368 237.071 225.29 236.975 225.29C236.879 225.29 236.801 225.368 236.801 225.464C236.801 225.56 236.879 225.638 236.975 225.638Z" fill="#575988"/>
<path d="M234.659 226.34C234.755 226.34 234.833 226.263 234.833 226.166C234.833 226.07 234.755 225.992 234.659 225.992C234.563 225.992 234.485 226.07 234.485 226.166C234.485 226.263 234.563 226.34 234.659 226.34Z" fill="#575988"/>
<path d="M238.155 225.265C238.251 225.265 238.329 225.187 238.329 225.091C238.329 224.995 238.251 224.917 238.155 224.917C238.059 224.917 237.981 224.995 237.981 225.091C237.981 225.187 238.059 225.265 238.155 225.265Z" fill="#575988"/>
<path d="M235.814 225.989C235.91 225.989 235.988 225.911 235.988 225.815C235.988 225.719 235.91 225.641 235.814 225.641C235.718 225.641 235.64 225.719 235.64 225.815C235.64 225.911 235.718 225.989 235.814 225.989Z" fill="#575988"/>
<path d="M239.348 224.711C239.444 224.711 239.522 224.633 239.522 224.537C239.522 224.441 239.444 224.363 239.348 224.363C239.252 224.363 239.174 224.441 239.174 224.537C239.174 224.633 239.252 224.711 239.348 224.711Z" fill="#575988"/>
<path d="M240.528 224.199C240.624 224.199 240.702 224.121 240.702 224.025C240.702 223.929 240.624 223.851 240.528 223.851C240.431 223.851 240.354 223.929 240.354 224.025C240.354 224.121 240.431 224.199 240.528 224.199Z" fill="#575988"/>
<path d="M247.94 228.153C246.156 228.552 239.908 228.523 239.908 228.523L236.403 229.077C236.403 229.077 230.392 229.653 229.724 227.786C229.057 225.92 230.25 226.037 230.25 226.037H230.297C230.68 226.533 231.449 227.097 232.958 227.125L237.279 227.299L241.755 226.983C241.755 226.983 245.95 226.859 246.633 226.714C247.207 226.559 247.766 226.354 248.304 226.1C248.544 226.388 249.534 227.799 247.94 228.153Z" fill="#DCE6F2"/>
<path opacity="0.5" d="M236.741 228.656C236.502 228.659 236.263 228.63 236.032 228.568L236.083 228.384C236.672 228.511 237.285 228.484 237.861 228.305C238.073 228.248 238.281 228.188 238.493 228.125C238.876 228.003 239.266 227.905 239.661 227.83C240.298 227.748 240.943 227.729 241.584 227.774H241.72C243.637 227.874 245.559 227.788 247.459 227.517C247.91 227.486 248.339 227.313 248.686 227.024L248.822 227.16C248.447 227.478 247.981 227.67 247.49 227.707C245.578 227.98 243.643 228.066 241.714 227.963H241.575C240.942 227.919 240.306 227.938 239.677 228.02C239.29 228.092 238.909 228.189 238.535 228.308C238.323 228.371 238.111 228.435 237.902 228.489C237.523 228.592 237.133 228.648 236.741 228.656Z" fill="#575988"/>
<path opacity="0.1" d="M263.071 166.955L261.944 168.015L259.148 164.434C259.443 164.268 259.729 164.087 260.005 163.893L263.071 166.955Z" fill="black"/>
<path d="M275.75 137.613L277.964 140.672V143.877C277.964 143.877 278.967 147.271 277.964 150.666L278.072 153.63C278.072 153.63 277.006 156.354 277.389 157.025C277.389 157.025 277.199 159.033 274.617 160.419C272.036 161.805 269.107 165.088 269.107 165.088C269.107 165.088 268.006 167.192 265.041 166.714L262.22 167.91L258.971 163.75L263.368 161.359C263.368 161.359 264.899 159.305 265.807 159.4L269.537 155.047C269.537 155.047 269.632 153.662 270.587 153.662C270.587 153.662 268.819 152.229 269.439 151.368C270.059 150.508 269.537 146.68 269.537 146.68L275.75 137.613Z" fill="#67647E"/>
<path opacity="0.1" d="M271.638 151.558C271.638 151.558 276.659 151.463 277.279 152.754C277.899 154.044 273.154 150.84 271.638 151.558Z" fill="black"/>
<path opacity="0.1" d="M261.809 167.91C261.81 167.994 261.802 168.078 261.787 168.16C261.729 168.545 261.54 168.898 261.252 169.16C260.964 169.422 260.594 169.576 260.205 169.596H260.116C259.668 169.596 259.239 169.418 258.922 169.102C258.605 168.785 258.427 168.355 258.427 167.907C258.428 167.721 258.46 167.536 258.522 167.36C257.725 166.727 257.681 165.563 257.703 164.987C258.121 164.918 258.523 164.775 258.892 164.566C259.1 165.164 259.38 165.734 259.724 166.265C259.853 166.235 259.984 166.219 260.116 166.218C260.339 166.218 260.559 166.262 260.764 166.347C260.97 166.432 261.156 166.556 261.313 166.713C261.47 166.871 261.595 167.057 261.68 167.263C261.765 167.468 261.809 167.688 261.809 167.91Z" fill="black"/>
<path d="M259.044 164.187C259.044 164.187 257.911 164.443 257.911 164.649C257.911 164.854 257.655 166.721 258.898 167.496C260.142 168.271 260.015 166.427 260.015 166.427C260.015 166.427 258.946 164.788 259.044 164.187Z" fill="#575988"/>
<path d="M260.306 169.6C261.239 169.6 261.995 168.843 261.995 167.91C261.995 166.977 261.239 166.221 260.306 166.221C259.373 166.221 258.617 166.977 258.617 167.91C258.617 168.843 259.373 169.6 260.306 169.6Z" fill="#E4AAB4"/>
<path d="M260.306 169.359C261.107 169.359 261.755 168.71 261.755 167.91C261.755 167.11 261.107 166.461 260.306 166.461C259.506 166.461 258.857 167.11 258.857 167.91C258.857 168.71 259.506 169.359 260.306 169.359Z" fill="#DCE6F2"/>
<path opacity="0.1" d="M253.726 168.565C253.726 168.565 257.297 171.526 261.884 169.647V171.083C261.884 171.083 258.825 173.187 256.054 171.912C253.283 170.637 253.726 168.565 253.726 168.565Z" fill="black"/>
<path opacity="0.1" d="M253.726 168.182C253.726 168.182 257.297 171.146 261.884 169.264V170.7C261.884 170.7 258.825 172.804 256.054 171.529C253.283 170.254 253.726 168.182 253.726 168.182Z" fill="black"/>
<path d="M253.726 168.182C253.726 168.182 257.297 171.146 261.884 169.264V170.7C261.884 170.7 258.825 172.804 256.054 171.529C253.283 170.254 253.726 168.182 253.726 168.182Z" fill="#444053"/>
<path opacity="0.05" d="M253.821 168.182C253.821 168.182 257.392 171.146 261.983 169.264V170.7C261.983 170.7 258.924 172.804 256.149 171.529C253.375 170.254 253.821 168.182 253.821 168.182Z" fill="black"/>
<path opacity="0.1" d="M242.505 221.428C242.505 221.428 247.288 222.307 247.987 222.497C248.686 222.687 247.797 223.022 247.797 223.022C247.797 223.022 243.432 222.241 242.505 221.428Z" fill="black"/>
<path opacity="0.1" d="M242.394 218.894C242.473 218.894 245.646 218.001 246.329 216.473L242.394 218.894Z" fill="black"/>
<path opacity="0.1" d="M247.022 200.599C247.022 200.599 248.307 202.288 249.136 202.241C249.965 202.193 247.775 200.536 247.022 200.599Z" fill="black"/>
<path opacity="0.1" d="M247.734 203.414C247.734 203.414 248.275 204.607 249.073 204.224L247.734 203.414Z" fill="black"/>
<path opacity="0.05" d="M250.759 177.157L254.15 186.1C254.15 186.1 254.628 180.346 253.619 178.625C253.332 178.133 252.91 177.733 252.403 177.473C251.897 177.213 251.326 177.103 250.759 177.157Z" fill="black"/>
<g opacity="0.1">
<path opacity="0.1" d="M259.091 106.294L259.063 106.165L258.519 106.019L258.579 106.285C258.749 106.297 258.92 106.301 259.091 106.294Z" fill="black"/>
<path opacity="0.1" d="M257.594 108.452L257.651 108.401C257.807 108.256 257.919 108.07 257.975 107.864C258.031 107.658 258.028 107.441 257.968 107.237C257.902 107.078 257.81 106.932 257.696 106.804C257.428 106.751 257.165 106.673 256.911 106.573C256.879 107.05 257.417 107.36 257.585 107.81C257.663 108.016 257.666 108.243 257.594 108.452Z" fill="black"/>
<path opacity="0.1" d="M266.639 123.153C266.05 122.781 265.599 122.225 265.358 121.571C265.089 120.938 264.922 120.255 264.646 119.622C264.346 118.927 263.916 118.295 263.381 117.759C263.29 117.654 263.173 117.573 263.042 117.525C262.919 117.509 262.794 117.517 262.675 117.55C262.555 117.584 262.444 117.641 262.346 117.718C262.024 117.936 261.665 118.094 261.287 118.183C261.097 118.226 260.9 118.219 260.714 118.164C260.528 118.108 260.359 118.006 260.224 117.866C259.926 117.512 259.968 116.99 260.053 116.538C260.24 115.551 260.55 114.573 260.553 113.57C260.556 112.568 260.17 111.479 259.287 110.983C258.515 110.543 257.557 110.666 256.7 110.42C256.26 110.299 255.85 110.089 255.494 109.803C255.472 109.784 255.451 109.764 255.431 109.743C255.359 109.77 255.289 109.803 255.222 109.841C255.083 109.913 254.934 110.046 254.972 110.198C255.001 110.27 255.051 110.332 255.115 110.375C255.468 110.662 255.878 110.872 256.317 110.992C257.174 111.226 258.133 111.116 258.905 111.555C259.778 112.052 260.17 113.137 260.17 114.143C260.17 115.149 259.854 116.123 259.67 117.11C259.585 117.566 259.544 118.085 259.841 118.439C259.976 118.579 260.145 118.681 260.331 118.736C260.517 118.792 260.714 118.798 260.904 118.755C261.283 118.668 261.642 118.511 261.964 118.294C262.06 118.215 262.172 118.157 262.291 118.124C262.411 118.09 262.536 118.081 262.66 118.097C262.79 118.146 262.907 118.227 262.998 118.331C263.532 118.868 263.962 119.5 264.264 120.195C264.542 120.828 264.706 121.508 264.979 122.147C265.216 122.798 265.66 123.354 266.244 123.728C266.848 124.064 267.693 124.045 268.142 123.526C268.266 123.385 268.363 123.222 268.427 123.045C268.172 123.235 267.867 123.347 267.549 123.366C267.232 123.385 266.915 123.311 266.639 123.153Z" fill="black"/>
<path opacity="0.1" d="M269.372 120.72C269.85 120.116 270.479 119.6 270.929 118.967C271.017 118.841 271.099 118.708 271.175 118.575C270.596 119.312 269.802 119.897 269.372 120.72Z" fill="black"/>
</g>
<defs>
<linearGradient id="paint0_linear" x1="245.976" y1="232.228" x2="245.976" y2="104.618" gradientUnits="userSpaceOnUse">
<stop stop-color="#808080" stop-opacity="0.25"/>
<stop offset="0.54" stop-color="#808080" stop-opacity="0.12"/>
<stop offset="1" stop-color="#808080" stop-opacity="0.1"/>
</linearGradient>
</defs>
</svg>
